<?xml version="1.0" standalone="no"?>
<!DOCTYPE svg PUBLIC "-//W3C//DTD SVG 20010904//EN"
 "http://www.w3.org/TR/2001/REC-SVG-20010904/DTD/svg10.dtd">
<svg version="1.0" xmlns="http://www.w3.org/2000/svg"
 width="900.000000pt" height="228.000000pt" viewBox="0 0 900.000000 228.000000"
 preserveAspectRatio="xMidYMid meet">
<metadata>
Created by potrace 1.10, written by Peter Selinger 2001-2011
</metadata>
<g transform="translate(0.000000,228.000000) scale(0.100000,-0.100000)"
fill="#201e1e" stroke="none">
<path d="M594 1979 c-2 -4 -5 -405 -5 -891 l0 -883 72 -3 c40 -2 75 1 78 7 3
5 4 130 1 277 -3 148 -2 273 2 278 4 5 80 8 170 7 l163 -1 25 -32 c14 -17 41
-52 60 -79 19 -27 105 -141 190 -254 l155 -205 87 0 c48 0 89 4 93 9 3 6 -14
32 -37 58 -51 57 -106 126 -226 283 -49 63 -112 140 -140 171 -29 31 -52 62
-52 68 0 6 12 13 28 16 122 24 142 32 228 87 42 27 124 115 124 134 0 5 5 15
12 22 23 23 41 85 69 235 12 67 6 151 -20 277 -31 153 -127 281 -256 345 -129
63 -149 67 -430 71 -143 2 -288 6 -323 7 -35 2 -65 0 -68 -4z m671 -176 c89
-35 129 -60 172 -107 75 -83 102 -170 102 -326 0 -124 -22 -220 -64 -279 -29
-41 -108 -109 -144 -124 -23 -9 -58 -24 -78 -32 -30 -12 -89 -16 -276 -18
l-238 -2 0 450 c0 248 1 453 1 456 0 4 109 4 243 2 192 -3 250 -7 282 -20z"/>
<path d="M2093 1978 c-2 -5 -5 -406 -6 -893 l-2 -885 490 2 490 3 3 73 c2 53
0 72 -10 73 -7 0 -195 0 -418 -1 l-405 -1 0 347 0 346 300 -3 300 -4 0 65 0
65 -299 0 -300 0 0 330 1 329 414 1 414 0 3 73 c2 53 -1 74 -11 77 -21 9 -958
11 -964 3z"/>
<path d="M5084 1980 c-13 -5 -15 -116 -15 -890 l0 -885 466 -3 c256 -1 465 1
465 5 4 56 2 134 -3 139 -3 3 -180 5 -393 5 l-387 -2 6 63 c8 71 10 1558 4
1565 -7 6 -126 9 -143 3z"/>
<path d="M6357 1984 c-4 -4 -7 -407 -7 -896 l0 -889 76 3 76 3 -1 620 c-1 341
-4 657 -7 702 -6 72 -4 83 10 89 22 8 23 7 47 -62 22 -65 34 -95 55 -137 8
-16 14 -32 14 -37 0 -5 18 -48 41 -97 38 -82 56 -122 96 -213 9 -19 20 -42 25
-50 4 -8 11 -22 14 -30 11 -27 25 -59 141 -310 22 -47 48 -107 59 -133 23 -58
40 -69 101 -65 52 3 49 0 106 128 30 67 76 167 128 278 22 46 39 85 39 87 0 2
17 41 39 87 89 191 111 239 111 243 0 3 13 33 29 68 17 34 45 104 63 155 24
66 37 92 48 89 12 -2 15 -18 14 -72 0 -39 -1 -356 -3 -705 l-2 -635 75 -3 c57
-2 76 0 76 10 4 471 -3 1764 -9 1767 -5 4 -38 4 -72 3 l-64 -4 -18 -41 c-10
-23 -24 -55 -32 -72 -7 -16 -25 -57 -40 -90 -37 -81 -57 -125 -103 -225 -22
-47 -55 -116 -72 -155 -18 -38 -43 -92 -55 -120 -13 -27 -47 -102 -75 -165
-29 -63 -60 -133 -70 -155 -59 -129 -80 -176 -80 -182 0 -22 -35 -93 -45 -93
-10 0 -45 71 -45 93 0 4 -14 37 -31 74 -16 38 -36 82 -43 98 -8 17 -27 59 -44
95 -16 36 -43 94 -59 130 -17 36 -44 95 -62 132 -17 37 -31 70 -31 73 0 3 -20
48 -45 101 -25 52 -45 97 -45 99 0 2 -20 46 -44 97 -54 115 -87 188 -116 256
l-22 52 -47 0 c-25 0 -55 3 -66 6 -11 3 -24 2 -28 -2z"/>
<path d="M8075 1977 c-36 -20 4 -65 46 -52 41 13 47 -7 42 -133 -5 -103 -4
-119 11 -132 13 -10 22 -11 34 -3 14 9 17 30 17 139 l0 129 37 3 c38 3 68 27
52 41 -12 12 -221 19 -239 8z"/>
<path d="M8614 1976 c-11 -8 -26 -34 -33 -58 -7 -24 -19 -54 -26 -68 -7 -14
-15 -38 -19 -53 -9 -37 -37 -32 -50 8 -5 17 -14 44 -21 60 -7 17 -21 49 -31
73 -14 35 -22 42 -44 42 l-28 0 -4 -152 c-6 -171 4 -205 45 -164 11 11 13 33
9 90 -4 65 -2 76 11 76 10 0 19 -11 23 -27 3 -16 12 -44 19 -63 8 -19 15 -44
17 -55 2 -13 12 -21 29 -23 23 -3 27 2 44 60 11 35 29 83 42 108 l22 45 3
-110 c3 -102 4 -110 23 -110 19 0 20 8 23 154 3 177 -5 201 -54 167z"/>
<path d="M3951 1963 c-5 -10 -23 -58 -39 -108 -17 -49 -47 -135 -67 -190 -20
-55 -40 -115 -45 -134 -5 -18 -13 -38 -19 -44 -6 -6 -11 -21 -11 -32 0 -12 -3
-25 -6 -28 -7 -7 -39 -92 -54 -142 -13 -46 -32 -98 -43 -120 -6 -11 -14 -33
-18 -50 -4 -16 -24 -75 -44 -130 -20 -55 -39 -109 -41 -120 -3 -11 -10 -29
-15 -40 -9 -20 -22 -56 -64 -180 -13 -38 -34 -95 -45 -125 -12 -30 -26 -68
-30 -85 -14 -48 -39 -115 -66 -170 -13 -29 -24 -55 -24 -59 0 -4 39 -5 87 -4
l87 3 7 30 c6 27 20 67 40 120 4 11 14 40 22 65 8 25 24 77 37 115 12 39 28
81 35 94 l12 24 393 0 393 0 12 -34 c7 -19 34 -101 60 -184 26 -82 55 -169 63
-192 l15 -43 84 0 c77 0 84 2 78 18 -4 9 -11 28 -15 42 -4 14 -19 51 -34 84
-14 32 -26 65 -26 72 0 7 -6 28 -14 46 -23 54 -63 166 -76 213 -5 17 -25 75
-45 130 -20 55 -40 114 -45 130 -5 17 -14 39 -19 50 -5 11 -18 49 -30 85 -11
36 -36 110 -56 165 -19 55 -53 152 -75 215 -21 63 -55 160 -75 215 -19 55 -45
129 -56 165 -12 36 -28 84 -37 108 l-15 42 -83 0 c-69 0 -85 -3 -93 -17z m124
-228 c4 -30 11 -58 16 -61 5 -3 9 -16 9 -29 0 -13 6 -39 14 -57 16 -40 35 -93
46 -133 12 -40 68 -205 79 -230 5 -11 18 -49 30 -85 53 -167 76 -229 103 -284
41 -82 33 -89 -92 -75 -95 11 -492 6 -557 -7 -46 -9 -51 13 -20 79 27 56 52
122 67 172 9 30 62 180 94 265 10 25 21 59 26 75 9 33 29 89 41 120 21 49 68
204 74 240 10 61 12 65 39 65 22 0 25 -5 31 -55z"/>
</g>
</svg>
