<svg width="24" height="28" viewBox="0 0 24 28" fill="none" xmlns="http://www.w3.org/2000/svg">
<path fill-rule="evenodd" clip-rule="evenodd" d="M2.25002 27.8542C1.09202 27.8542 0.150024 26.9279 0.150024 25.7892V2.21029C0.150024 1.07221 1.09202 0.145874 2.25002 0.145874H16.5C16.6614 0.145874 16.8114 0.206541 16.923 0.317957L23.6736 6.94987C23.7876 7.06187 23.85 7.21062 23.85 7.36871V25.7892C23.85 26.9279 22.908 27.8542 21.75 27.8542H2.25002Z" fill="white"/>
<mask id="mask0" mask-type="alpha" maskUnits="userSpaceOnUse" x="0" y="0" width="24" height="28">
<path fill-rule="evenodd" clip-rule="evenodd" d="M0 0.00012207H24V28.0001H0V0.00012207Z" fill="white"/>
</mask>
<g mask="url(#mask0)">
<path fill-rule="evenodd" clip-rule="evenodd" d="M16.5 0.00012207H2.25C1.0092 0.00012207 0 0.991205 0 2.21037V25.7899C0 27.0085 1.0092 28.0001 2.25 28.0001H21.75C22.9902 28.0001 24 27.0085 24 25.7899V7.36879C24 7.17279 23.9208 6.98612 23.7804 6.84729L17.0304 0.215955C16.8894 0.0765387 16.6992 0.00012207 16.5 0.00012207ZM16.5 0.291738C16.6206 0.291738 16.7328 0.337238 16.8168 0.421238L23.5668 7.05257C23.6532 7.13657 23.7 7.24915 23.7 7.36874V25.7898C23.7 26.8474 22.8252 27.7084 21.75 27.7084H2.25C1.1748 27.7084 0.300001 26.8474 0.300001 25.7898V2.21032C0.300001 1.15274 1.1748 0.291738 2.25 0.291738H16.5Z" fill="#EBECEF"/>
</g>
<path fill-rule="evenodd" clip-rule="evenodd" d="M23.9999 7.36861C23.9999 7.17261 23.9207 6.98594 23.7803 6.84711L17.0303 0.215772C16.8893 0.0763556 16.6991 -6.10352e-05 16.4999 -6.10352e-05H16.0121V5.63727C16.0121 6.85586 17.0213 7.84752 18.2621 7.84752H23.9999V7.36861Z" fill="#EBECEF"/>
<path d="M10.5224 24.0681C10.5224 24.1466 10.5322 24.2027 10.5519 24.2364C10.5755 24.27 10.6188 24.2868 10.6818 24.2868C10.7015 24.2868 10.7251 24.2868 10.7527 24.2868C10.7803 24.2868 10.8118 24.2831 10.8472 24.2756V24.7187C10.8236 24.7262 10.7921 24.7337 10.7527 24.7412C10.7173 24.7524 10.6799 24.7617 10.6405 24.7692C10.6011 24.7767 10.5618 24.7823 10.5224 24.786C10.483 24.7898 10.4496 24.7916 10.422 24.7916C10.2842 24.7916 10.17 24.7655 10.0795 24.7131C9.98893 24.6608 9.92988 24.5692 9.90232 24.4383C9.76846 24.5617 9.60311 24.6514 9.40626 24.7075C9.21335 24.7636 9.02635 24.7916 8.84525 24.7916C8.70745 24.7916 8.57557 24.773 8.44958 24.7356C8.3236 24.7019 8.2114 24.6514 8.11298 24.5841C8.01849 24.5131 7.94172 24.4252 7.88266 24.3205C7.82755 24.2121 7.79999 24.0868 7.79999 23.9447C7.79999 23.7652 7.83345 23.6194 7.90038 23.5072C7.97125 23.395 8.06179 23.3071 8.17203 23.2436C8.2862 23.18 8.41218 23.1351 8.54998 23.109C8.69171 23.079 8.83344 23.0566 8.97517 23.0416C9.09721 23.0192 9.21335 23.0043 9.32359 22.9968C9.43382 22.9856 9.53028 22.9687 9.61295 22.9463C9.69957 22.9239 9.76649 22.8902 9.81374 22.8453C9.86492 22.7967 9.89051 22.7257 9.89051 22.6322C9.89051 22.5499 9.86885 22.4826 9.82555 22.4303C9.78618 22.3779 9.735 22.3387 9.67201 22.3125C9.61295 22.2826 9.54602 22.2639 9.47122 22.2564C9.39642 22.2452 9.32555 22.2396 9.25863 22.2396C9.06965 22.2396 8.91414 22.277 8.7921 22.3517C8.67005 22.4265 8.60116 22.5424 8.58541 22.6995H7.91219C7.924 22.5125 7.97125 22.3574 8.05392 22.234C8.1366 22.1106 8.24093 22.0115 8.36691 21.9367C8.49683 21.8619 8.64249 21.8095 8.80391 21.7796C8.96532 21.7497 9.13068 21.7348 9.29996 21.7348C9.44957 21.7348 9.5972 21.7497 9.74287 21.7796C9.88854 21.8095 10.0185 21.8582 10.1326 21.9255C10.2507 21.9928 10.3452 22.0806 10.4161 22.1891C10.487 22.2938 10.5224 22.4228 10.5224 22.5761V24.0681ZM9.84917 23.2604C9.74681 23.324 9.62083 23.3632 9.47122 23.3782C9.32162 23.3894 9.17201 23.4081 9.02241 23.4343C8.95155 23.4455 8.88265 23.4623 8.81572 23.4848C8.74879 23.5035 8.68974 23.5315 8.63856 23.5689C8.58738 23.6025 8.54604 23.6493 8.51454 23.7091C8.48699 23.7652 8.47321 23.8344 8.47321 23.9166C8.47321 23.9877 8.49486 24.0475 8.53817 24.0961C8.58147 24.1447 8.63265 24.184 8.69171 24.2139C8.7547 24.2401 8.82163 24.2588 8.89249 24.27C8.96729 24.2812 9.03422 24.2868 9.09328 24.2868C9.16808 24.2868 9.24878 24.2775 9.3354 24.2588C9.42201 24.2401 9.50272 24.2083 9.57752 24.1634C9.65626 24.1186 9.72122 24.0625 9.7724 23.9952C9.82358 23.9241 9.84917 23.8381 9.84917 23.7372V23.2604Z" fill="#5856D6"/>
<path d="M10.9456 21.8133H11.6779L12.4515 24.04H12.4633L13.2074 21.8133H13.9042L12.8117 24.7131H12.0558L10.9456 21.8133Z" fill="#5856D6"/>
<path d="M14.3268 20.7083H15V21.3141H14.3268V20.7083ZM14.3268 21.8133H15V24.7131H14.3268V21.8133Z" fill="#5856D6"/>
<path d="M16.7812 11.6666C16.6687 11.6666 16.5562 11.7031 16.4437 11.776L14.4 13.0521V11.9583C14.4 11.4844 13.95 11.0833 13.425 11.0833H7.55623C7.03123 11.0833 6.59998 11.4844 6.59998 11.9583V17.2265C6.59998 17.7005 7.03123 18.0833 7.55623 18.0833H13.425C13.95 18.0833 14.4 17.7005 14.4 17.2265V16.1328L16.4437 17.4088C16.5562 17.4817 16.6687 17.5 16.7812 17.5C17.1 17.5 17.3812 17.263 17.3812 16.9349V12.25C17.4 11.9036 17.1 11.6666 16.7812 11.6666ZM13.8 17.2265C13.8 17.3724 13.6125 17.5 13.425 17.5H7.55623C7.36873 17.5 7.19998 17.3724 7.19998 17.2265V11.9583C7.19998 11.8125 7.36873 11.6666 7.55623 11.6666H13.425C13.6125 11.6666 13.8 11.8125 13.8 11.9583V17.2265ZM16.8 16.9349L16.7625 16.9166L14.4 15.4401V13.7448L16.8 12.25V16.9349Z" fill="#5856D6"/>
</svg>
