<svg width="24" height="28" viewBox="0 0 24 28" fill="none" xmlns="http://www.w3.org/2000/svg">
<path fill-rule="evenodd" clip-rule="evenodd" d="M2.2496 27.8542C1.0916 27.8542 0.149597 26.9278 0.149597 25.7892V2.21026C0.149597 1.07218 1.0916 0.145844 2.2496 0.145844H16.4996C16.6616 0.145844 16.8116 0.20651 16.9226 0.317927L23.6738 6.94984C23.7872 7.06184 23.8496 7.21059 23.8496 7.36868V25.7892C23.8496 26.9278 22.9076 27.8542 21.7496 27.8542H2.2496Z" fill="white"/>
<path fill-rule="evenodd" clip-rule="evenodd" d="M16.5003 0H2.2503C1.00951 0 0.000305176 0.991083 0.000305176 2.21025V25.7897C0.000305176 27.0083 1.00951 28 2.2503 28H21.7503C22.9905 28 24.0003 27.0083 24.0003 25.7897V7.36867C24.0003 7.17267 23.9211 6.986 23.7807 6.84717L17.0307 0.215833C16.8897 0.0764167 16.6995 0 16.5003 0ZM16.5002 0.291667C16.6202 0.291667 16.733 0.337167 16.817 0.421167L23.567 7.0525C23.6528 7.1365 23.7002 7.24908 23.7002 7.36867V25.7897C23.7002 26.8473 22.8254 27.7083 21.7502 27.7083H2.25018C1.17498 27.7083 0.300184 26.8473 0.300184 25.7897V2.21025C0.300184 1.15267 1.17498 0.291667 2.25018 0.291667H16.5002Z" fill="#EBECEF"/>
<mask id="mask0" mask-type="alpha" maskUnits="userSpaceOnUse" x="16" y="0" width="9" height="8">
<path fill-rule="evenodd" clip-rule="evenodd" d="M16.0124 0H24.0002V7.84747H16.0124V0Z" fill="white"/>
</mask>
<g mask="url(#mask0)">
<path fill-rule="evenodd" clip-rule="evenodd" d="M24.0002 7.36855C24.0002 7.17254 23.921 6.98588 23.7806 6.84704L17.0306 0.215711C16.8896 0.0762946 16.6994 -0.00012207 16.5002 -0.00012207H16.0124V5.63721C16.0124 6.85638 17.021 7.84746 18.2624 7.84746H24.0002V7.36855Z" fill="#EBECEF"/>
</g>
<path fill-rule="evenodd" clip-rule="evenodd" d="M9.6869 22.9368C9.6617 22.7694 9.5927 22.6422 9.4787 22.5565C9.3659 22.4707 9.2231 22.4276 9.0497 22.4276C8.9705 22.4276 8.8859 22.441 8.7959 22.4672C8.7059 22.4935 8.6237 22.5425 8.5481 22.6142C8.4719 22.686 8.4089 22.7857 8.3585 22.9135C8.3081 23.0412 8.2829 23.2087 8.2829 23.4146C8.2829 23.5272 8.2967 23.6386 8.3237 23.7512C8.3501 23.8632 8.3939 23.9629 8.4527 24.0498C8.5127 24.1379 8.5889 24.2085 8.6825 24.2622C8.7761 24.317 8.8895 24.3438 9.0233 24.3438C9.2027 24.3438 9.3509 24.2896 9.4685 24.1817C9.5849 24.0726 9.6581 23.9209 9.6869 23.7249H10.3025C10.2449 24.0778 10.1069 24.3485 9.8897 24.5357C9.6719 24.723 9.3827 24.8169 9.0233 24.8169C8.8031 24.8169 8.6099 24.7807 8.4425 24.709C8.2745 24.6372 8.1335 24.5392 8.0183 24.415C7.9031 24.2907 7.8161 24.1426 7.7561 23.9711C7.6973 23.7996 7.6673 23.6141 7.6673 23.4146C7.6673 23.2122 7.6961 23.0214 7.7537 22.8429C7.8113 22.6638 7.8977 22.5092 8.0129 22.378C8.1281 22.2467 8.2715 22.1435 8.4425 22.0682C8.6135 21.993 8.8139 21.9551 9.0443 21.9551C9.2063 21.9551 9.3605 21.9755 9.5057 22.0157C9.6515 22.056 9.7811 22.1167 9.8951 22.1966C10.0079 22.2771 10.1009 22.3792 10.1735 22.5017C10.2449 22.6242 10.2881 22.7694 10.3025 22.9368H9.6869Z" fill="#00BED4"/>
<path fill-rule="evenodd" clip-rule="evenodd" d="M11.4043 23.8717C11.4217 24.0467 11.4907 24.1692 11.6095 24.2392C11.7283 24.3092 11.8699 24.3442 12.0361 24.3442C12.0931 24.3442 12.1591 24.3401 12.2329 24.3308C12.3067 24.322 12.3763 24.3057 12.4411 24.2812C12.5059 24.2567 12.5587 24.2211 12.6001 24.1739C12.6421 24.1266 12.6607 24.0642 12.6571 23.9872C12.6535 23.9102 12.6247 23.8472 12.5701 23.7982C12.5167 23.7492 12.4471 23.7101 12.3631 23.6804C12.2779 23.65 12.1819 23.6249 12.0739 23.6039C11.9659 23.5829 11.8561 23.5602 11.7439 23.5357C11.6293 23.5112 11.5183 23.4814 11.4127 23.4464C11.3059 23.4114 11.2105 23.3642 11.1259 23.3047C11.0419 23.2452 10.9741 23.1694 10.9237 23.0766C10.8727 22.9839 10.8481 22.8689 10.8481 22.7324C10.8481 22.5854 10.8847 22.4618 10.9585 22.362C11.0323 22.2623 11.1259 22.1824 11.2399 22.1205C11.3527 22.0599 11.4787 22.0167 11.6173 21.9922C11.7559 21.9677 11.8885 21.9554 12.0145 21.9554C12.1585 21.9554 12.2959 21.97 12.4273 21.9998C12.5587 22.0301 12.6775 22.0779 12.7837 22.1444C12.8905 22.2109 12.9781 22.2979 13.0483 22.404C13.1185 22.5114 13.1629 22.6397 13.1809 22.7902H12.5383C12.5095 22.6467 12.4417 22.5504 12.3361 22.5014C12.2293 22.4524 12.1081 22.4274 11.9707 22.4274C11.9281 22.4274 11.8765 22.4314 11.8171 22.4384C11.7577 22.4454 11.7019 22.4583 11.6497 22.4775C11.5975 22.4974 11.5537 22.5248 11.5171 22.5621C11.4817 22.5983 11.4637 22.6467 11.4637 22.7062C11.4637 22.7797 11.4901 22.8392 11.5417 22.8847C11.5939 22.9302 11.6629 22.9675 11.7469 22.9973C11.8315 23.0276 11.9281 23.0527 12.0361 23.0737C12.1435 23.0947 12.2557 23.1174 12.3703 23.1419C12.4825 23.1664 12.5917 23.1962 12.7003 23.2312C12.8083 23.2662 12.9043 23.3134 12.9895 23.3729C13.0735 23.4324 13.1419 23.5077 13.1941 23.5987C13.2463 23.6897 13.2727 23.8017 13.2727 23.9341C13.2727 24.0957 13.2349 24.2322 13.1593 24.3442C13.0837 24.4562 12.9853 24.5472 12.8653 24.6172C12.7441 24.6872 12.6103 24.7379 12.4627 24.7694C12.3151 24.8009 12.1687 24.8167 12.0253 24.8167C11.8489 24.8167 11.6857 24.7974 11.5369 24.7589C11.3875 24.7204 11.2573 24.6615 11.1475 24.5834C11.0383 24.504 10.9513 24.406 10.8889 24.2894C10.8253 24.1721 10.7917 24.0327 10.7887 23.8717H11.4043Z" fill="#00BED4"/>
<path fill-rule="evenodd" clip-rule="evenodd" d="M13.6021 22.0288H14.2711L14.9791 24.1131H14.9899L15.6697 22.0288H16.3075L15.3085 24.7431H14.6167L13.6021 22.0288Z" fill="#00BED4"/>
<path fill-rule="evenodd" clip-rule="evenodd" d="M10.2 17.472H16.2V16.3053H10.2V17.472ZM7.80001 17.472H9.60001V16.3053H7.80001V17.472ZM7.80001 12.222H9.60001V11.0553H7.80001V12.222ZM10.2 12.222H16.2V11.0553H10.2V12.222ZM10.2 13.972H16.2V12.8053H10.2V13.972ZM10.2 15.722H16.2V14.5553H10.2V15.722ZM7.80001 13.972H9.60001V12.8053H7.80001V13.972ZM7.80001 15.722H9.60001V14.5553H7.80001V15.722ZM16.5 10.472H7.50001C7.33441 10.472 7.20001 10.6027 7.20001 10.7637V17.7637C7.20001 17.9253 7.33441 18.0553 7.50001 18.0553H16.5C16.6662 18.0553 16.8 17.9253 16.8 17.7637V10.7637C16.8 10.6027 16.6662 10.472 16.5 10.472Z" fill="#00BED4"/>
</svg>
