<svg width="24" height="28" viewBox="0 0 24 28" fill="none" xmlns="http://www.w3.org/2000/svg">
<path fill-rule="evenodd" clip-rule="evenodd" d="M2.25012 27.8542C1.09212 27.8542 0.150116 26.9279 0.150116 25.7892V2.21031C0.150116 1.07222 1.09212 0.145889 2.25012 0.145889H16.5001C16.6609 0.145889 16.8115 0.206556 16.9237 0.317973L23.6737 6.94989C23.7877 7.06189 23.8501 7.21064 23.8501 7.36872V25.7892C23.8501 26.9279 22.9081 27.8542 21.7501 27.8542H2.25012Z" fill="white"/>
<path fill-rule="evenodd" clip-rule="evenodd" d="M16.5002 9.15527e-05H2.25021C1.00941 9.15527e-05 0.000213623 0.991175 0.000213623 2.21034V25.7898C0.000213623 27.0084 1.00941 28.0001 2.25021 28.0001H21.7502C22.9904 28.0001 24.0002 27.0084 24.0002 25.7898V7.36876C24.0002 7.17276 23.921 6.98609 23.7806 6.84726L17.0306 0.215925C16.8896 0.0765082 16.6994 9.15527e-05 16.5002 9.15527e-05ZM16.5001 0.29172C16.6207 0.29172 16.7323 0.33722 16.8169 0.42122L23.5669 7.05255C23.6527 7.13655 23.7001 7.24914 23.7001 7.36872V25.7898C23.7001 26.8474 22.8253 27.7084 21.7501 27.7084H2.25013C1.17493 27.7084 0.300128 26.8474 0.300128 25.7898V2.2103C0.300128 1.15272 1.17493 0.29172 2.25013 0.29172H16.5001Z" fill="#EBECEF"/>
<path fill-rule="evenodd" clip-rule="evenodd" d="M24.0001 7.36861C24.0001 7.17261 23.9209 6.98594 23.7805 6.84711L17.0305 0.215772C16.8895 0.0763556 16.6993 -6.10352e-05 16.5001 -6.10352e-05H16.0123V5.63727C16.0123 6.85585 17.0215 7.84752 18.2623 7.84752H24.0001V7.36861Z" fill="#EBECEF"/>
<path fill-rule="evenodd" clip-rule="evenodd" d="M7.84262 23.4149C7.84262 23.5304 7.85762 23.6447 7.88882 23.7561C7.91882 23.8681 7.96622 23.9679 8.02922 24.0554C8.09222 24.1429 8.17202 24.2129 8.26922 24.2654C8.36642 24.3179 8.48162 24.3441 8.61482 24.3441C8.75162 24.3441 8.86922 24.3161 8.96822 24.2601C9.06782 24.2047 9.14882 24.1312 9.21182 24.0396C9.27482 23.9486 9.32162 23.846 9.35222 23.7328C9.38222 23.619 9.39782 23.5024 9.39782 23.3834C9.39782 23.0824 9.32882 22.8479 9.19022 22.6799C9.05162 22.5119 8.86322 22.4279 8.62562 22.4279C8.48162 22.4279 8.36042 22.4565 8.26142 22.5148C8.16242 22.5725 8.08082 22.6478 8.01782 22.7405C7.95482 22.8333 7.91042 22.9383 7.88342 23.0555C7.85582 23.1728 7.84262 23.2924 7.84262 23.4149ZM9.99182 24.7431H9.40862V24.3756H9.39782C9.31502 24.5331 9.19442 24.6457 9.03602 24.7145C8.87762 24.7828 8.71022 24.8166 8.53382 24.8166C8.31422 24.8166 8.12282 24.7793 7.95902 24.704C7.79462 24.6288 7.65902 24.5261 7.55102 24.3966C7.44302 24.2671 7.36202 24.1137 7.30802 23.9375C7.25402 23.7608 7.22702 23.5712 7.22702 23.3676C7.22702 23.1226 7.26122 22.9109 7.32962 22.7324C7.39802 22.5539 7.48922 22.4069 7.60262 22.2914C7.71602 22.1759 7.84562 22.0907 7.99142 22.037C8.13722 21.9828 8.28542 21.9554 8.43662 21.9554C8.52302 21.9554 8.61122 21.9635 8.70122 21.9793C8.79122 21.9945 8.87762 22.0201 8.96042 22.0551C9.04322 22.0901 9.12002 22.135 9.19022 22.1887C9.26042 22.243 9.31862 22.3077 9.36542 22.3812H9.37622V20.9952H9.99182V24.7431Z" fill="#0E86FE"/>
<path fill-rule="evenodd" clip-rule="evenodd" d="M12.0763 24.344C12.2131 24.344 12.3319 24.316 12.4327 24.26C12.5335 24.2045 12.6163 24.131 12.6811 24.04C12.7459 23.9485 12.7939 23.8458 12.8245 23.7326C12.8545 23.6189 12.8701 23.5028 12.8701 23.3838C12.8701 23.2677 12.8545 23.1522 12.8245 23.0373C12.7939 22.9218 12.7459 22.8191 12.6811 22.7293C12.6163 22.6406 12.5335 22.5677 12.4327 22.5117C12.3319 22.4563 12.2131 22.4277 12.0763 22.4277C11.9395 22.4277 11.8207 22.4563 11.7199 22.5117C11.6191 22.5677 11.5363 22.6406 11.4715 22.7293C11.4067 22.8191 11.3593 22.9218 11.3281 23.0373C11.2981 23.1522 11.2825 23.2677 11.2825 23.3838C11.2825 23.5028 11.2981 23.6189 11.3281 23.7326C11.3593 23.8458 11.4067 23.9485 11.4715 24.04C11.5363 24.131 11.6191 24.2045 11.7199 24.26C11.8207 24.316 11.9395 24.344 12.0763 24.344ZM12.0763 24.817C11.8531 24.817 11.6539 24.7809 11.4799 24.7091C11.3047 24.6374 11.1577 24.5382 11.0371 24.4122C10.9159 24.2862 10.8247 24.1363 10.7617 23.9613C10.6987 23.7857 10.6669 23.5932 10.6669 23.3838C10.6669 23.1767 10.6987 22.9865 10.7617 22.811C10.8247 22.636 10.9159 22.4855 11.0371 22.36C11.1577 22.234 11.3047 22.1349 11.4799 22.0631C11.6539 21.9914 11.8531 21.9552 12.0763 21.9552C12.2995 21.9552 12.4987 21.9914 12.6733 22.0631C12.8479 22.1349 12.9955 22.234 13.1155 22.36C13.2367 22.4855 13.3279 22.636 13.3909 22.811C13.4539 22.9865 13.4857 23.1767 13.4857 23.3838C13.4857 23.5932 13.4539 23.7857 13.3909 23.9613C13.3279 24.1363 13.2367 24.2862 13.1155 24.4122C12.9955 24.5382 12.8479 24.6374 12.6733 24.7091C12.4987 24.7809 12.2995 24.817 12.0763 24.817Z" fill="#0E86FE"/>
<path fill-rule="evenodd" clip-rule="evenodd" d="M16.0182 22.9369C15.993 22.7695 15.9234 22.6423 15.81 22.5566C15.6966 22.4708 15.5538 22.4276 15.381 22.4276C15.3018 22.4276 15.2172 22.4411 15.1272 22.4673C15.0372 22.4936 14.9544 22.5426 14.8788 22.6143C14.8032 22.6861 14.7402 22.7858 14.6898 22.9136C14.6394 23.0413 14.6142 23.2087 14.6142 23.4146C14.6142 23.5272 14.6274 23.6386 14.655 23.7512C14.6814 23.8632 14.7246 23.963 14.784 24.0499C14.8434 24.138 14.9202 24.2086 15.0138 24.2622C15.1074 24.3171 15.2208 24.3439 15.354 24.3439C15.534 24.3439 15.6822 24.2896 15.7992 24.1817C15.9162 24.0726 15.9894 23.921 16.0182 23.725H16.6338C16.5762 24.0779 16.4382 24.3486 16.2204 24.5358C16.0026 24.7231 15.714 24.817 15.354 24.817C15.1344 24.817 14.9412 24.7808 14.7732 24.7091C14.6058 24.6373 14.4648 24.5393 14.3496 24.4151C14.2344 24.2908 14.1468 24.1426 14.0874 23.9711C14.028 23.7996 13.9986 23.6141 13.9986 23.4146C13.9986 23.2122 14.0274 23.0215 14.085 22.843C14.1426 22.6639 14.229 22.5093 14.3442 22.3781C14.4594 22.2468 14.6022 22.1436 14.7732 22.0683C14.9442 21.9931 15.1452 21.9551 15.3756 21.9551C15.5376 21.9551 15.6918 21.9756 15.837 22.0158C15.9828 22.0561 16.1124 22.1167 16.2258 22.1966C16.3392 22.2771 16.4322 22.3792 16.5042 22.5017C16.5762 22.6242 16.6194 22.7695 16.6338 22.9369H16.0182Z" fill="#0E86FE"/>
<path fill-rule="evenodd" clip-rule="evenodd" d="M16.5001 11.0549H7.50013C7.33453 11.0549 7.20013 10.9243 7.20013 10.7633C7.20013 10.6023 7.33453 10.4716 7.50013 10.4716H16.5001C16.6657 10.4716 16.8001 10.6023 16.8001 10.7633C16.8001 10.9243 16.6657 11.0549 16.5001 11.0549Z" fill="#0E86FE"/>
<path fill-rule="evenodd" clip-rule="evenodd" d="M14.7001 12.8049H7.50013C7.33453 12.8049 7.20013 12.6743 7.20013 12.5133C7.20013 12.3523 7.33453 12.2216 7.50013 12.2216H14.7001C14.8657 12.2216 15.0001 12.3523 15.0001 12.5133C15.0001 12.6743 14.8657 12.8049 14.7001 12.8049Z" fill="#0E86FE"/>
<path fill-rule="evenodd" clip-rule="evenodd" d="M16.5001 14.5549H7.50013C7.33453 14.5549 7.20013 14.4243 7.20013 14.2633C7.20013 14.1023 7.33453 13.9716 7.50013 13.9716H16.5001C16.6657 13.9716 16.8001 14.1023 16.8001 14.2633C16.8001 14.4243 16.6657 14.5549 16.5001 14.5549Z" fill="#0E86FE"/>
<path fill-rule="evenodd" clip-rule="evenodd" d="M14.7001 16.3049H7.50013C7.33453 16.3049 7.20013 16.1743 7.20013 16.0133C7.20013 15.8523 7.33453 15.7216 7.50013 15.7216H14.7001C14.8657 15.7216 15.0001 15.8523 15.0001 16.0133C15.0001 16.1743 14.8657 16.3049 14.7001 16.3049Z" fill="#0E86FE"/>
<path fill-rule="evenodd" clip-rule="evenodd" d="M16.5001 18.0549H7.50013C7.33453 18.0549 7.20013 17.9243 7.20013 17.7633C7.20013 17.6023 7.33453 17.4716 7.50013 17.4716H16.5001C16.6657 17.4716 16.8001 17.6023 16.8001 17.7633C16.8001 17.9243 16.6657 18.0549 16.5001 18.0549Z" fill="#0E86FE"/>
</svg>
