<svg width="24" height="28" viewBox="0 0 24 28" fill="none" xmlns="http://www.w3.org/2000/svg">
<path fill-rule="evenodd" clip-rule="evenodd" d="M2.25012 27.8542C1.09212 27.8542 0.150116 26.9279 0.150116 25.7892V2.21031C0.150116 1.07222 1.09212 0.145889 2.25012 0.145889H16.5001C16.6615 0.145889 16.8115 0.206556 16.9231 0.317973L23.6737 6.94989C23.7877 7.06189 23.8501 7.21064 23.8501 7.36872V25.7892C23.8501 26.9279 22.9081 27.8542 21.7501 27.8542H2.25012Z" fill="white"/>
<path fill-rule="evenodd" clip-rule="evenodd" d="M16.5002 9.91821e-05H2.25021C1.00941 9.91821e-05 0.000213623 0.991183 0.000213623 2.21035V25.7898C0.000213623 27.0084 1.00941 28.0001 2.25021 28.0001H21.7502C22.9904 28.0001 24.0002 27.0084 24.0002 25.7898V7.36877C24.0002 7.17277 23.921 6.9861 23.7806 6.84727L17.0306 0.215933C16.8896 0.0765159 16.6994 9.91821e-05 16.5002 9.91821e-05ZM16.5001 0.291725C16.6201 0.291725 16.7329 0.337225 16.8169 0.421225L23.5669 7.05256C23.6527 7.13656 23.7001 7.24914 23.7001 7.36872V25.7898C23.7001 26.8474 22.8253 27.7084 21.7501 27.7084H2.25013C1.17493 27.7084 0.300128 26.8474 0.300128 25.7898V2.21031C0.300128 1.15272 1.17493 0.291725 2.25013 0.291725H16.5001Z" fill="#EBECEF"/>
<path fill-rule="evenodd" clip-rule="evenodd" d="M24.0001 7.36861C24.0001 7.17261 23.9209 6.98594 23.7805 6.84711L17.0305 0.215772C16.8895 0.0763556 16.6993 -6.10352e-05 16.5001 -6.10352e-05H16.0123V5.63727C16.0123 6.85586 17.0209 7.84752 18.2623 7.84752H24.0001V7.36861Z" fill="#EBECEF"/>
<path fill-rule="evenodd" clip-rule="evenodd" d="M6.58255 20.9949H7.19815V22.3862H7.20895C7.28455 22.2637 7.39675 22.161 7.54615 22.0788C7.69555 21.9965 7.86235 21.9551 8.04595 21.9551C8.35195 21.9551 8.59375 22.0321 8.77015 22.1867C8.94595 22.3407 9.03415 22.5711 9.03415 22.8791V24.7434H8.41915V23.0372C8.41135 22.8237 8.36455 22.6685 8.27815 22.5723C8.19235 22.476 8.05675 22.4276 7.87315 22.4276C7.76935 22.4276 7.67515 22.4463 7.59295 22.483C7.50955 22.5198 7.43935 22.5705 7.38175 22.6358C7.32415 22.7 7.27915 22.7764 7.24675 22.8633C7.21435 22.9514 7.19815 23.0442 7.19815 23.1422V24.7434H6.58255V20.9949Z" fill="#1E3868"/>
<path fill-rule="evenodd" clip-rule="evenodd" d="M9.53622 22.0289H10.0006V21.2151H10.6168V22.0289H11.173V22.4751H10.6168V23.9241C10.6168 23.9871 10.6192 24.0414 10.6246 24.0869C10.63 24.1324 10.6426 24.1709 10.6624 24.203C10.6822 24.2339 10.7116 24.2572 10.7512 24.2735C10.7914 24.2893 10.8454 24.2969 10.9138 24.2969C10.9564 24.2969 10.9996 24.2963 11.0434 24.2945C11.086 24.2928 11.1292 24.2864 11.173 24.2765V24.7385C11.104 24.7449 11.038 24.7519 10.9732 24.7589C10.9078 24.7659 10.8418 24.7694 10.7734 24.7694C10.6108 24.7694 10.4806 24.7548 10.3816 24.7245C10.2826 24.6947 10.2052 24.651 10.1488 24.5932C10.0936 24.536 10.0558 24.4631 10.036 24.3756C10.0162 24.2881 10.0042 24.1884 10.0006 24.0764V22.4751H9.53622V22.0289Z" fill="#1E3868"/>
<path fill-rule="evenodd" clip-rule="evenodd" d="M11.7505 22.0289H12.3337V22.4069H12.3499C12.3961 22.3404 12.4471 22.2791 12.5011 22.2231C12.5551 22.1671 12.6151 22.1199 12.6817 22.0814C12.7483 22.0429 12.8251 22.0126 12.9115 21.9898C12.9979 21.967 13.0969 21.9554 13.2085 21.9554C13.3777 21.9554 13.5355 21.9927 13.6807 22.0656C13.8265 22.1391 13.9303 22.2529 13.9909 22.4069C14.0953 22.2669 14.2159 22.1566 14.3533 22.0761C14.4895 21.9956 14.6611 21.9554 14.8657 21.9554C15.1615 21.9554 15.3907 22.0254 15.5545 22.1654C15.7183 22.306 15.8005 22.5399 15.8005 22.8689V24.7431H15.1849V23.1582C15.1849 23.0491 15.1813 22.95 15.1741 22.8613C15.1663 22.7715 15.1459 22.6951 15.1123 22.6297C15.0775 22.5656 15.0265 22.5154 14.9581 22.4804C14.8891 22.4454 14.7961 22.4279 14.6773 22.4279C14.4679 22.4279 14.3167 22.4909 14.2237 22.6169C14.1301 22.7429 14.0833 22.9214 14.0833 23.1524V24.7431H13.4671V23.0001C13.4671 22.8111 13.4323 22.6688 13.3627 22.5726C13.2919 22.4763 13.1629 22.4279 12.9763 22.4279C12.8971 22.4279 12.8203 22.4436 12.7465 22.4751C12.6727 22.5066 12.6079 22.5521 12.5521 22.6116C12.4963 22.6717 12.4513 22.7452 12.4171 22.8321C12.3829 22.9196 12.3655 23.0194 12.3655 23.1314V24.7431H11.7505V22.0289Z" fill="#1E3868"/>
<path fill-rule="evenodd" clip-rule="evenodd" d="M16.5996 24.7433H17.2146V20.9948H16.5996V24.7433Z" fill="#1E3868"/>
<path fill-rule="evenodd" clip-rule="evenodd" d="M14.7001 16.5972C14.6311 16.5972 14.5615 16.5738 14.5051 16.5266C14.3791 16.4216 14.3641 16.2378 14.4721 16.1159L16.1053 14.2638L14.4721 12.4118C14.3641 12.2893 14.3791 12.1055 14.5051 12.0005C14.6299 11.8961 14.8195 11.9101 14.9281 12.0326L16.7281 14.0743C16.8241 14.1828 16.8241 14.3443 16.7281 14.4534L14.9281 16.4951C14.8681 16.5622 14.7847 16.5972 14.7001 16.5972Z" fill="#1E3868"/>
<path fill-rule="evenodd" clip-rule="evenodd" d="M9.30013 16.5972C9.21553 16.5972 9.13213 16.5622 9.07213 16.4951L7.27213 14.4534C7.17613 14.3443 7.17613 14.1828 7.27213 14.0743L9.07213 12.0326C9.18133 11.9101 9.37093 11.8961 9.49513 12.0005C9.62113 12.1055 9.63613 12.2893 9.52813 12.4118L7.89493 14.2638L9.52813 16.1159C9.63613 16.2378 9.62113 16.4216 9.49513 16.5266C9.43873 16.5738 9.36913 16.5972 9.30013 16.5972Z" fill="#1E3868"/>
<path fill-rule="evenodd" clip-rule="evenodd" d="M10.2001 18.0549C10.1551 18.0549 10.1095 18.045 10.0657 18.024C9.91752 17.9523 9.85812 17.7767 9.93192 17.6332L13.5319 10.6332C13.6069 10.4885 13.7857 10.4319 13.9345 10.5025C14.0827 10.5748 14.1421 10.7498 14.0683 10.8945L10.4683 17.8945C10.4155 17.996 10.3099 18.0549 10.2001 18.0549Z" fill="#1E3868"/>
</svg>
