<svg width="24" height="28" viewBox="0 0 24 28" fill="none" xmlns="http://www.w3.org/2000/svg">
<path fill-rule="evenodd" clip-rule="evenodd" d="M2.12658 28C0.953924 28 0 27.0639 0 25.9133V2.08615C0 0.936084 0.953924 0 2.12658 0H16.557C16.7204 0 16.8723 0.0613053 16.9853 0.173895L23.8214 6.87562C23.9368 6.9888 24 7.13912 24 7.29886V25.9133C24 27.0639 23.0461 28 21.8734 28H2.12658Z" fill="white"/>
<path fill-rule="evenodd" clip-rule="evenodd" d="M16.4999 9.91821e-05H2.24988C1.00908 9.91821e-05 -0.00012207 0.991183 -0.00012207 2.21035V25.7898C-0.00012207 27.0084 1.00908 28.0001 2.24988 28.0001H21.7499C22.9901 28.0001 23.9999 27.0084 23.9999 25.7898V7.36877C23.9999 7.17277 23.9207 6.9861 23.7803 6.84727L17.0303 0.215933C16.8893 0.0765159 16.6991 9.91821e-05 16.4999 9.91821e-05ZM16.4999 0.291725C16.6205 0.291725 16.7327 0.337225 16.8167 0.421225L23.5667 7.05256C23.6531 7.13656 23.6999 7.24914 23.6999 7.36872V25.7898C23.6999 26.8474 22.8251 27.7084 21.7499 27.7084H2.24993C1.17473 27.7084 0.299928 26.8474 0.299928 25.7898V2.21031C0.299928 1.15272 1.17473 0.291725 2.24993 0.291725H16.4999Z" fill="#EBECEF"/>
<path fill-rule="evenodd" clip-rule="evenodd" d="M23.9999 7.36861C23.9999 7.17261 23.9207 6.98594 23.7803 6.84711L17.0303 0.215772C16.8893 0.0763556 16.6991 -6.10352e-05 16.4999 -6.10352e-05H16.0121V5.63727C16.0121 6.85586 17.0213 7.84752 18.2621 7.84752H23.9999V7.36861Z" fill="#EBECEF"/>
<path fill-rule="evenodd" clip-rule="evenodd" d="M6.59998 22.2436H7.2054V22.6391H7.22158C7.27011 22.5695 7.32238 22.5054 7.37838 22.4468C7.43438 22.3882 7.4966 22.3388 7.56629 22.2985C7.63535 22.2582 7.71438 22.2265 7.8046 22.2027C7.89358 22.1789 7.99624 22.1667 8.1126 22.1667C8.28744 22.1667 8.45109 22.2057 8.60229 22.282C8.75349 22.3589 8.86051 22.4779 8.92398 22.6391C9.03224 22.4926 9.15731 22.3772 9.29918 22.293C9.44104 22.2088 9.619 22.1667 9.83118 22.1667C10.1379 22.1667 10.375 22.2399 10.5455 22.3864C10.7147 22.5335 10.8 22.7782 10.8 23.1224V25.0833H10.1622V23.4251C10.1622 23.311 10.1578 23.2072 10.1504 23.1145C10.1429 23.0205 10.1211 22.9405 10.0863 22.8722C10.0508 22.8051 9.99731 22.7526 9.927 22.7159C9.85544 22.6793 9.75838 22.661 9.63518 22.661C9.41864 22.661 9.26184 22.7269 9.16478 22.8588C9.06771 22.9906 9.0198 23.1773 9.0198 23.419V25.0833H8.38078V23.2597C8.38078 23.062 8.34469 22.9131 8.27189 22.8124C8.19846 22.7117 8.06531 22.661 7.87118 22.661C7.78904 22.661 7.7094 22.6775 7.63349 22.7105C7.55695 22.7434 7.48975 22.791 7.43189 22.8533C7.3734 22.9161 7.32735 22.993 7.29126 23.084C7.25642 23.1755 7.23838 23.2799 7.23838 23.3971V25.0833H6.59998V22.2436Z" fill="#FFB400"/>
<path fill-rule="evenodd" clip-rule="evenodd" d="M13.732 23.49C13.732 23.3769 13.7151 23.267 13.6793 23.1604C13.6441 23.0537 13.5914 22.9595 13.5217 22.8765C13.4507 22.7946 13.3635 22.7284 13.2574 22.6778C13.1519 22.6277 13.0308 22.6029 12.8941 22.6029C12.6129 22.6029 12.4013 22.6837 12.2587 22.8453C12.1161 23.0074 12.0445 23.2218 12.0445 23.49C12.0445 23.6161 12.0634 23.7329 12.1005 23.8412C12.1376 23.95 12.1936 24.0426 12.2672 24.1202C12.3414 24.1978 12.4306 24.2592 12.5341 24.3044C12.6369 24.3497 12.7574 24.3723 12.8941 24.3723C13.0464 24.3723 13.176 24.3464 13.2815 24.2947C13.3869 24.243 13.4735 24.1757 13.5419 24.0933C13.6102 24.0114 13.6591 23.9177 13.6884 23.8127C13.7177 23.7071 13.732 23.5999 13.732 23.49ZM11.4 22.2345H12.0334V22.5738H12.0445C12.1389 22.4284 12.2691 22.3244 12.4377 22.2614C12.6057 22.1984 12.7867 22.1666 12.9826 22.1666C13.2203 22.1666 13.4286 22.2011 13.6063 22.2706C13.7841 22.34 13.9319 22.4359 14.0484 22.5571C14.1656 22.6778 14.2541 22.8194 14.3127 22.981C14.3707 23.1426 14.4 23.3155 14.4 23.4997C14.4 23.6678 14.3733 23.831 14.3212 23.9893C14.2685 24.1477 14.1884 24.2872 14.081 24.4084C13.9735 24.5301 13.8375 24.6265 13.6734 24.6992C13.5093 24.7725 13.316 24.8086 13.094 24.8086C12.9957 24.8086 12.898 24.8016 12.8004 24.7865C12.7027 24.7725 12.6089 24.7488 12.5198 24.7165C12.4293 24.6842 12.3466 24.6432 12.2704 24.5931C12.1942 24.5425 12.1304 24.4838 12.0797 24.4159H12.0679V25.6666H11.4V22.2345Z" fill="#FFB400"/>
<path fill-rule="evenodd" clip-rule="evenodd" d="M15.957 22.7047C16.0477 22.7084 16.1384 22.701 16.2291 22.6823C16.3198 22.6642 16.4007 22.6312 16.472 22.5844C16.5433 22.537 16.6005 22.4728 16.6442 22.3906C16.6879 22.3083 16.7101 22.2073 16.7101 22.0876C16.7101 21.9193 16.6609 21.7847 16.5616 21.6837C16.4628 21.5827 16.336 21.5322 16.1805 21.5322C16.0833 21.5322 15.9991 21.5547 15.9279 21.6002C15.8561 21.6444 15.7972 21.7049 15.7503 21.7822C15.7033 21.8589 15.6688 21.9443 15.6461 22.0403C15.6234 22.1356 15.6137 22.2335 15.6169 22.3345H15.0631C15.069 22.1443 15.1003 21.9667 15.1554 21.8046C15.2105 21.642 15.286 21.5005 15.3816 21.3808C15.4766 21.2617 15.5927 21.1676 15.7287 21.1003C15.8647 21.033 16.0186 20.9999 16.1902 20.9999C16.323 20.9999 16.4531 21.0218 16.581 21.0666C16.7095 21.1115 16.824 21.177 16.9265 21.263C17.028 21.349 17.1101 21.4587 17.1716 21.5915C17.2331 21.7242 17.2639 21.8763 17.2639 22.0484C17.2639 22.2472 17.225 22.4198 17.1473 22.567C17.0696 22.7153 16.9481 22.8225 16.7829 22.8898V22.901C16.9773 22.9459 17.1284 23.0569 17.2369 23.2351C17.3454 23.4128 17.3999 23.6285 17.3999 23.8834C17.3999 24.0698 17.3676 24.2374 17.3028 24.3845C17.238 24.5329 17.1505 24.6582 17.0404 24.761C16.9303 24.8639 16.8024 24.943 16.6566 24.9997C16.5109 25.0552 16.357 25.0833 16.1951 25.0833C15.9975 25.0833 15.8253 25.0509 15.6774 24.9848C15.53 24.92 15.407 24.8271 15.3087 24.7074C15.2094 24.5877 15.1344 24.4438 15.0825 24.2761C15.0307 24.1072 15.0026 23.9202 14.9999 23.7145H15.5538C15.5473 23.9538 15.598 24.1533 15.7066 24.3122C15.8151 24.4712 15.9781 24.5503 16.1951 24.5503C16.3797 24.5503 16.5341 24.4893 16.6593 24.3683C16.7835 24.2468 16.8461 24.0735 16.8461 23.8491C16.8461 23.6958 16.8202 23.5749 16.7684 23.4845C16.7165 23.3947 16.6485 23.3268 16.5643 23.28C16.4801 23.2333 16.3851 23.204 16.2804 23.1928C16.1746 23.1822 16.0671 23.1784 15.957 23.1822V22.7047Z" fill="#FFB400"/>
<path fill-rule="evenodd" clip-rule="evenodd" d="M14.397 16.2524C13.674 16.2524 13.194 15.9584 13.194 15.7642C13.194 15.5699 13.674 15.2759 14.397 15.2759C15.12 15.2759 15.6 15.5699 15.6 15.7642C15.6 15.9584 15.12 16.2524 14.397 16.2524ZM9.60299 17.5C8.87999 17.5 8.39999 17.2061 8.39999 17.0118C8.39999 16.8176 8.87999 16.5236 9.60299 16.5236C10.326 16.5236 10.806 16.8176 10.806 17.0118C10.806 17.2061 10.326 17.5 9.60299 17.5ZM16.0908 10.5676C16.0224 10.5116 15.933 10.4888 15.843 10.5052L11.049 11.6245C10.908 11.6513 10.806 11.7715 10.806 11.9115V16.2063C10.4904 16.0418 10.0764 15.9403 9.60299 15.9403C8.57519 15.9403 7.79999 16.4011 7.79999 17.0118C7.79999 17.6231 8.57519 18.0833 9.60299 18.0833C10.6308 18.0833 11.406 17.6231 11.406 17.0118V12.1524L15.6 11.145V14.9586C15.2844 14.7936 14.8704 14.6926 14.397 14.6926C13.3692 14.6926 12.594 15.1529 12.594 15.7642C12.594 16.3749 13.3692 16.8357 14.397 16.8357C15.4248 16.8357 16.2 16.3749 16.2 15.7642V10.7922C16.2 10.7052 16.1598 10.623 16.0908 10.5676Z" fill="#FFB400"/>
</svg>
