<svg width="24" height="28" viewBox="0 0 24 28" fill="none" xmlns="http://www.w3.org/2000/svg">
<path fill-rule="evenodd" clip-rule="evenodd" d="M2.25002 27.8542C1.09202 27.8542 0.150024 26.9279 0.150024 25.7892V2.21029C0.150024 1.07221 1.09202 0.145874 2.25002 0.145874H16.5C16.6614 0.145874 16.8114 0.206541 16.923 0.317957L23.6736 6.94987C23.7876 7.06187 23.85 7.21062 23.85 7.36871V25.7892C23.85 26.9279 22.908 27.8542 21.75 27.8542H2.25002Z" fill="white"/>
<mask id="mask0" mask-type="alpha" maskUnits="userSpaceOnUse" x="0" y="0" width="24" height="28">
<path fill-rule="evenodd" clip-rule="evenodd" d="M0 0.00012207H24V28.0001H0V0.00012207Z" fill="white"/>
</mask>
<g mask="url(#mask0)">
<path fill-rule="evenodd" clip-rule="evenodd" d="M16.5 0.00012207H2.25C1.0092 0.00012207 0 0.991205 0 2.21037V25.7899C0 27.0085 1.0092 28.0001 2.25 28.0001H21.75C22.9902 28.0001 24 27.0085 24 25.7899V7.36879C24 7.17279 23.9208 6.98612 23.7804 6.84729L17.0304 0.215955C16.8894 0.0765387 16.6992 0.00012207 16.5 0.00012207ZM16.5 0.291738C16.6206 0.291738 16.7328 0.337238 16.8168 0.421238L23.5668 7.05257C23.6532 7.13657 23.7 7.24915 23.7 7.36874V25.7898C23.7 26.8474 22.8252 27.7084 21.75 27.7084H2.25C1.1748 27.7084 0.300001 26.8474 0.300001 25.7898V2.21032C0.300001 1.15274 1.1748 0.291738 2.25 0.291738H16.5Z" fill="#EBECEF"/>
</g>
<path fill-rule="evenodd" clip-rule="evenodd" d="M23.9999 7.36861C23.9999 7.17261 23.9207 6.98594 23.7803 6.84711L17.0303 0.215772C16.8893 0.0763556 16.6991 -6.10352e-05 16.4999 -6.10352e-05H16.0121V5.63727C16.0121 6.85586 17.0213 7.84752 18.2621 7.84752H23.9999V7.36861Z" fill="#EBECEF"/>
<path d="M4.79999 21.6599H5.40749V22.0536H5.42436C5.47311 21.9844 5.52561 21.9206 5.58186 21.8622C5.63811 21.8039 5.69999 21.7547 5.76749 21.7146C5.83874 21.6745 5.91936 21.6435 6.00936 21.6216C6.09936 21.5961 6.20249 21.5833 6.31874 21.5833C6.49499 21.5833 6.65811 21.6216 6.80811 21.6982C6.96186 21.7747 7.07061 21.8932 7.13436 22.0536C7.24311 21.9078 7.36874 21.7929 7.51124 21.7091C7.65374 21.6252 7.83186 21.5833 8.04561 21.5833C8.35311 21.5833 8.59124 21.6562 8.75999 21.8021C8.93249 21.9479 9.01874 22.1922 9.01874 22.5349V24.4872H8.37749V22.8357C8.37749 22.7226 8.37374 22.6206 8.36624 22.5294C8.35874 22.4346 8.33624 22.3544 8.29874 22.2888C8.26499 22.2195 8.21249 22.1666 8.14124 22.1302C8.06999 22.0937 7.97249 22.0755 7.84874 22.0755C7.63124 22.0755 7.47374 22.1411 7.37624 22.2724C7.27874 22.4036 7.22999 22.5896 7.22999 22.8302V24.4872H6.58874V22.6716C6.58874 22.4747 6.55124 22.3271 6.47624 22.2286C6.40499 22.1265 6.27186 22.0755 6.07686 22.0755C5.99436 22.0755 5.91374 22.0919 5.83499 22.1247C5.75999 22.1575 5.69249 22.2049 5.63249 22.2669C5.57624 22.3289 5.52936 22.4054 5.49186 22.4966C5.45811 22.5877 5.44124 22.6916 5.44124 22.8083V24.4872H4.79999V21.6599Z" fill="#5856D6"/>
<path d="M9.71127 21.6599H10.3188V22.0427H10.33C10.42 21.8786 10.5456 21.762 10.7069 21.6927C10.8681 21.6198 11.0425 21.5833 11.23 21.5833C11.4588 21.5833 11.6575 21.6234 11.8263 21.7036C11.9988 21.7802 12.1413 21.8877 12.2538 22.0263C12.3663 22.1612 12.4506 22.3198 12.5069 22.5021C12.5631 22.6844 12.5913 22.8794 12.5913 23.0872C12.5913 23.2768 12.565 23.4609 12.5125 23.6396C12.4638 23.8182 12.3869 23.9768 12.2819 24.1153C12.1806 24.2502 12.0513 24.3596 11.8938 24.4435C11.7363 24.5237 11.5506 24.5638 11.3369 24.5638C11.2431 24.5638 11.1494 24.5547 11.0556 24.5364C10.9619 24.5219 10.8719 24.4963 10.7856 24.4599C10.6994 24.4234 10.6188 24.3778 10.5438 24.3232C10.4725 24.2648 10.4125 24.1974 10.3638 24.1208H10.3525V25.5318H9.71127V21.6599ZM11.95 23.0763C11.95 22.9487 11.9331 22.8247 11.8994 22.7044C11.8656 22.5841 11.815 22.4784 11.7475 22.3872C11.68 22.2924 11.5956 22.2177 11.4944 22.163C11.3931 22.1047 11.2769 22.0755 11.1456 22.0755C10.8756 22.0755 10.6713 22.1666 10.5325 22.3489C10.3975 22.5312 10.33 22.7737 10.33 23.0763C10.33 23.2185 10.3469 23.3515 10.3806 23.4755C10.4181 23.5958 10.4725 23.6997 10.5438 23.7872C10.615 23.8747 10.6994 23.944 10.7969 23.995C10.8981 24.0461 11.0144 24.0716 11.1456 24.0716C11.2919 24.0716 11.4156 24.0424 11.5169 23.9841C11.6181 23.9258 11.7006 23.851 11.7644 23.7599C11.8319 23.6651 11.8788 23.5594 11.905 23.4427C11.935 23.3224 11.95 23.2002 11.95 23.0763Z" fill="#5856D6"/>
<path d="M15.13 22.8247C15.1225 22.7263 15.1 22.6315 15.0625 22.5403C15.0287 22.4492 14.98 22.3708 14.9162 22.3052C14.8562 22.2359 14.7812 22.1812 14.6912 22.1411C14.605 22.0974 14.5075 22.0755 14.3987 22.0755C14.2862 22.0755 14.1831 22.0956 14.0894 22.1357C13.9994 22.1721 13.9206 22.225 13.8531 22.2943C13.7894 22.3599 13.7369 22.4383 13.6956 22.5294C13.6581 22.6206 13.6375 22.719 13.6337 22.8247H15.13ZM13.6337 23.2349C13.6337 23.3443 13.6487 23.45 13.6787 23.5521C13.7125 23.6541 13.7612 23.7435 13.825 23.82C13.8887 23.8966 13.9694 23.9586 14.0669 24.006C14.1644 24.0497 14.2806 24.0716 14.4156 24.0716C14.6031 24.0716 14.7531 24.0333 14.8656 23.9568C14.9819 23.8765 15.0681 23.7581 15.1244 23.6013H15.7319C15.6981 23.7544 15.64 23.8911 15.5575 24.0114C15.475 24.1318 15.3756 24.2338 15.2594 24.3177C15.1431 24.3979 15.0119 24.4581 14.8656 24.4982C14.7231 24.5419 14.5731 24.5638 14.4156 24.5638C14.1869 24.5638 13.9844 24.5273 13.8081 24.4544C13.6319 24.3815 13.4819 24.2794 13.3581 24.1482C13.2381 24.0169 13.1462 23.8601 13.0825 23.6778C13.0225 23.4956 12.9925 23.295 12.9925 23.0763C12.9925 22.8758 13.0244 22.6862 13.0881 22.5075C13.1556 22.3252 13.2494 22.1666 13.3694 22.0318C13.4931 21.8932 13.6412 21.7838 13.8137 21.7036C13.9862 21.6234 14.1812 21.5833 14.3987 21.5833C14.6275 21.5833 14.8319 21.6307 15.0119 21.7255C15.1956 21.8166 15.3475 21.9388 15.4675 22.0919C15.5875 22.245 15.6737 22.4219 15.7262 22.6224C15.7825 22.8193 15.7975 23.0234 15.7712 23.2349H13.6337Z" fill="#5856D6"/>
<path d="M18.9475 24.3396C18.9475 24.7661 18.8237 25.0833 18.5762 25.2911C18.3325 25.5026 17.98 25.6083 17.5187 25.6083C17.3725 25.6083 17.2243 25.5937 17.0743 25.5646C16.9281 25.5354 16.7931 25.4862 16.6694 25.4169C16.5494 25.3476 16.4481 25.2565 16.3656 25.1435C16.2831 25.0304 16.2344 24.8919 16.2194 24.7278H16.8606C16.8793 24.8153 16.9112 24.8864 16.9562 24.9411C17.0012 24.9958 17.0537 25.0377 17.1137 25.0669C17.1775 25.0997 17.2469 25.1198 17.3218 25.1271C17.3968 25.138 17.4756 25.1435 17.5581 25.1435C17.8168 25.1435 18.0062 25.0815 18.1262 24.9575C18.2462 24.8336 18.3062 24.6549 18.3062 24.4216V23.9896H18.295C18.205 24.1463 18.0812 24.2685 17.9237 24.356C17.77 24.4435 17.6031 24.4872 17.4231 24.4872C17.1906 24.4872 16.9918 24.4489 16.8268 24.3724C16.6656 24.2922 16.5306 24.1846 16.4219 24.0497C16.3169 23.9112 16.24 23.7526 16.1912 23.5739C16.1425 23.3953 16.1181 23.2039 16.1181 22.9997C16.1181 22.8101 16.1481 22.6297 16.2081 22.4583C16.2681 22.287 16.3543 22.1375 16.4668 22.0099C16.5793 21.8786 16.7162 21.7747 16.8775 21.6982C17.0425 21.6216 17.2281 21.5833 17.4344 21.5833C17.6181 21.5833 17.7868 21.6216 17.9406 21.6982C18.0943 21.7711 18.2125 21.8877 18.295 22.0482H18.3062V21.6599H18.9475V24.3396ZM17.5244 23.995C17.6669 23.995 17.7868 23.9677 17.8843 23.913C17.9856 23.8547 18.0662 23.7799 18.1262 23.6888C18.19 23.594 18.235 23.4883 18.2612 23.3716C18.2912 23.2513 18.3062 23.131 18.3062 23.0107C18.3062 22.8903 18.2912 22.7737 18.2612 22.6607C18.2312 22.5476 18.1843 22.4474 18.1206 22.3599C18.0606 22.2724 17.98 22.2031 17.8787 22.1521C17.7812 22.101 17.6631 22.0755 17.5244 22.0755C17.3818 22.0755 17.2618 22.1047 17.1643 22.163C17.0668 22.2213 16.9881 22.2979 16.9281 22.3927C16.8681 22.4838 16.825 22.5896 16.7987 22.7099C16.7725 22.8265 16.7593 22.9432 16.7593 23.0599C16.7593 23.1765 16.7743 23.2914 16.8043 23.4044C16.8343 23.5138 16.8793 23.6122 16.9394 23.6997C17.0031 23.7872 17.0819 23.8583 17.1756 23.913C17.2731 23.9677 17.3893 23.995 17.5244 23.995Z" fill="#5856D6"/>
<path d="M16.7812 11.6666C16.6687 11.6666 16.5562 11.7031 16.4437 11.776L14.4 13.0521V11.9583C14.4 11.4844 13.95 11.0833 13.425 11.0833H7.55623C7.03123 11.0833 6.59998 11.4844 6.59998 11.9583V17.2265C6.59998 17.7005 7.03123 18.0833 7.55623 18.0833H13.425C13.95 18.0833 14.4 17.7005 14.4 17.2265V16.1328L16.4437 17.4088C16.5562 17.4817 16.6687 17.5 16.7812 17.5C17.1 17.5 17.3812 17.263 17.3812 16.9349V12.25C17.4 11.9036 17.1 11.6666 16.7812 11.6666ZM13.8 17.2265C13.8 17.3724 13.6125 17.5 13.425 17.5H7.55623C7.36873 17.5 7.19998 17.3724 7.19998 17.2265V11.9583C7.19998 11.8125 7.36873 11.6666 7.55623 11.6666H13.425C13.6125 11.6666 13.8 11.8125 13.8 11.9583V17.2265ZM16.8 16.9349L16.7625 16.9166L14.4 15.4401V13.7448L16.8 12.25V16.9349Z" fill="#5856D6"/>
</svg>
