<svg width="24" height="28" viewBox="0 0 24 28" fill="none" xmlns="http://www.w3.org/2000/svg">
<path fill-rule="evenodd" clip-rule="evenodd" d="M14.0625 13.8542H17.2125V10.026H14.0625V13.8542ZM10.125 13.8542H13.275V10.026H10.125V13.8542ZM6.18752 13.8542H9.33752V10.026H6.18752V13.8542ZM6.18752 9.26041H9.33752V5.43228H6.18752V9.26041ZM14.0625 9.26041H17.2125V5.43228H14.0625V9.26041ZM10.125 9.26041H13.275V5.43228H10.125V9.26041ZM17.6063 4.66666H5.79377C5.57564 4.66666 5.40002 4.83816 5.40002 5.04947V14.237C5.40002 14.449 5.57564 14.6198 5.79377 14.6198H17.6063C17.8236 14.6198 18 14.449 18 14.237V5.04947C18 4.83816 17.8236 4.66666 17.6063 4.66666Z" fill="#27B740"/>
<path fill-rule="evenodd" clip-rule="evenodd" d="M2.2499 27.8542C1.0919 27.8542 0.149902 26.9279 0.149902 25.7892V2.21032C0.149902 1.07224 1.0919 0.145905 2.2499 0.145905H16.4999C16.6613 0.145905 16.8113 0.206571 16.9229 0.317988L23.6735 6.9499C23.7875 7.0619 23.8499 7.21065 23.8499 7.36874V25.7892C23.8499 26.9279 22.9079 27.8542 21.7499 27.8542H2.2499Z" fill="white"/>
<path fill-rule="evenodd" clip-rule="evenodd" d="M16.4998 0.00012207H2.24982C1.00902 0.00012207 -0.000183105 0.991205 -0.000183105 2.21037V25.7899C-0.000183105 27.0085 1.00902 28.0001 2.24982 28.0001H21.7498C22.9906 28.0001 23.9998 27.0085 23.9998 25.7899V7.36879C23.9998 7.17279 23.9206 6.98612 23.7802 6.84729L17.0302 0.215955C16.8892 0.0765387 16.699 0.00012207 16.4998 0.00012207ZM16.4999 0.291738C16.6205 0.291738 16.7327 0.337238 16.8167 0.421238L23.5667 7.05257C23.6525 7.13657 23.6999 7.24915 23.6999 7.36874V25.7898C23.6999 26.8474 22.8251 27.7084 21.7499 27.7084H2.24989C1.17469 27.7084 0.29989 26.8474 0.29989 25.7898V2.21032C0.29989 1.15274 1.17469 0.291738 2.24989 0.291738H16.4999Z" fill="#EBECEF"/>
<path fill-rule="evenodd" clip-rule="evenodd" d="M23.9999 7.36861C23.9999 7.17261 23.9207 6.98594 23.7803 6.84711L17.0303 0.215772C16.8893 0.0763556 16.6991 -6.10352e-05 16.4999 -6.10352e-05H16.0121V5.63727C16.0121 6.85585 17.0213 7.84752 18.2621 7.84752H23.9999V7.36861Z" fill="#EBECEF"/>
<path fill-rule="evenodd" clip-rule="evenodd" d="M16.5001 11.0549H7.50013C7.33453 11.0549 7.20013 10.9243 7.20013 10.7633C7.20013 10.6023 7.33453 10.4716 7.50013 10.4716H16.5001C16.6657 10.4716 16.8001 10.6023 16.8001 10.7633C16.8001 10.9243 16.6657 11.0549 16.5001 11.0549Z" fill="#FF742F"/>
<path fill-rule="evenodd" clip-rule="evenodd" d="M14.7001 12.8049H7.50013C7.33453 12.8049 7.20013 12.6743 7.20013 12.5133C7.20013 12.3523 7.33453 12.2216 7.50013 12.2216H14.7001C14.8657 12.2216 15.0001 12.3523 15.0001 12.5133C15.0001 12.6743 14.8657 12.8049 14.7001 12.8049Z" fill="#FF742F"/>
<path fill-rule="evenodd" clip-rule="evenodd" d="M16.5001 14.5549H7.50013C7.33453 14.5549 7.20013 14.4243 7.20013 14.2633C7.20013 14.1023 7.33453 13.9716 7.50013 13.9716H16.5001C16.6657 13.9716 16.8001 14.1023 16.8001 14.2633C16.8001 14.4243 16.6657 14.5549 16.5001 14.5549Z" fill="#FF742F"/>
<path fill-rule="evenodd" clip-rule="evenodd" d="M14.7001 16.3049H7.50013C7.33453 16.3049 7.20013 16.1743 7.20013 16.0133C7.20013 15.8523 7.33453 15.7216 7.50013 15.7216H14.7001C14.8657 15.7216 15.0001 15.8523 15.0001 16.0133C15.0001 16.1743 14.8657 16.3049 14.7001 16.3049Z" fill="#FF742F"/>
<path fill-rule="evenodd" clip-rule="evenodd" d="M16.5001 18.0549H7.50013C7.33453 18.0549 7.20013 17.9243 7.20013 17.7633C7.20013 17.6023 7.33453 17.4716 7.50013 17.4716H16.5001C16.6657 17.4716 16.8001 17.6023 16.8001 17.7633C16.8001 17.9243 16.6657 18.0549 16.5001 18.0549Z" fill="#FF742F"/>
<path d="M7.20001 21.9525H7.81486V22.3399H7.82624C7.91733 22.1739 8.04448 22.0558 8.20768 21.9857C8.37088 21.9119 8.54736 21.875 8.73713 21.875C8.96864 21.875 9.1698 21.9156 9.34059 21.9968C9.51518 22.0743 9.6594 22.1831 9.77326 22.3233C9.88712 22.4599 9.97251 22.6204 10.0294 22.8049C10.0864 22.9894 10.1148 23.1868 10.1148 23.3971C10.1148 23.589 10.0883 23.7753 10.0351 23.9561C9.9858 24.1369 9.90799 24.2974 9.80172 24.4377C9.69925 24.5742 9.56831 24.6849 9.40891 24.7697C9.2495 24.8509 9.06163 24.8915 8.8453 24.8915C8.75041 24.8915 8.65553 24.8823 8.56064 24.8638C8.46576 24.8491 8.37467 24.8232 8.28738 24.7863C8.20009 24.7494 8.11849 24.7033 8.04258 24.648C7.97047 24.5889 7.90974 24.5207 7.8604 24.4432H7.84902V25.8712H7.20001V21.9525ZM9.46584 23.386C9.46584 23.2569 9.44876 23.1314 9.4146 23.0097C9.38044 22.8879 9.3292 22.7809 9.26089 22.6886C9.19257 22.5927 9.10718 22.517 9.0047 22.4617C8.90223 22.4027 8.78457 22.3731 8.65173 22.3731C8.37847 22.3731 8.17162 22.4654 8.03119 22.6499C7.89456 22.8344 7.82624 23.0798 7.82624 23.386C7.82624 23.5299 7.84332 23.6646 7.87748 23.7901C7.91544 23.9118 7.97047 24.017 8.04258 24.1056C8.11469 24.1941 8.20009 24.2642 8.29877 24.3159C8.40124 24.3675 8.5189 24.3934 8.65173 24.3934C8.79975 24.3934 8.925 24.3639 9.02747 24.3048C9.12995 24.2458 9.21344 24.1701 9.27797 24.0779C9.34628 23.9819 9.39372 23.8749 9.42029 23.7569C9.45065 23.6351 9.46584 23.5115 9.46584 23.386Z" fill="#FF742F"/>
<path d="M10.6803 21.9525H11.2952V22.3399H11.3066C11.3976 22.1739 11.5248 22.0558 11.688 21.9857C11.8512 21.9119 12.0277 21.875 12.2174 21.875C12.4489 21.875 12.6501 21.9156 12.8209 21.9968C12.9955 22.0743 13.1397 22.1831 13.2536 22.3233C13.3674 22.4599 13.4528 22.6204 13.5097 22.8049C13.5667 22.9894 13.5951 23.1868 13.5951 23.3971C13.5951 23.589 13.5686 23.7753 13.5154 23.9561C13.4661 24.1369 13.3883 24.2974 13.282 24.4377C13.1796 24.5742 13.0486 24.6849 12.8892 24.7697C12.7298 24.8509 12.5419 24.8915 12.3256 24.8915C12.2307 24.8915 12.1358 24.8823 12.0409 24.8638C11.9461 24.8491 11.855 24.8232 11.7677 24.7863C11.6804 24.7494 11.5988 24.7033 11.5229 24.648C11.4508 24.5889 11.39 24.5207 11.3407 24.4432H11.3293V25.8712H10.6803V21.9525ZM12.9461 23.386C12.9461 23.2569 12.9291 23.1314 12.8949 23.0097C12.8607 22.8879 12.8095 22.7809 12.7412 22.6886C12.6729 22.5927 12.5875 22.517 12.485 22.4617C12.3825 22.4027 12.2649 22.3731 12.132 22.3731C11.8588 22.3731 11.6519 22.4654 11.5115 22.6499C11.3749 22.8344 11.3066 23.0798 11.3066 23.386C11.3066 23.5299 11.3236 23.6646 11.3578 23.7901C11.3957 23.9118 11.4508 24.017 11.5229 24.1056C11.595 24.1941 11.6804 24.2642 11.7791 24.3159C11.8815 24.3675 11.9992 24.3934 12.132 24.3934C12.2801 24.3934 12.4053 24.3639 12.5078 24.3048C12.6103 24.2458 12.6937 24.1701 12.7583 24.0779C12.8266 23.9819 12.874 23.8749 12.9006 23.7569C12.931 23.6351 12.9461 23.5115 12.9461 23.386Z" fill="#FF742F"/>
<path d="M14.9349 23.3085L13.9158 21.9525H14.7015L15.3163 22.8325L15.9596 21.9525H16.7111L15.7091 23.2753L16.8363 24.814H16.0564L15.3106 23.7569L14.5876 24.814H13.8247L14.9349 23.3085Z" fill="#FF742F"/>
</svg>
