<svg width="24" height="28" viewBox="0 0 24 28" fill="none" xmlns="http://www.w3.org/2000/svg">
<path fill-rule="evenodd" clip-rule="evenodd" d="M2.25018 27.8542C1.09218 27.8542 0.150177 26.9279 0.150177 25.7892V2.21032C0.150177 1.07224 1.09218 0.145905 2.25018 0.145905H16.5002C16.661 0.145905 16.8116 0.206571 16.9232 0.318571L23.6738 6.9499C23.7878 7.0619 23.8502 7.21066 23.8502 7.36874V25.7892C23.8502 26.9279 22.9082 27.8542 21.7502 27.8542H2.25018Z" fill="white"/>
<mask id="mask0" mask-type="alpha" maskUnits="userSpaceOnUse" x="0" y="0" width="25" height="28">
<path fill-rule="evenodd" clip-rule="evenodd" d="M0.000305176 9.15527e-05H24.0001V28H0.000305176V9.15527e-05Z" fill="white"/>
</mask>
<g mask="url(#mask0)">
<path fill-rule="evenodd" clip-rule="evenodd" d="M16.5003 9.15527e-05H2.2503C1.00951 9.15527e-05 0.000305176 0.991175 0.000305176 2.21034V25.7898C0.000305176 27.0084 1.00951 28.0001 2.2503 28.0001H21.7503C22.9905 28.0001 24.0003 27.0084 24.0003 25.7898V7.36876C24.0003 7.17276 23.9211 6.98609 23.7807 6.84726L17.0307 0.215925C16.8897 0.0765082 16.6995 9.15527e-05 16.5003 9.15527e-05ZM16.5002 0.29172C16.6202 0.29172 16.733 0.33722 16.817 0.42122L23.567 7.05255C23.6528 7.13655 23.7002 7.24914 23.7002 7.36872V25.7898C23.7002 26.8474 22.8254 27.7084 21.7502 27.7084H2.25018C1.17498 27.7084 0.300183 26.8474 0.300183 25.7898V2.2103C0.300183 1.15272 1.17498 0.29172 2.25018 0.29172H16.5002Z" fill="#EBECEF"/>
</g>
<mask id="mask1" mask-type="alpha" maskUnits="userSpaceOnUse" x="16" y="0" width="8" height="8">
<path fill-rule="evenodd" clip-rule="evenodd" d="M16.0124 0H24V7.84758H16.0124V0Z" fill="white"/>
</mask>
<g mask="url(#mask1)">
<path fill-rule="evenodd" clip-rule="evenodd" d="M24.0002 7.36867C24.0002 7.17267 23.9204 6.986 23.7806 6.84717L17.0306 0.215833C16.889 0.0764167 16.6994 0 16.5002 0H16.0124V5.63733C16.0124 6.85592 17.021 7.84758 18.2624 7.84758H24.0002V7.36867Z" fill="#EBECEF"/>
</g>
<path fill-rule="evenodd" clip-rule="evenodd" d="M10.2396 14.2917V14.875C10.2396 15.036 10.0968 15.1667 9.91981 15.1667C9.74281 15.1667 9.60001 15.036 9.60001 14.875V14.2917C9.60001 14.1307 9.74281 14 9.91981 14C10.0968 14 10.2396 14.1307 10.2396 14.2917Z" fill="#F14B5F"/>
<path fill-rule="evenodd" clip-rule="evenodd" d="M10.8794 13.7083V14.2916C10.8794 14.4526 10.7366 14.5833 10.5596 14.5833C10.3826 14.5833 10.2398 14.4526 10.2398 14.2916V13.7083C10.2398 13.5473 10.3826 13.4166 10.5596 13.4166C10.7366 13.4166 10.8794 13.5473 10.8794 13.7083Z" fill="#F14B5F"/>
<path fill-rule="evenodd" clip-rule="evenodd" d="M11.5193 14.2917V14.875C11.5193 15.036 11.3765 15.1667 11.1995 15.1667C11.0225 15.1667 10.8797 15.036 10.8797 14.875V14.2917C10.8797 14.1307 11.0225 14 11.1995 14C11.3765 14 11.5193 14.1307 11.5193 14.2917Z" fill="#F14B5F"/>
<path fill-rule="evenodd" clip-rule="evenodd" d="M12.1597 13.7083V14.2916C12.1597 14.4526 12.0163 14.5833 11.8399 14.5833C11.6629 14.5833 11.5195 14.4526 11.5195 14.2916V13.7083C11.5195 13.5473 11.6629 13.4166 11.8399 13.4166C12.0163 13.4166 12.1597 13.5473 12.1597 13.7083Z" fill="#F14B5F"/>
<path fill-rule="evenodd" clip-rule="evenodd" d="M12.7996 14.2917V14.875C12.7996 15.036 12.6568 15.1667 12.4798 15.1667C12.3028 15.1667 12.16 15.036 12.16 14.875V14.2917C12.16 14.1307 12.3028 14 12.4798 14C12.6568 14 12.7996 14.1307 12.7996 14.2917Z" fill="#F14B5F"/>
<path fill-rule="evenodd" clip-rule="evenodd" d="M13.4394 13.7083V14.2916C13.4394 14.4526 13.2966 14.5833 13.1196 14.5833C12.9426 14.5833 12.7998 14.4526 12.7998 14.2916V13.7083C12.7998 13.5473 12.9426 13.4166 13.1196 13.4166C13.2966 13.4166 13.4394 13.5473 13.4394 13.7083Z" fill="#F14B5F"/>
<path fill-rule="evenodd" clip-rule="evenodd" d="M9.59976 13.7083V14.2916C9.59976 14.4526 9.45636 14.5833 9.27996 14.5833C9.10296 14.5833 8.95956 14.4526 8.95956 14.2916V13.7083C8.95956 13.5473 9.10296 13.4166 9.27996 13.4166C9.45636 13.4166 9.59976 13.5473 9.59976 13.7083Z" fill="#F14B5F"/>
<path fill-rule="evenodd" clip-rule="evenodd" d="M14.0798 14.2917V14.875C14.0798 15.036 13.9364 15.1667 13.7594 15.1667C13.5824 15.1667 13.4396 15.036 13.4396 14.875V14.2917C13.4396 14.1307 13.5824 14 13.7594 14C13.9364 14 14.0798 14.1307 14.0798 14.2917Z" fill="#F14B5F"/>
<path fill-rule="evenodd" clip-rule="evenodd" d="M5.11967 14.2917V14.875C5.11967 15.036 4.97627 15.1667 4.79987 15.1667C4.62287 15.1667 4.48007 15.036 4.48007 14.875V14.2917C4.48007 14.1307 4.62287 14 4.79987 14C4.97627 14 5.11967 14.1307 5.11967 14.2917Z" fill="#F14B5F"/>
<path fill-rule="evenodd" clip-rule="evenodd" d="M5.75953 13.7083V14.2916C5.75953 14.4526 5.61673 14.5833 5.43973 14.5833C5.26273 14.5833 5.11993 14.4526 5.11993 14.2916V13.7083C5.11993 13.5473 5.26273 13.4166 5.43973 13.4166C5.61673 13.4166 5.75953 13.5473 5.75953 13.7083Z" fill="#F14B5F"/>
<path fill-rule="evenodd" clip-rule="evenodd" d="M6.39937 14.2917V14.875C6.39937 15.036 6.25657 15.1667 6.07957 15.1667C5.90257 15.1667 5.75977 15.036 5.75977 14.875V14.2917C5.75977 14.1307 5.90257 14 6.07957 14C6.25657 14 6.39937 14.1307 6.39937 14.2917Z" fill="#F14B5F"/>
<path fill-rule="evenodd" clip-rule="evenodd" d="M7.0398 13.7083V14.2916C7.0398 14.4526 6.8964 14.5833 6.7194 14.5833C6.543 14.5833 6.3996 14.4526 6.3996 14.2916V13.7083C6.3996 13.5473 6.543 13.4166 6.7194 13.4166C6.8964 13.4166 7.0398 13.5473 7.0398 13.7083Z" fill="#F14B5F"/>
<path fill-rule="evenodd" clip-rule="evenodd" d="M7.67964 14.2917V14.875C7.67964 15.036 7.53624 15.1667 7.35984 15.1667C7.18284 15.1667 7.04004 15.036 7.04004 14.875V14.2917C7.04004 14.1307 7.18284 14 7.35984 14C7.53624 14 7.67964 14.1307 7.67964 14.2917Z" fill="#F14B5F"/>
<path fill-rule="evenodd" clip-rule="evenodd" d="M8.31947 13.7083V14.2916C8.31947 14.4526 8.17667 14.5833 7.99967 14.5833C7.82267 14.5833 7.67987 14.4526 7.67987 14.2916V13.7083C7.67987 13.5473 7.82267 13.4166 7.99967 13.4166C8.17667 13.4166 8.31947 13.5473 8.31947 13.7083Z" fill="#F14B5F"/>
<path fill-rule="evenodd" clip-rule="evenodd" d="M4.47986 13.7083V14.2916C4.47986 14.4526 4.33646 14.5833 4.15946 14.5833C3.98246 14.5833 3.83966 14.4526 3.83966 14.2916V13.7083C3.83966 13.5473 3.98246 13.4166 4.15946 13.4166C4.33646 13.4166 4.47986 13.5473 4.47986 13.7083Z" fill="#F14B5F"/>
<path fill-rule="evenodd" clip-rule="evenodd" d="M1.27943 14.2917V14.875C1.27943 15.036 1.13663 15.1667 0.959632 15.1667C0.782632 15.1667 0.639832 15.036 0.639832 14.875V14.2917C0.639832 14.1307 0.782632 14 0.959632 14C1.13663 14 1.27943 14.1307 1.27943 14.2917Z" fill="#F14B5F"/>
<path fill-rule="evenodd" clip-rule="evenodd" d="M1.91929 13.7083V14.2916C1.91929 14.4526 1.77649 14.5833 1.59949 14.5833C1.42249 14.5833 1.27969 14.4526 1.27969 14.2916V13.7083C1.27969 13.5473 1.42249 13.4166 1.59949 13.4166C1.77649 13.4166 1.91929 13.5473 1.91929 13.7083Z" fill="#F14B5F"/>
<path fill-rule="evenodd" clip-rule="evenodd" d="M2.55973 14.2917V14.875C2.55973 15.036 2.41633 15.1667 2.23993 15.1667C2.06293 15.1667 1.91953 15.036 1.91953 14.875V14.2917C1.91953 14.1307 2.06293 14 2.23993 14C2.41633 14 2.55973 14.1307 2.55973 14.2917Z" fill="#F14B5F"/>
<path fill-rule="evenodd" clip-rule="evenodd" d="M3.19957 13.7083V14.2916C3.19957 14.4526 3.05677 14.5833 2.87977 14.5833C2.70277 14.5833 2.55997 14.4526 2.55997 14.2916V13.7083C2.55997 13.5473 2.70277 13.4166 2.87977 13.4166C3.05677 13.4166 3.19957 13.5473 3.19957 13.7083Z" fill="#F14B5F"/>
<path fill-rule="evenodd" clip-rule="evenodd" d="M3.8394 14.2917V14.875C3.8394 15.036 3.6966 15.1667 3.5196 15.1667C3.3426 15.1667 3.1998 15.036 3.1998 14.875V14.2917C3.1998 14.1307 3.3426 14 3.5196 14C3.6966 14 3.8394 14.1307 3.8394 14.2917Z" fill="#F14B5F"/>
<path fill-rule="evenodd" clip-rule="evenodd" d="M0.6396 13.7083V14.2916C0.6396 14.4526 0.4968 14.5833 0.3198 14.5833C0.1428 14.5833 0 14.4526 0 14.2916L0 13.7083C0 13.5473 0.1428 13.4166 0.3198 13.4166C0.4968 13.4166 0.6396 13.5473 0.6396 13.7083Z" fill="#F14B5F"/>
<path fill-rule="evenodd" clip-rule="evenodd" d="M8.95933 14.2917V14.875C8.95933 15.036 8.81653 15.1667 8.63953 15.1667C8.46253 15.1667 8.31973 15.036 8.31973 14.875V14.2917C8.31973 14.1307 8.46253 14 8.63953 14C8.81653 14 8.95933 14.1307 8.95933 14.2917Z" fill="#F14B5F"/>
<path fill-rule="evenodd" clip-rule="evenodd" d="M18.9197 14.2917V14.875C18.9197 15.036 18.7763 15.1667 18.5999 15.1667C18.4229 15.1667 18.2801 15.036 18.2801 14.875V14.2917C18.2801 14.1307 18.4229 14 18.5999 14C18.7763 14 18.9197 14.1307 18.9197 14.2917Z" fill="#F14B5F"/>
<path fill-rule="evenodd" clip-rule="evenodd" d="M18.2798 13.7083V14.2916C18.2798 14.4526 18.1364 14.5833 17.9594 14.5833C17.7824 14.5833 17.6396 14.4526 17.6396 14.2916V13.7083C17.6396 13.5473 17.7824 13.4166 17.9594 13.4166C18.1364 13.4166 18.2798 13.5473 18.2798 13.7083Z" fill="#F14B5F"/>
<path fill-rule="evenodd" clip-rule="evenodd" d="M15.0794 14.2917V14.875C15.0794 15.036 14.9366 15.1667 14.7596 15.1667C14.5826 15.1667 14.4398 15.036 14.4398 14.875V14.2917C14.4398 14.1307 14.5826 14 14.7596 14C14.9366 14 15.0794 14.1307 15.0794 14.2917Z" fill="#F14B5F"/>
<path fill-rule="evenodd" clip-rule="evenodd" d="M15.7193 13.7083V14.2916C15.7193 14.4526 15.5765 14.5833 15.3995 14.5833C15.2225 14.5833 15.0797 14.4526 15.0797 14.2916V13.7083C15.0797 13.5473 15.2225 13.4166 15.3995 13.4166C15.5765 13.4166 15.7193 13.5473 15.7193 13.7083Z" fill="#F14B5F"/>
<path fill-rule="evenodd" clip-rule="evenodd" d="M16.3597 14.2917V14.875C16.3597 15.036 16.2163 15.1667 16.0399 15.1667C15.8629 15.1667 15.7195 15.036 15.7195 14.875V14.2917C15.7195 14.1307 15.8629 14 16.0399 14C16.2163 14 16.3597 14.1307 16.3597 14.2917Z" fill="#F14B5F"/>
<path fill-rule="evenodd" clip-rule="evenodd" d="M16.9996 13.7083V14.2916C16.9996 14.4526 16.8568 14.5833 16.6798 14.5833C16.5028 14.5833 16.36 14.4526 16.36 14.2916V13.7083C16.36 13.5473 16.5028 13.4166 16.6798 13.4166C16.8568 13.4166 16.9996 13.5473 16.9996 13.7083Z" fill="#F14B5F"/>
<path fill-rule="evenodd" clip-rule="evenodd" d="M17.6394 14.2917V14.875C17.6394 15.036 17.4966 15.1667 17.3196 15.1667C17.1426 15.1667 16.9998 15.036 16.9998 14.875V14.2917C16.9998 14.1307 17.1426 14 17.3196 14C17.4966 14 17.6394 14.1307 17.6394 14.2917Z" fill="#F14B5F"/>
<path fill-rule="evenodd" clip-rule="evenodd" d="M14.4396 13.7083V14.2916C14.4396 14.4526 14.2968 14.5833 14.1198 14.5833C13.9428 14.5833 13.8 14.4526 13.8 14.2916V13.7083C13.8 13.5473 13.9428 13.4166 14.1198 13.4166C14.2968 13.4166 14.4396 13.5473 14.4396 13.7083Z" fill="#F14B5F"/>
<path d="M9 21.0773H9.60793V21.6297H9.61929C9.63823 21.5524 9.67421 21.4769 9.72724 21.4032C9.78406 21.3296 9.85034 21.2633 9.9261 21.2044C10.0056 21.1418 10.0928 21.0921 10.1875 21.0552C10.2821 21.0184 10.3787 21 10.4772 21C10.553 21 10.6041 21.0018 10.6306 21.0055C10.6609 21.0092 10.6912 21.0129 10.7215 21.0166V21.6242C10.6761 21.6168 10.6287 21.6113 10.5795 21.6076C10.534 21.6002 10.4886 21.5966 10.4431 21.5966C10.3333 21.5966 10.2291 21.6187 10.1306 21.6629C10.0359 21.7034 9.95261 21.766 9.88065 21.8507C9.80868 21.9317 9.75186 22.0329 9.7102 22.1545C9.66853 22.276 9.6477 22.4159 9.6477 22.5743V23.9331H9V21.0773Z" fill="#F14B5F"/>
<path d="M13.4576 23.2979C13.4576 23.3752 13.467 23.4305 13.486 23.4636C13.5087 23.4967 13.5504 23.5133 13.611 23.5133C13.6299 23.5133 13.6526 23.5133 13.6791 23.5133C13.7057 23.5133 13.736 23.5096 13.77 23.5023V23.9386C13.7473 23.946 13.717 23.9534 13.6791 23.9607C13.645 23.9718 13.6091 23.981 13.5712 23.9884C13.5333 23.9957 13.4954 24.0012 13.4576 24.0049C13.4197 24.0086 13.3875 24.0104 13.361 24.0104C13.2284 24.0104 13.1186 23.9847 13.0314 23.9331C12.9443 23.8816 12.8875 23.7913 12.861 23.6625C12.7322 23.784 12.5731 23.8724 12.3837 23.9276C12.1981 23.9828 12.0182 24.0104 11.844 24.0104C11.7114 24.0104 11.5845 23.992 11.4633 23.9552C11.3421 23.9221 11.2342 23.8724 11.1395 23.8061C11.0486 23.7361 10.9747 23.6496 10.9179 23.5465C10.8649 23.4397 10.8383 23.3163 10.8383 23.1764C10.8383 22.9996 10.8705 22.856 10.9349 22.7455C11.0031 22.635 11.0902 22.5485 11.1963 22.4859C11.3061 22.4233 11.4273 22.3791 11.5599 22.3533C11.6963 22.3239 11.8326 22.3018 11.969 22.287C12.0864 22.2649 12.1981 22.2502 12.3042 22.2428C12.4103 22.2318 12.5031 22.2152 12.5826 22.1931C12.6659 22.171 12.7303 22.1379 12.7758 22.0937C12.825 22.0458 12.8496 21.9759 12.8496 21.8838C12.8496 21.8028 12.8288 21.7365 12.7871 21.6849C12.7493 21.6334 12.7 21.5947 12.6394 21.5689C12.5826 21.5395 12.5182 21.5211 12.4462 21.5137C12.3743 21.5027 12.3061 21.4971 12.2417 21.4971C12.0599 21.4971 11.9103 21.534 11.7929 21.6076C11.6754 21.6813 11.6091 21.7954 11.594 21.9501H10.9463C10.9577 21.766 11.0031 21.6131 11.0827 21.4916C11.1622 21.3701 11.2626 21.2725 11.3838 21.1989C11.5088 21.1252 11.6489 21.0737 11.8042 21.0442C11.9595 21.0147 12.1186 21 12.2815 21C12.4254 21 12.5674 21.0147 12.7076 21.0442C12.8477 21.0737 12.9727 21.1215 13.0826 21.1878C13.1962 21.2541 13.2871 21.3406 13.3553 21.4474C13.4235 21.5505 13.4576 21.6776 13.4576 21.8286V23.2979ZM12.8099 22.5025C12.7114 22.5651 12.5902 22.6037 12.4462 22.6185C12.3023 22.6295 12.1584 22.6479 12.0144 22.6737C11.9463 22.6847 11.88 22.7013 11.8156 22.7234C11.7512 22.7418 11.6944 22.7694 11.6451 22.8063C11.5959 22.8394 11.5561 22.8854 11.5258 22.9444C11.4993 22.9996 11.486 23.0677 11.486 23.1487C11.486 23.2187 11.5069 23.2776 11.5485 23.3255C11.5902 23.3734 11.6395 23.412 11.6963 23.4415C11.7569 23.4673 11.8213 23.4857 11.8894 23.4967C11.9614 23.5078 12.0258 23.5133 12.0826 23.5133C12.1546 23.5133 12.2322 23.5041 12.3156 23.4857C12.3989 23.4673 12.4765 23.436 12.5485 23.3918C12.6243 23.3476 12.6868 23.2924 12.736 23.2261C12.7852 23.1561 12.8099 23.0714 12.8099 22.972V22.5025Z" fill="#F14B5F"/>
<path d="M14.1545 21.0773H14.7624V21.6297H14.7738C14.7927 21.5524 14.8287 21.4769 14.8817 21.4032C14.9385 21.3296 15.0048 21.2633 15.0806 21.2044C15.1601 21.1418 15.2472 21.0921 15.3419 21.0552C15.4366 21.0184 15.5332 21 15.6317 21C15.7074 21 15.7586 21.0018 15.7851 21.0055C15.8154 21.0092 15.8457 21.0129 15.876 21.0166V21.6242C15.8306 21.6168 15.7832 21.6113 15.734 21.6076C15.6885 21.6002 15.6431 21.5966 15.5976 21.5966C15.4878 21.5966 15.3836 21.6187 15.2851 21.6629C15.1904 21.7034 15.1071 21.766 15.0351 21.8507C14.9632 21.9317 14.9063 22.0329 14.8647 22.1545C14.823 22.276 14.8022 22.4159 14.8022 22.5743V23.9331H14.1545V21.0773Z" fill="#F14B5F"/>
<path fill-rule="evenodd" clip-rule="evenodd" d="M22.4394 14.2917C22.4394 14.4527 22.2966 14.5833 22.1196 14.5833H20.5194V14H22.1196C22.2966 14 22.4394 14.1307 22.4394 14.2917ZM19.2396 14.2917C19.2396 14.1307 19.3824 14 19.5594 14H19.8792V14.5833H19.5594C19.3824 14.5833 19.2396 14.4527 19.2396 14.2917ZM18.6 14.2917C18.6 14.7741 19.0296 15.1667 19.5594 15.1667H22.1196C22.6488 15.1667 23.079 14.7741 23.079 14.2917C23.079 13.8092 22.6488 13.4167 22.1196 13.4167H19.5594C19.0296 13.4167 18.6 13.8092 18.6 14.2917Z" fill="#F14B5F"/>
</svg>
