<svg width="24" height="28" viewBox="0 0 24 28" fill="none" xmlns="http://www.w3.org/2000/svg">
<path fill-rule="evenodd" clip-rule="evenodd" d="M2.25009 27.8542C1.09209 27.8542 0.150085 26.9279 0.150085 25.7892V2.21031C0.150085 1.07222 1.09209 0.145891 2.25009 0.145891H16.5001C16.6609 0.145891 16.8115 0.206558 16.9237 0.317975L23.6737 6.94989C23.7877 7.06189 23.8501 7.21064 23.8501 7.36872V25.7892C23.8501 26.9279 22.9081 27.8542 21.7501 27.8542H2.25009Z" fill="white"/>
<path fill-rule="evenodd" clip-rule="evenodd" d="M16.5002 0.000100136H2.25018C1.00938 0.000100136 0.000183105 0.991184 0.000183105 2.21035V25.7898C0.000183105 27.0084 1.00938 28.0001 2.25018 28.0001H21.7502C22.9904 28.0001 24.0002 27.0084 24.0002 25.7898V7.36877C24.0002 7.17277 23.921 6.9861 23.7806 6.84727L17.0306 0.215933C16.8896 0.0765168 16.6994 0.000100136 16.5002 0.000100136ZM16.5001 0.291725C16.6207 0.291725 16.7329 0.337225 16.8169 0.421225L23.5669 7.05256C23.6527 7.13656 23.7001 7.24914 23.7001 7.36872V25.7898C23.7001 26.8474 22.8253 27.7084 21.7501 27.7084H2.25011C1.17491 27.7084 0.300109 26.8474 0.300109 25.7898V2.21031C0.300109 1.15273 1.17491 0.291725 2.25011 0.291725H16.5001Z" fill="#EBECEF"/>
<path fill-rule="evenodd" clip-rule="evenodd" d="M24.0001 7.36861C24.0001 7.17261 23.9209 6.98594 23.7805 6.84711L17.0305 0.215775C16.8895 0.0763585 16.6993 -5.81741e-05 16.5001 -5.81741e-05H16.0123V5.63727C16.0123 6.85586 17.0215 7.84753 18.2623 7.84753H24.0001V7.36861Z" fill="#EBECEF"/>
<path fill-rule="evenodd" clip-rule="evenodd" d="M8.35116 22.0289H10.6192V22.4489L9.02076 24.2706H10.7002V24.7431H8.24316V24.3231L9.78756 22.502H8.35116V22.0289Z" fill="#5856D6"/>
<path fill-rule="evenodd" clip-rule="evenodd" d="M11.2998 24.7433H11.9154V22.029H11.2998V24.7433ZM11.2998 21.5617H11.9154V20.9948H11.2998V21.5617Z" fill="#5856D6"/>
<path fill-rule="evenodd" clip-rule="evenodd" d="M14.8852 23.3886C14.8852 23.2661 14.869 23.1471 14.8366 23.0316C14.8042 22.9161 14.7556 22.814 14.6908 22.7242C14.626 22.6355 14.545 22.5638 14.4478 22.509C14.3506 22.4547 14.239 22.4279 14.113 22.4279C13.8538 22.4279 13.6588 22.5154 13.5274 22.6904C13.396 22.866 13.33 23.0981 13.33 23.3886C13.33 23.5251 13.3474 23.6517 13.3816 23.769C13.4152 23.8868 13.4668 23.9871 13.5352 24.0711C13.6036 24.1551 13.6852 24.2216 13.7812 24.2706C13.876 24.3196 13.987 24.3441 14.113 24.3441C14.2534 24.3441 14.3722 24.3161 14.4694 24.2601C14.5666 24.2041 14.647 24.1312 14.71 24.042C14.773 23.9533 14.818 23.8518 14.845 23.738C14.872 23.6237 14.8852 23.5076 14.8852 23.3886ZM12.736 22.0289H13.3192V22.3964H13.33C13.4164 22.2389 13.537 22.1263 13.6918 22.058C13.8466 21.9898 14.014 21.9554 14.194 21.9554C14.4136 21.9554 14.6056 21.9927 14.7694 22.068C14.9332 22.1432 15.0688 22.247 15.1768 22.3783C15.2848 22.509 15.3658 22.6624 15.4198 22.8374C15.4738 23.0124 15.5008 23.1996 15.5008 23.3991C15.5008 23.5811 15.4762 23.7579 15.4282 23.9294C15.3796 24.1009 15.3058 24.252 15.2068 24.3832C15.1078 24.515 14.9824 24.6195 14.8312 24.6982C14.68 24.7775 14.5018 24.8166 14.2966 24.8166C14.2066 24.8166 14.1166 24.809 14.0266 24.7927C13.9366 24.7775 13.8502 24.7519 13.7674 24.7169C13.6846 24.6819 13.6084 24.6375 13.5376 24.5833C13.468 24.5285 13.4092 24.4649 13.3624 24.3914H13.3516V25.7459H12.736V22.0289Z" fill="#5856D6"/>
<path fill-rule="evenodd" clip-rule="evenodd" d="M12.0001 10.2465H11.4001C11.2345 10.2465 11.1001 10.1077 11.1001 9.93562C11.1001 9.76354 11.2345 9.62471 11.4001 9.62471H12.0001C12.1657 9.62471 12.3001 9.76354 12.3001 9.93562C12.3001 10.1077 12.1657 10.2465 12.0001 10.2465Z" fill="#5856D6"/>
<path fill-rule="evenodd" clip-rule="evenodd" d="M12.6001 10.8686H12.0001C11.8345 10.8686 11.7001 10.7298 11.7001 10.5577C11.7001 10.3856 11.8345 10.2468 12.0001 10.2468H12.6001C12.7657 10.2468 12.9001 10.3856 12.9001 10.5577C12.9001 10.7298 12.7657 10.8686 12.6001 10.8686Z" fill="#5856D6"/>
<path fill-rule="evenodd" clip-rule="evenodd" d="M12.0001 11.4907H11.4001C11.2345 11.4907 11.1001 11.3518 11.1001 11.1798C11.1001 11.0077 11.2345 10.8688 11.4001 10.8688H12.0001C12.1657 10.8688 12.3001 11.0077 12.3001 11.1798C12.3001 11.3518 12.1657 11.4907 12.0001 11.4907Z" fill="#5856D6"/>
<path fill-rule="evenodd" clip-rule="evenodd" d="M12.6001 12.1133H12.0001C11.8345 12.1133 11.7001 11.9739 11.7001 11.8024C11.7001 11.6303 11.8345 11.4909 12.0001 11.4909H12.6001C12.7657 11.4909 12.9001 11.6303 12.9001 11.8024C12.9001 11.9739 12.7657 12.1133 12.6001 12.1133Z" fill="#5856D6"/>
<path fill-rule="evenodd" clip-rule="evenodd" d="M12.0001 12.7354H11.4001C11.2345 12.7354 11.1001 12.5966 11.1001 12.4245C11.1001 12.2524 11.2345 12.1136 11.4001 12.1136H12.0001C12.1657 12.1136 12.3001 12.2524 12.3001 12.4245C12.3001 12.5966 12.1657 12.7354 12.0001 12.7354Z" fill="#5856D6"/>
<path fill-rule="evenodd" clip-rule="evenodd" d="M12.6001 13.3575H12.0001C11.8345 13.3575 11.7001 13.2186 11.7001 13.0465C11.7001 12.8745 11.8345 12.7356 12.0001 12.7356H12.6001C12.7657 12.7356 12.9001 12.8745 12.9001 13.0465C12.9001 13.2186 12.7657 13.3575 12.6001 13.3575Z" fill="#5856D6"/>
<path fill-rule="evenodd" clip-rule="evenodd" d="M12.0001 17.7131C11.8345 17.7131 11.7001 17.5743 11.7001 17.4022V15.8464H12.3001V17.4022C12.3001 17.5743 12.1657 17.7131 12.0001 17.7131ZM12.0001 14.6022C12.1657 14.6022 12.3001 14.741 12.3001 14.9131V15.224H11.7001V14.9131C11.7001 14.741 11.8345 14.6022 12.0001 14.6022ZM12.0001 13.9803C11.5039 13.9803 11.1001 14.398 11.1001 14.9131V17.4022C11.1001 17.9167 11.5039 18.3349 12.0001 18.3349C12.4963 18.3349 12.9001 17.9167 12.9001 17.4022V14.9131C12.9001 14.398 12.4963 13.9803 12.0001 13.9803Z" fill="#5856D6"/>
<path fill-rule="evenodd" clip-rule="evenodd" d="M12.6001 9.62448H12.0001C11.8345 9.62448 11.7001 9.48506 11.7001 9.31356C11.7001 9.14148 11.8345 9.00206 12.0001 9.00206H12.6001C12.7657 9.00206 12.9001 9.14148 12.9001 9.31356C12.9001 9.48506 12.7657 9.62448 12.6001 9.62448Z" fill="#5856D6"/>
<path fill-rule="evenodd" clip-rule="evenodd" d="M12.0001 13.9801H11.4001C11.2345 13.9801 11.1001 13.8407 11.1001 13.6686C11.1001 13.4965 11.2345 13.3577 11.4001 13.3577H12.0001C12.1657 13.3577 12.3001 13.4965 12.3001 13.6686C12.3001 13.8407 12.1657 13.9801 12.0001 13.9801Z" fill="#5856D6"/>
<path fill-rule="evenodd" clip-rule="evenodd" d="M12.0001 5.26884H11.4001C11.2345 5.26884 11.1001 5.12942 11.1001 4.95792C11.1001 4.78584 11.2345 4.64701 11.4001 4.64701H12.0001C12.1657 4.64701 12.3001 4.78584 12.3001 4.95792C12.3001 5.12942 12.1657 5.26884 12.0001 5.26884Z" fill="#5856D6"/>
<path fill-rule="evenodd" clip-rule="evenodd" d="M12.6001 5.89091H12.0001C11.8345 5.89091 11.7001 5.75207 11.7001 5.57999C11.7001 5.40791 11.8345 5.26907 12.0001 5.26907H12.6001C12.7657 5.26907 12.9001 5.40791 12.9001 5.57999C12.9001 5.75207 12.7657 5.89091 12.6001 5.89091Z" fill="#5856D6"/>
<path fill-rule="evenodd" clip-rule="evenodd" d="M12.0001 6.51298H11.4001C11.2345 6.51298 11.1001 6.37414 11.1001 6.20206C11.1001 6.02998 11.2345 5.89114 11.4001 5.89114H12.0001C12.1657 5.89114 12.3001 6.02998 12.3001 6.20206C12.3001 6.37414 12.1657 6.51298 12.0001 6.51298Z" fill="#5856D6"/>
<path fill-rule="evenodd" clip-rule="evenodd" d="M12.6001 7.13562H12.0001C11.8345 7.13562 11.7001 6.99621 11.7001 6.82412C11.7001 6.65262 11.8345 6.51321 12.0001 6.51321H12.6001C12.7657 6.51321 12.9001 6.65262 12.9001 6.82412C12.9001 6.99621 12.7657 7.13562 12.6001 7.13562Z" fill="#5856D6"/>
<path fill-rule="evenodd" clip-rule="evenodd" d="M12.0001 7.75769H11.4001C11.2345 7.75769 11.1001 7.61828 11.1001 7.44678C11.1001 7.27469 11.2345 7.13586 11.4001 7.13586H12.0001C12.1657 7.13586 12.3001 7.27469 12.3001 7.44678C12.3001 7.61828 12.1657 7.75769 12.0001 7.75769Z" fill="#5856D6"/>
<path fill-rule="evenodd" clip-rule="evenodd" d="M12.6001 8.37976H12.0001C11.8345 8.37976 11.7001 8.24093 11.7001 8.06884C11.7001 7.89676 11.8345 7.75793 12.0001 7.75793H12.6001C12.7657 7.75793 12.9001 7.89676 12.9001 8.06884C12.9001 8.24093 12.7657 8.37976 12.6001 8.37976Z" fill="#5856D6"/>
<path fill-rule="evenodd" clip-rule="evenodd" d="M12.6001 4.64678H12.0001C11.8345 4.64678 11.7001 4.50736 11.7001 4.33528C11.7001 4.16319 11.8345 4.02436 12.0001 4.02436H12.6001C12.7657 4.02436 12.9001 4.16319 12.9001 4.33528C12.9001 4.50736 12.7657 4.64678 12.6001 4.64678Z" fill="#5856D6"/>
<path fill-rule="evenodd" clip-rule="evenodd" d="M12.0001 1.53528H11.4001C11.2345 1.53528 11.1001 1.39644 11.1001 1.22436C11.1001 1.05228 11.2345 0.913442 11.4001 0.913442H12.0001C12.1657 0.913442 12.3001 1.05228 12.3001 1.22436C12.3001 1.39644 12.1657 1.53528 12.0001 1.53528Z" fill="#5856D6"/>
<path fill-rule="evenodd" clip-rule="evenodd" d="M12.6001 2.15734H12.0001C11.8345 2.15734 11.7001 2.01851 11.7001 1.84642C11.7001 1.67434 11.8345 1.53551 12.0001 1.53551H12.6001C12.7657 1.53551 12.9001 1.67434 12.9001 1.84642C12.9001 2.01851 12.7657 2.15734 12.6001 2.15734Z" fill="#5856D6"/>
<path fill-rule="evenodd" clip-rule="evenodd" d="M12.0001 2.77999H11.4001C11.2345 2.77999 11.1001 2.64058 11.1001 2.46908C11.1001 2.29699 11.2345 2.15758 11.4001 2.15758H12.0001C12.1657 2.15758 12.3001 2.29699 12.3001 2.46908C12.3001 2.64058 12.1657 2.77999 12.0001 2.77999Z" fill="#5856D6"/>
<path fill-rule="evenodd" clip-rule="evenodd" d="M12.6001 3.40206H12.0001C11.8345 3.40206 11.7001 3.26322 11.7001 3.09114C11.7001 2.91906 11.8345 2.78022 12.0001 2.78022H12.6001C12.7657 2.78022 12.9001 2.91906 12.9001 3.09114C12.9001 3.26322 12.7657 3.40206 12.6001 3.40206Z" fill="#5856D6"/>
<path fill-rule="evenodd" clip-rule="evenodd" d="M12.0001 4.02412H11.4001C11.2345 4.02412 11.1001 3.88529 11.1001 3.71321C11.1001 3.54112 11.2345 3.40229 11.4001 3.40229H12.0001C12.1657 3.40229 12.3001 3.54112 12.3001 3.71321C12.3001 3.88529 12.1657 4.02412 12.0001 4.02412Z" fill="#5856D6"/>
<path fill-rule="evenodd" clip-rule="evenodd" d="M12.6001 0.913208H12.0001C11.8345 0.913208 11.7001 0.774375 11.7001 0.602292C11.7001 0.430208 11.8345 0.291375 12.0001 0.291375H12.6001C12.7657 0.291375 12.9001 0.430208 12.9001 0.602292C12.9001 0.774375 12.7657 0.913208 12.6001 0.913208Z" fill="#5856D6"/>
<path fill-rule="evenodd" clip-rule="evenodd" d="M12.0001 9.00183H11.4001C11.2345 9.00183 11.1001 8.86299 11.1001 8.69091C11.1001 8.51882 11.2345 8.37999 11.4001 8.37999H12.0001C12.1657 8.37999 12.3001 8.51882 12.3001 8.69091C12.3001 8.86299 12.1657 9.00183 12.0001 9.00183Z" fill="#5856D6"/>
</svg>
