<svg width="24" height="28" viewBox="0 0 24 28" fill="none" xmlns="http://www.w3.org/2000/svg">
<path fill-rule="evenodd" clip-rule="evenodd" d="M2.24993 27.8542C1.09193 27.8542 0.149933 26.9279 0.149933 25.7892V2.21031C0.149933 1.07222 1.09193 0.145889 2.24993 0.145889H16.4999C16.6613 0.145889 16.8113 0.206556 16.9229 0.317973L23.6735 6.94989C23.7875 7.06189 23.8499 7.21064 23.8499 7.36872V25.7892C23.8499 26.9279 22.9079 27.8542 21.7499 27.8542H2.24993Z" fill="white"/>
<mask id="mask0" mask-type="alpha" maskUnits="userSpaceOnUse" x="0" y="0" width="24" height="28">
<path fill-rule="evenodd" clip-rule="evenodd" d="M-9.15527e-05 0.000106812H23.9999V28H-9.15527e-05V0.000106812Z" fill="white"/>
</mask>
<g mask="url(#mask0)">
<path fill-rule="evenodd" clip-rule="evenodd" d="M16.4999 0.000106812H2.24991C1.00911 0.000106812 -9.15527e-05 0.99119 -9.15527e-05 2.21036V25.7899C-9.15527e-05 27.0084 1.00911 28.0001 2.24991 28.0001H21.7499C22.9901 28.0001 23.9999 27.0084 23.9999 25.7899V7.36877C23.9999 7.17277 23.9207 6.98611 23.7803 6.84727L17.0303 0.21594C16.8893 0.0765235 16.6991 0.000106812 16.4999 0.000106812ZM16.4999 0.291729C16.6205 0.291729 16.7327 0.337229 16.8167 0.421229L23.5667 7.05256C23.6531 7.13656 23.6999 7.24915 23.6999 7.36873V25.7898C23.6999 26.8474 22.8251 27.7084 21.7499 27.7084H2.24995C1.17475 27.7084 0.299945 26.8474 0.299945 25.7898V2.21031C0.299945 1.15273 1.17475 0.291729 2.24995 0.291729H16.4999Z" fill="#EBECEF"/>
</g>
<mask id="mask1" mask-type="alpha" maskUnits="userSpaceOnUse" x="16" y="0" width="8" height="8">
<path fill-rule="evenodd" clip-rule="evenodd" d="M16.0121 0H23.9999V7.84753H16.0121V0Z" fill="white"/>
</mask>
<g mask="url(#mask1)">
<path fill-rule="evenodd" clip-rule="evenodd" d="M23.9999 7.36861C23.9999 7.17261 23.9207 6.98594 23.7803 6.84711L17.0303 0.215772C16.8893 0.0763556 16.6991 -6.10352e-05 16.4999 -6.10352e-05H16.0121V5.63727C16.0121 6.85585 17.0213 7.84752 18.2621 7.84752H23.9999V7.36861Z" fill="#EBECEF"/>
</g>
<path fill-rule="evenodd" clip-rule="evenodd" d="M6.75698 23.3835C6.66338 23.443 6.54818 23.4786 6.41138 23.4914C6.27458 23.5031 6.13778 23.5218 6.00098 23.5463C5.93618 23.5568 5.87318 23.5713 5.81198 23.5906C5.75078 23.6104 5.69678 23.6367 5.64998 23.6693C5.60318 23.7032 5.56658 23.7463 5.53958 23.8006C5.51258 23.8554 5.49878 23.9208 5.49878 23.9978C5.49878 24.0643 5.51858 24.1203 5.55818 24.1658C5.59778 24.2113 5.64518 24.2468 5.70098 24.2731C5.75738 24.2993 5.81858 24.318 5.88518 24.3285C5.95118 24.339 6.01178 24.3437 6.06578 24.3437C6.13418 24.3437 6.20798 24.3355 6.28718 24.318C6.36638 24.3005 6.44138 24.2708 6.51158 24.2288C6.58178 24.1868 6.63998 24.1331 6.68678 24.0683C6.73358 24.0036 6.75698 23.9243 6.75698 23.8298V23.3835ZM7.37258 24.1395C7.37258 24.213 7.38278 24.2655 7.40198 24.2964C7.42178 24.3285 7.46078 24.3437 7.51898 24.3437H7.58318C7.60838 24.3437 7.63718 24.3408 7.66958 24.3338V24.7485C7.64798 24.7555 7.61978 24.7631 7.58618 24.7718C7.55138 24.7812 7.51658 24.7888 7.48058 24.7958C7.44458 24.8028 7.40858 24.8074 7.37258 24.8115C7.33658 24.815 7.30598 24.8168 7.28078 24.8168C7.15478 24.8168 7.05038 24.7923 6.96818 24.7433C6.88478 24.6943 6.83078 24.6085 6.80558 24.486C6.68318 24.6015 6.53318 24.6849 6.35498 24.738C6.17618 24.7905 6.00458 24.8168 5.83898 24.8168C5.71298 24.8168 5.59238 24.8004 5.47718 24.7666C5.36198 24.7333 5.26058 24.6843 5.17178 24.6196C5.08418 24.5554 5.01398 24.4726 4.96178 24.3728C4.90958 24.2731 4.88318 24.157 4.88318 24.024C4.88318 23.856 4.91498 23.7195 4.97738 23.6145C5.04098 23.5095 5.12318 23.4273 5.22578 23.3678C5.32838 23.3083 5.44418 23.2651 5.57138 23.2388C5.69918 23.2126 5.82818 23.1928 5.95778 23.1782C6.06938 23.1578 6.17558 23.1426 6.27638 23.1338C6.37718 23.1257 6.46658 23.1105 6.54398 23.0895C6.62078 23.0685 6.68258 23.0358 6.72698 22.9921C6.77198 22.9483 6.79478 22.883 6.79478 22.7955C6.79478 22.7185 6.77558 22.6555 6.73838 22.6065C6.69998 22.5575 6.65318 22.5202 6.59738 22.4939C6.54218 22.4677 6.47978 22.4496 6.41138 22.4414C6.34358 22.4321 6.27818 22.4274 6.21758 22.4274C6.04478 22.4274 5.90198 22.463 5.79038 22.533C5.67878 22.603 5.61578 22.7115 5.60138 22.8585H4.98578C4.99658 22.6835 5.03978 22.5383 5.11538 22.4228C5.19098 22.3073 5.28758 22.2145 5.40458 22.1445C5.52098 22.0745 5.65358 22.0255 5.80118 21.9975C5.94878 21.9695 6.09998 21.9555 6.25478 21.9555C6.39158 21.9555 6.52658 21.9695 6.65978 21.9975C6.79298 22.0255 6.91298 22.071 7.01918 22.1334C7.12478 22.197 7.21058 22.2781 7.27538 22.3778C7.34018 22.4776 7.37258 22.5995 7.37258 22.7424V24.1395Z" fill="#FFB400"/>
<path fill-rule="evenodd" clip-rule="evenodd" d="M10.6235 24.7433H10.0187V24.3653H10.0079C9.93234 24.5018 9.81954 24.6109 9.67014 24.6931C9.52074 24.7754 9.36834 24.8168 9.21354 24.8168C8.84694 24.8168 8.58174 24.7287 8.41734 24.5514C8.25354 24.3746 8.17194 24.1081 8.17194 23.7511V22.0291H8.78694V23.6933C8.78694 23.9307 8.83434 24.0993 8.92794 24.1967C9.02154 24.2947 9.15294 24.3437 9.32214 24.3437C9.45174 24.3437 9.55974 24.3251 9.64614 24.2866C9.73254 24.2475 9.80274 24.1967 9.85674 24.1314C9.91074 24.0666 9.94914 23.9891 9.97254 23.8981C9.99594 23.8071 10.0079 23.7091 10.0079 23.6041V22.0291H10.6235V24.7433Z" fill="#FFB400"/>
<path fill-rule="evenodd" clip-rule="evenodd" d="M11.8868 23.4149C11.8868 23.5304 11.9018 23.6447 11.933 23.7561C11.9636 23.8681 12.0104 23.9679 12.0734 24.0554C12.1364 24.1429 12.2168 24.2129 12.3134 24.2654C12.4106 24.3179 12.5258 24.3441 12.659 24.3441C12.7964 24.3441 12.914 24.3161 13.013 24.2601C13.112 24.2047 13.193 24.1312 13.256 24.0396C13.319 23.9486 13.3658 23.846 13.3964 23.7328C13.4264 23.6191 13.4426 23.5024 13.4426 23.3834C13.4426 23.0824 13.373 22.8479 13.2344 22.6799C13.0958 22.5119 12.9074 22.4279 12.6704 22.4279C12.5258 22.4279 12.4046 22.4565 12.3056 22.5148C12.2066 22.5726 12.125 22.6478 12.0626 22.7406C11.999 22.8333 11.9546 22.9383 11.9276 23.0556C11.9 23.1728 11.8868 23.2924 11.8868 23.4149ZM14.036 24.7431H13.4528V24.3756H13.4426C13.3592 24.5331 13.2386 24.6457 13.0802 24.7146C12.9224 24.7828 12.7544 24.8166 12.578 24.8166C12.3584 24.8166 12.167 24.7793 12.0032 24.7041C11.8394 24.6288 11.7032 24.5261 11.5958 24.3966C11.4872 24.2671 11.4062 24.1137 11.3522 23.9376C11.2988 23.7608 11.2718 23.5712 11.2718 23.3676C11.2718 23.1226 11.3054 22.9109 11.3744 22.7324C11.4428 22.5539 11.5334 22.4069 11.6468 22.2914C11.7602 22.1759 11.8898 22.0907 12.0356 22.0371C12.1814 21.9828 12.3296 21.9554 12.4808 21.9554C12.5678 21.9554 12.6554 21.9636 12.746 21.9793C12.8354 21.9945 12.9224 22.0201 13.0046 22.0551C13.0874 22.0901 13.1642 22.1351 13.2344 22.1887C13.3046 22.243 13.3628 22.3077 13.4096 22.3812H13.421V20.9952H14.036V24.7431Z" fill="#FFB400"/>
<path fill-rule="evenodd" clip-rule="evenodd" d="M14.8571 24.7433H15.4721V22.029H14.8571V24.7433ZM14.8571 21.5618H15.4721V20.9948H14.8571V21.5618Z" fill="#FFB400"/>
<path fill-rule="evenodd" clip-rule="evenodd" d="M17.5569 24.344C17.6937 24.344 17.8125 24.316 17.9133 24.26C18.0141 24.2045 18.0969 24.131 18.1617 24.04C18.2265 23.9485 18.2739 23.8458 18.3045 23.7326C18.3351 23.6189 18.3507 23.5028 18.3507 23.3838C18.3507 23.2677 18.3351 23.1522 18.3045 23.0373C18.2739 22.9218 18.2265 22.8191 18.1617 22.7293C18.0969 22.6406 18.0141 22.5677 17.9133 22.5117C17.8125 22.4563 17.6937 22.4277 17.5569 22.4277C17.4195 22.4277 17.3013 22.4563 17.2005 22.5117C17.0997 22.5677 17.0169 22.6406 16.9521 22.7293C16.8873 22.8191 16.8399 22.9218 16.8087 23.0373C16.7781 23.1522 16.7631 23.2677 16.7631 23.3838C16.7631 23.5028 16.7781 23.6189 16.8087 23.7326C16.8399 23.8458 16.8873 23.9485 16.9521 24.04C17.0169 24.131 17.0997 24.2045 17.2005 24.26C17.3013 24.316 17.4195 24.344 17.5569 24.344ZM17.5569 24.817C17.3337 24.817 17.1345 24.7809 16.9605 24.7091C16.7853 24.6374 16.6383 24.5382 16.5177 24.4122C16.3965 24.2862 16.3047 24.1363 16.2423 23.9613C16.1787 23.7857 16.1475 23.5932 16.1475 23.3838C16.1475 23.1767 16.1787 22.9865 16.2423 22.811C16.3047 22.636 16.3965 22.4855 16.5177 22.36C16.6383 22.234 16.7853 22.1349 16.9605 22.0631C17.1345 21.9914 17.3337 21.9552 17.5569 21.9552C17.7801 21.9552 17.9787 21.9914 18.1533 22.0631C18.3279 22.1349 18.4755 22.234 18.5961 22.36C18.7173 22.4855 18.8085 22.636 18.8715 22.811C18.9345 22.9865 18.9663 23.1767 18.9663 23.3838C18.9663 23.5932 18.9345 23.7857 18.8715 23.9613C18.8085 24.1363 18.7173 24.2862 18.5961 24.4122C18.4755 24.5382 18.3279 24.6374 18.1533 24.7091C17.9787 24.7809 17.7801 24.817 17.5569 24.817Z" fill="#FFB400"/>
<path fill-rule="evenodd" clip-rule="evenodd" d="M14.397 16.224C13.674 16.224 13.194 15.93 13.194 15.7358C13.194 15.5415 13.674 15.2475 14.397 15.2475C15.12 15.2475 15.6 15.5415 15.6 15.7358C15.6 15.93 15.12 16.224 14.397 16.224ZM9.60302 17.4718C8.88002 17.4718 8.40002 17.1778 8.40002 16.9835C8.40002 16.7893 8.88002 16.4953 9.60302 16.4953C10.326 16.4953 10.806 16.7893 10.806 16.9835C10.806 17.1778 10.326 17.4718 9.60302 17.4718ZM16.0908 10.5388C16.0224 10.4828 15.933 10.4601 15.843 10.4764L11.049 11.5958C10.908 11.6227 10.806 11.7428 10.806 11.8828V16.1779C10.4904 16.0134 10.0764 15.9119 9.60302 15.9119C8.57522 15.9119 7.80002 16.3728 7.80002 16.9835C7.80002 17.5948 8.57522 18.0551 9.60302 18.0551C10.6308 18.0551 11.406 17.5948 11.406 16.9835V12.1238L15.6 11.1163V14.9302C15.2844 14.7651 14.8704 14.6642 14.397 14.6642C13.3692 14.6642 12.594 15.1244 12.594 15.7358C12.594 16.3465 13.3692 16.8073 14.397 16.8073C15.4248 16.8073 16.2 16.3465 16.2 15.7358V10.7634C16.2 10.6765 16.1598 10.5943 16.0908 10.5388Z" fill="#FFB400"/>
</svg>
