<svg width="24" height="28" viewBox="0 0 24 28" fill="none" xmlns="http://www.w3.org/2000/svg">
<path fill-rule="evenodd" clip-rule="evenodd" d="M2.24972 27.8542C1.09172 27.8542 0.149719 26.9279 0.149719 25.7892V2.21031C0.149719 1.07222 1.09172 0.145889 2.24972 0.145889H16.4997C16.6611 0.145889 16.8111 0.206556 16.9227 0.317973L23.6733 6.94989C23.7873 7.06189 23.8497 7.21064 23.8497 7.36872V25.7892C23.8497 26.9279 22.9077 27.8542 21.7497 27.8542H2.24972Z" fill="white"/>
<path fill-rule="evenodd" clip-rule="evenodd" d="M16.4996 9.15527e-05H2.24957C1.00937 9.15527e-05 -0.000427246 0.991175 -0.000427246 2.21034V25.7898C-0.000427246 27.0084 1.00937 28.0001 2.24957 28.0001H21.7496C22.9904 28.0001 23.9996 27.0084 23.9996 25.7898V7.36876C23.9996 7.17276 23.9204 6.98609 23.78 6.84726L17.03 0.215925C16.889 0.0765082 16.6988 9.15527e-05 16.4996 9.15527e-05ZM16.4997 0.29172C16.6203 0.29172 16.7325 0.33722 16.8165 0.42122L23.5665 7.05255C23.6529 7.13655 23.6997 7.24914 23.6997 7.36872V25.7898C23.6997 26.8474 22.8249 27.7084 21.7497 27.7084H2.24974C1.17454 27.7084 0.299744 26.8474 0.299744 25.7898V2.2103C0.299744 1.15272 1.17454 0.29172 2.24974 0.29172H16.4997Z" fill="#EBECEF"/>
<path fill-rule="evenodd" clip-rule="evenodd" d="M23.9998 7.36861C23.9998 7.17261 23.9206 6.98594 23.7802 6.84711L17.0302 0.215772C16.8892 0.0763556 16.699 -6.10352e-05 16.4998 -6.10352e-05H16.012V5.63727C16.012 6.85585 17.0212 7.84752 18.262 7.84752H23.9998V7.36861Z" fill="#EBECEF"/>
<path fill-rule="evenodd" clip-rule="evenodd" d="M16.4998 11.0549H7.49977C7.33417 11.0549 7.19977 10.9243 7.19977 10.7633C7.19977 10.6023 7.33417 10.4716 7.49977 10.4716H16.4998C16.6654 10.4716 16.7998 10.6023 16.7998 10.7633C16.7998 10.9243 16.6654 11.0549 16.4998 11.0549Z" fill="#999999"/>
<path fill-rule="evenodd" clip-rule="evenodd" d="M16.4998 12.8049H7.49977C7.33417 12.8049 7.19977 12.6743 7.19977 12.5133C7.19977 12.3523 7.33417 12.2216 7.49977 12.2216H16.4998C16.6654 12.2216 16.7998 12.3523 16.7998 12.5133C16.7998 12.6743 16.6654 12.8049 16.4998 12.8049Z" fill="#999999"/>
<path fill-rule="evenodd" clip-rule="evenodd" d="M16.4998 14.5549H7.49977C7.33417 14.5549 7.19977 14.4243 7.19977 14.2633C7.19977 14.1023 7.33417 13.9716 7.49977 13.9716H16.4998C16.6654 13.9716 16.7998 14.1023 16.7998 14.2633C16.7998 14.4243 16.6654 14.5549 16.4998 14.5549Z" fill="#999999"/>
<path fill-rule="evenodd" clip-rule="evenodd" d="M13.4998 16.3049H7.49977C7.33417 16.3049 7.19977 16.1743 7.19977 16.0133C7.19977 15.8523 7.33417 15.7216 7.49977 15.7216H13.4998C13.6654 15.7216 13.7998 15.8523 13.7998 16.0133C13.7998 16.1743 13.6654 16.3049 13.4998 16.3049Z" fill="#999999"/>
<path fill-rule="evenodd" clip-rule="evenodd" d="M13.4998 18.0549H7.49977C7.33417 18.0549 7.19977 17.9243 7.19977 17.7633C7.19977 17.6023 7.33417 17.4716 7.49977 17.4716H13.4998C13.6654 17.4716 13.7998 17.6023 13.7998 17.7633C13.7998 17.9243 13.6654 18.0549 13.4998 18.0549Z" fill="#999999"/>
</svg>
