<svg width="24" height="28" viewBox="0 0 24 28" fill="none" xmlns="http://www.w3.org/2000/svg">
<path fill-rule="evenodd" clip-rule="evenodd" d="M2.25018 27.8542C1.09218 27.8542 0.150177 26.9279 0.150177 25.7892V2.21032C0.150177 1.07224 1.09218 0.145905 2.25018 0.145905H16.5002C16.661 0.145905 16.8116 0.206571 16.9232 0.318571L23.6738 6.9499C23.7878 7.0619 23.8502 7.21066 23.8502 7.36874V25.7892C23.8502 26.9279 22.9082 27.8542 21.7502 27.8542H2.25018Z" fill="white"/>
<mask id="mask0" mask-type="alpha" maskUnits="userSpaceOnUse" x="0" y="0" width="25" height="28">
<path fill-rule="evenodd" clip-rule="evenodd" d="M0.000305176 9.15527e-05H24.0001V28H0.000305176V9.15527e-05Z" fill="white"/>
</mask>
<g mask="url(#mask0)">
<path fill-rule="evenodd" clip-rule="evenodd" d="M16.5003 9.15527e-05H2.2503C1.00951 9.15527e-05 0.000305176 0.991175 0.000305176 2.21034V25.7898C0.000305176 27.0084 1.00951 28.0001 2.2503 28.0001H21.7503C22.9905 28.0001 24.0003 27.0084 24.0003 25.7898V7.36876C24.0003 7.17276 23.9211 6.98609 23.7807 6.84726L17.0307 0.215925C16.8897 0.0765082 16.6995 9.15527e-05 16.5003 9.15527e-05ZM16.5002 0.29172C16.6202 0.29172 16.733 0.33722 16.817 0.42122L23.567 7.05255C23.6528 7.13655 23.7002 7.24914 23.7002 7.36872V25.7898C23.7002 26.8474 22.8254 27.7084 21.7502 27.7084H2.25018C1.17498 27.7084 0.300183 26.8474 0.300183 25.7898V2.2103C0.300183 1.15272 1.17498 0.29172 2.25018 0.29172H16.5002Z" fill="#EBECEF"/>
</g>
<mask id="mask1" mask-type="alpha" maskUnits="userSpaceOnUse" x="16" y="0" width="8" height="8">
<path fill-rule="evenodd" clip-rule="evenodd" d="M16.0124 0H24V7.84758H16.0124V0Z" fill="white"/>
</mask>
<g mask="url(#mask1)">
<path fill-rule="evenodd" clip-rule="evenodd" d="M24.0002 7.36867C24.0002 7.17267 23.9204 6.986 23.7806 6.84717L17.0306 0.215833C16.889 0.0764167 16.6994 0 16.5002 0H16.0124V5.63733C16.0124 6.85592 17.021 7.84758 18.2624 7.84758H24.0002V7.36867Z" fill="#EBECEF"/>
</g>
<path fill-rule="evenodd" clip-rule="evenodd" d="M7.8002 16.0901C7.808 16.0831 7.817 16.0796 7.8242 16.072L9.9194 13.7708L13.286 17.4715H7.8002V16.0901ZM14.0864 17.4715L10.1438 13.1373C10.0874 13.0749 10.0058 13.0393 9.9194 13.0393C9.8336 13.0393 9.752 13.0749 9.6944 13.1373L7.8002 15.2192V11.0548H16.2002V17.4715H14.0864ZM16.5002 10.4715H7.5002C7.3346 10.4715 7.2002 10.6021 7.2002 10.7631V17.7631C7.2002 17.9247 7.3346 18.0548 7.5002 18.0548H16.5002C16.6658 18.0548 16.8002 17.9247 16.8002 17.7631V10.7631C16.8002 10.6021 16.6658 10.4715 16.5002 10.4715Z" fill="#999999"/>
<path fill-rule="evenodd" clip-rule="evenodd" d="M13.7527 13.95C13.4221 13.95 13.1527 13.6886 13.1527 13.3666C13.1527 13.0446 13.4221 12.7833 13.7527 12.7833C14.0839 12.7833 14.3527 13.0446 14.3527 13.3666C14.3527 13.6886 14.0839 13.95 13.7527 13.95ZM13.7527 12.2C13.0909 12.2 12.5527 12.7232 12.5527 13.3666C12.5527 14.01 13.0909 14.5333 13.7527 14.5333C14.4151 14.5333 14.9527 14.01 14.9527 13.3666C14.9527 12.7232 14.4151 12.2 13.7527 12.2Z" fill="#999999"/>
<path d="M7.79999 20.4167H8.40365V20.9651H7.79999V20.4167ZM7.79999 21.417H8.40365V24.0423H7.79999V21.417Z" fill="#999999"/>
<path d="M9.06137 21.417H9.63326V21.7826H9.64915C9.69504 21.7183 9.74446 21.6591 9.79741 21.6049C9.85037 21.5507 9.90861 21.505 9.97216 21.4678C10.0392 21.4306 10.1151 21.4018 10.1999 21.3815C10.2846 21.3578 10.3817 21.3459 10.4911 21.3459C10.657 21.3459 10.8106 21.3815 10.9518 21.4526C11.0965 21.5237 11.1989 21.6337 11.2589 21.7826C11.3613 21.6472 11.4795 21.5406 11.6137 21.4627C11.7478 21.3849 11.9155 21.3459 12.1167 21.3459C12.4062 21.3459 12.6304 21.4136 12.7892 21.549C12.9516 21.6845 13.0328 21.9113 13.0328 22.2295V24.0423H12.4292V22.5088C12.4292 22.4038 12.4256 22.3091 12.4186 22.2244C12.4115 22.1364 12.3903 22.0619 12.355 22.001C12.3232 21.9367 12.2738 21.8876 12.2068 21.8537C12.1397 21.8199 12.0479 21.8029 11.9314 21.8029C11.7266 21.8029 11.5784 21.8639 11.4866 21.9858C11.3948 22.1076 11.3489 22.2803 11.3489 22.5037V24.0423H10.7453V22.3564C10.7453 22.1736 10.71 22.0365 10.6394 21.9451C10.5723 21.8503 10.447 21.8029 10.2634 21.8029C10.1857 21.8029 10.1098 21.8182 10.0357 21.8486C9.9651 21.8791 9.90155 21.9231 9.84507 21.9807C9.79212 22.0382 9.74799 22.1093 9.71269 22.1939C9.68092 22.2786 9.66503 22.3751 9.66503 22.4834V24.0423H9.06137V21.417Z" fill="#999999"/>
<path d="M16.2 23.9052C16.2 24.3013 16.0835 24.5958 15.8505 24.7888C15.621 24.9851 15.2892 25.0833 14.855 25.0833C14.7173 25.0833 14.5779 25.0698 14.4367 25.0427C14.299 25.0156 14.1719 24.9699 14.0554 24.9056C13.9424 24.8413 13.8471 24.7566 13.7695 24.6517C13.6918 24.5467 13.6459 24.4181 13.6318 24.2658H14.2355C14.2531 24.347 14.2831 24.413 14.3255 24.4638C14.3678 24.5146 14.4173 24.5535 14.4737 24.5806C14.5338 24.6111 14.5991 24.6297 14.6697 24.6365C14.7403 24.6466 14.8144 24.6517 14.8921 24.6517C15.1356 24.6517 15.3139 24.5941 15.4269 24.479C15.5398 24.3639 15.5963 24.1981 15.5963 23.9814V23.5802H15.5857C15.501 23.7258 15.3845 23.8392 15.2363 23.9205C15.0915 24.0017 14.9344 24.0423 14.765 24.0423C14.5461 24.0423 14.359 24.0068 14.2037 23.9357C14.0519 23.8612 13.9248 23.7614 13.8224 23.6361C13.7236 23.5075 13.6512 23.3602 13.6053 23.1943C13.5594 23.0284 13.5365 22.8507 13.5365 22.6611C13.5365 22.4851 13.5647 22.3175 13.6212 22.1584C13.6777 21.9993 13.7589 21.8605 13.8648 21.742C13.9707 21.6201 14.0995 21.5237 14.2513 21.4526C14.4067 21.3815 14.5814 21.3459 14.7756 21.3459C14.9485 21.3459 15.1074 21.3815 15.2521 21.4526C15.3969 21.5203 15.5081 21.6286 15.5857 21.7776H15.5963V21.417H16.2V23.9052ZM14.8603 23.5853C14.9944 23.5853 15.1074 23.5599 15.1992 23.5091C15.2945 23.455 15.3704 23.3856 15.4269 23.3009C15.4869 23.2129 15.5293 23.1148 15.554 23.0064C15.5822 22.8947 15.5963 22.783 15.5963 22.6713C15.5963 22.5596 15.5822 22.4512 15.554 22.3463C15.5257 22.2413 15.4816 22.1482 15.4216 22.067C15.3651 21.9858 15.2892 21.9214 15.1939 21.874C15.1021 21.8266 14.9909 21.8029 14.8603 21.8029C14.7261 21.8029 14.6132 21.83 14.5214 21.8842C14.4296 21.9384 14.3555 22.0094 14.299 22.0975C14.2425 22.1821 14.2019 22.2803 14.1772 22.392C14.1525 22.5003 14.1401 22.6087 14.1401 22.717C14.1401 22.8253 14.1543 22.9319 14.1825 23.0369C14.2107 23.1385 14.2531 23.2299 14.3096 23.3111C14.3696 23.3924 14.4437 23.4584 14.532 23.5091C14.6238 23.5599 14.7332 23.5853 14.8603 23.5853Z" fill="#999999"/>
</svg>
