<svg width="24" height="28" viewBox="0 0 24 28" fill="none" xmlns="http://www.w3.org/2000/svg">
<path fill-rule="evenodd" clip-rule="evenodd" d="M2.24999 27.8542C1.09199 27.8542 0.149994 26.9279 0.149994 25.7892V2.21029C0.149994 1.07221 1.09199 0.145874 2.24999 0.145874H16.5C16.6614 0.145874 16.8114 0.206541 16.923 0.317957L23.6736 6.94987C23.7876 7.06187 23.85 7.21062 23.85 7.36871V25.7892C23.85 26.9279 22.908 27.8542 21.75 27.8542H2.24999Z" fill="white"/>
<mask id="mask0" mask-type="alpha" maskUnits="userSpaceOnUse" x="0" y="0" width="24" height="28">
<path fill-rule="evenodd" clip-rule="evenodd" d="M0 0.00012207H24V28.0001H0V0.00012207Z" fill="white"/>
</mask>
<g mask="url(#mask0)">
<path fill-rule="evenodd" clip-rule="evenodd" d="M16.5 0.00012207H2.25C1.0092 0.00012207 0 0.991205 0 2.21037V25.7899C0 27.0085 1.0092 28.0001 2.25 28.0001H21.75C22.9902 28.0001 24 27.0085 24 25.7899V7.36879C24 7.17279 23.9208 6.98612 23.7804 6.84729L17.0304 0.215955C16.8894 0.0765387 16.6992 0.00012207 16.5 0.00012207ZM16.5 0.291738C16.6206 0.291738 16.7328 0.337238 16.8168 0.421238L23.5668 7.05257C23.6532 7.13657 23.7 7.24915 23.7 7.36874V25.7898C23.7 26.8474 22.8252 27.7084 21.75 27.7084H2.25C1.1748 27.7084 0.3 26.8474 0.3 25.7898V2.21032C0.3 1.15274 1.1748 0.291738 2.25 0.291738H16.5Z" fill="#EBECEF"/>
</g>
<path fill-rule="evenodd" clip-rule="evenodd" d="M23.9999 7.36861C23.9999 7.17261 23.9207 6.98594 23.7803 6.84711L17.0303 0.215772C16.8893 0.0763556 16.6991 -6.10352e-05 16.4999 -6.10352e-05H16.0121V5.63727C16.0121 6.85586 17.0213 7.84752 18.2621 7.84752H23.9999V7.36861Z" fill="#EBECEF"/>
<path d="M6.60001 21.9499H7.20976V22.3352H7.2267C7.27563 22.2675 7.32833 22.205 7.38479 22.1479C7.44125 22.0909 7.50335 22.0427 7.5711 22.0034C7.64262 21.9642 7.72354 21.9339 7.81388 21.9125C7.90421 21.8875 8.00772 21.875 8.1244 21.875C8.30131 21.875 8.46504 21.9125 8.61559 21.9874C8.76992 22.0623 8.87907 22.1783 8.94306 22.3352C9.05221 22.1925 9.1783 22.0801 9.32133 21.9981C9.46436 21.916 9.64315 21.875 9.85769 21.875C10.1663 21.875 10.4053 21.9464 10.5747 22.0891C10.7479 22.2318 10.8344 22.4708 10.8344 22.8062V24.7167H10.1908V23.1005C10.1908 22.9899 10.187 22.89 10.1795 22.8008C10.172 22.7081 10.1494 22.6296 10.1118 22.5654C10.0779 22.4976 10.0252 22.4458 9.95367 22.4102C9.88216 22.3745 9.7843 22.3567 9.66009 22.3567C9.44178 22.3567 9.28369 22.4209 9.18583 22.5493C9.08797 22.6778 9.03904 22.8597 9.03904 23.0952V24.7167H8.3954V22.94C8.3954 22.7473 8.35776 22.6028 8.28249 22.5065C8.21097 22.4066 8.07735 22.3567 7.88163 22.3567C7.79882 22.3567 7.7179 22.3727 7.63885 22.4048C7.56357 22.4369 7.49582 22.4833 7.4356 22.544C7.37914 22.6046 7.33209 22.6795 7.29445 22.7687C7.26058 22.8579 7.24364 22.9596 7.24364 23.0738V24.7167H6.60001V21.9499Z" fill="#5856D6"/>
<path d="M12.8507 24.7917C12.6173 24.7917 12.4084 24.756 12.224 24.6846C12.0433 24.6097 11.889 24.508 11.761 24.3796C11.6368 24.2511 11.5408 24.0977 11.4731 23.9193C11.4091 23.741 11.3771 23.5447 11.3771 23.3307C11.3771 23.1202 11.4091 22.9257 11.4731 22.7473C11.5408 22.5689 11.6368 22.4155 11.761 22.2871C11.889 22.1586 12.0433 22.0587 12.224 21.9874C12.4084 21.9125 12.6173 21.875 12.8507 21.875C13.084 21.875 13.2911 21.9125 13.4717 21.9874C13.6562 22.0587 13.8105 22.1586 13.9347 22.2871C14.0627 22.4155 14.1587 22.5689 14.2226 22.7473C14.2904 22.9257 14.3243 23.1202 14.3243 23.3307C14.3243 23.5447 14.2904 23.741 14.2226 23.9193C14.1587 24.0977 14.0627 24.2511 13.9347 24.3796C13.8105 24.508 13.6562 24.6097 13.4717 24.6846C13.2911 24.756 13.084 24.7917 12.8507 24.7917ZM12.8507 24.31C12.9937 24.31 13.1179 24.2815 13.2233 24.2244C13.3287 24.1673 13.4153 24.0924 13.483 23.9996C13.5508 23.9069 13.5997 23.8034 13.6298 23.6892C13.6637 23.5715 13.6806 23.452 13.6806 23.3307C13.6806 23.2129 13.6637 23.0952 13.6298 22.9774C13.5997 22.8597 13.5508 22.7562 13.483 22.667C13.4153 22.5743 13.3287 22.4994 13.2233 22.4423C13.1179 22.3852 12.9937 22.3567 12.8507 22.3567C12.7077 22.3567 12.5834 22.3852 12.4781 22.4423C12.3727 22.4994 12.2861 22.5743 12.2183 22.667C12.1506 22.7562 12.0998 22.8597 12.0659 22.9774C12.0358 23.0952 12.0207 23.2129 12.0207 23.3307C12.0207 23.452 12.0358 23.5715 12.0659 23.6892C12.0998 23.8034 12.1506 23.9069 12.2183 23.9996C12.2861 24.0924 12.3727 24.1673 12.4781 24.2244C12.5834 24.2815 12.7077 24.31 12.8507 24.31Z" fill="#5856D6"/>
<path d="M14.5714 21.9499H15.2715L16.0111 24.0745H16.0224L16.7338 21.9499H17.4L16.3555 24.7167H15.6328L14.5714 21.9499Z" fill="#5856D6"/>
<path d="M16.7813 11.6666C16.6688 11.6666 16.5563 11.7031 16.4438 11.776L14.4 13.0521V11.9583C14.4 11.4844 13.95 11.0833 13.425 11.0833H7.55626C7.03126 11.0833 6.60001 11.4844 6.60001 11.9583V17.2265C6.60001 17.7005 7.03126 18.0833 7.55626 18.0833H13.425C13.95 18.0833 14.4 17.7005 14.4 17.2265V16.1328L16.4438 17.4088C16.5563 17.4817 16.6688 17.5 16.7813 17.5C17.1 17.5 17.3813 17.263 17.3813 16.9349V12.25C17.4 11.9036 17.1 11.6666 16.7813 11.6666ZM13.8 17.2265C13.8 17.3724 13.6125 17.5 13.425 17.5H7.55626C7.36876 17.5 7.20001 17.3724 7.20001 17.2265V11.9583C7.20001 11.8125 7.36876 11.6666 7.55626 11.6666H13.425C13.6125 11.6666 13.8 11.8125 13.8 11.9583V17.2265ZM16.8 16.9349L16.7625 16.9166L14.4 15.4401V13.7448L16.8 12.25V16.9349Z" fill="#5856D6"/>
</svg>
