<svg width="24" height="28" viewBox="0 0 24 28" fill="none" xmlns="http://www.w3.org/2000/svg">
<path fill-rule="evenodd" clip-rule="evenodd" d="M2.24999 27.8542C1.09199 27.8542 0.149994 26.9279 0.149994 25.7892V2.21029C0.149994 1.07221 1.09199 0.145874 2.24999 0.145874H16.5C16.6614 0.145874 16.8114 0.206541 16.923 0.317957L23.6736 6.94987C23.7876 7.06187 23.85 7.21062 23.85 7.36871V25.7892C23.85 26.9279 22.908 27.8542 21.75 27.8542H2.24999Z" fill="white"/>
<mask id="mask0" mask-type="alpha" maskUnits="userSpaceOnUse" x="0" y="0" width="24" height="28">
<path fill-rule="evenodd" clip-rule="evenodd" d="M0 0.00012207H24V28.0001H0V0.00012207Z" fill="white"/>
</mask>
<g mask="url(#mask0)">
<path fill-rule="evenodd" clip-rule="evenodd" d="M16.5 0.00012207H2.25C1.0092 0.00012207 0 0.991205 0 2.21037V25.7899C0 27.0085 1.0092 28.0001 2.25 28.0001H21.75C22.9902 28.0001 24 27.0085 24 25.7899V7.36879C24 7.17279 23.9208 6.98612 23.7804 6.84729L17.0304 0.215955C16.8894 0.0765387 16.6992 0.00012207 16.5 0.00012207ZM16.5 0.291738C16.6206 0.291738 16.7328 0.337238 16.8168 0.421238L23.5668 7.05257C23.6532 7.13657 23.7 7.24915 23.7 7.36874V25.7898C23.7 26.8474 22.8252 27.7084 21.75 27.7084H2.25C1.1748 27.7084 0.3 26.8474 0.3 25.7898V2.21032C0.3 1.15274 1.1748 0.291738 2.25 0.291738H16.5Z" fill="#EBECEF"/>
</g>
<path fill-rule="evenodd" clip-rule="evenodd" d="M23.9999 7.36861C23.9999 7.17261 23.9207 6.98594 23.7803 6.84711L17.0303 0.215772C16.8893 0.0763556 16.6991 -6.10352e-05 16.4999 -6.10352e-05H16.0121V5.63727C16.0121 6.85586 17.0213 7.84752 18.2621 7.84752H23.9999V7.36861Z" fill="#EBECEF"/>
<path d="M6.60001 21.6977H7.20059V22.087H7.21727C7.26547 22.0185 7.31737 21.9554 7.37298 21.8977C7.42859 21.8401 7.48976 21.7914 7.55649 21.7518C7.62693 21.7121 7.70664 21.6815 7.79562 21.6599C7.88459 21.6346 7.98654 21.622 8.10147 21.622C8.27571 21.622 8.43698 21.6599 8.58527 21.7355C8.73727 21.8112 8.84479 21.9284 8.90781 22.087C9.01532 21.9428 9.13952 21.8293 9.2804 21.7464C9.42127 21.6635 9.59737 21.622 9.80869 21.622C10.1127 21.622 10.3481 21.6941 10.5149 21.8383C10.6855 21.9824 10.7707 22.2239 10.7707 22.5627V24.4929H10.1368V22.8601C10.1368 22.7484 10.1331 22.6474 10.1257 22.5573C10.1183 22.4636 10.096 22.3843 10.0589 22.3195C10.0256 22.251 9.97366 22.1987 9.90323 22.1627C9.83279 22.1266 9.7364 22.1086 9.61406 22.1086C9.39903 22.1086 9.24332 22.1735 9.14693 22.3032C9.05054 22.433 9.00235 22.6168 9.00235 22.8547V24.4929H8.3684V22.6979C8.3684 22.5033 8.33132 22.3573 8.25718 22.26C8.18674 22.1591 8.05513 22.1086 7.86235 22.1086C7.78079 22.1086 7.70108 22.1248 7.62323 22.1573C7.54908 22.1897 7.48235 22.2366 7.42303 22.2978C7.36742 22.3591 7.32108 22.4348 7.28401 22.5249C7.25064 22.615 7.23396 22.7177 7.23396 22.8331V24.4929H6.60001V21.6977Z" fill="#5856D6"/>
<path d="M11.4554 21.6977H12.056V22.0762H12.0671C12.1561 21.914 12.2803 21.7986 12.4397 21.7301C12.5991 21.6581 12.7715 21.622 12.9569 21.622C13.183 21.622 13.3795 21.6617 13.5463 21.741C13.7169 21.8166 13.8577 21.923 13.969 22.0599C14.0802 22.1933 14.1636 22.3501 14.2192 22.5303C14.2748 22.7105 14.3026 22.9034 14.3026 23.1088C14.3026 23.2962 14.2767 23.4782 14.2248 23.6549C14.1766 23.8315 14.1006 23.9883 13.9968 24.1252C13.8967 24.2586 13.7688 24.3667 13.613 24.4496C13.4573 24.5289 13.2738 24.5686 13.0625 24.5686C12.9698 24.5686 12.8771 24.5595 12.7845 24.5415C12.6918 24.5271 12.6028 24.5019 12.5175 24.4658C12.4323 24.4298 12.3526 24.3847 12.2784 24.3307C12.208 24.273 12.1487 24.2063 12.1005 24.1306H12.0893V25.5255H11.4554V21.6977ZM13.6687 23.098C13.6687 22.9718 13.652 22.8493 13.6186 22.7303C13.5852 22.6114 13.5352 22.5069 13.4685 22.4168C13.4017 22.3231 13.3183 22.2492 13.2182 22.1951C13.1181 22.1374 13.0032 22.1086 12.8734 22.1086C12.6065 22.1086 12.4045 22.1987 12.2673 22.3789C12.1338 22.5591 12.0671 22.7988 12.0671 23.098C12.0671 23.2386 12.0838 23.3701 12.1171 23.4927C12.1542 23.6116 12.208 23.7143 12.2784 23.8008C12.3489 23.8873 12.4323 23.9558 12.5287 24.0063C12.6288 24.0567 12.7437 24.082 12.8734 24.082C13.018 24.082 13.1404 24.0531 13.2405 23.9955C13.3406 23.9378 13.4221 23.8639 13.4851 23.7738C13.5519 23.6801 13.5982 23.5756 13.6242 23.4602C13.6538 23.3413 13.6687 23.2205 13.6687 23.098Z" fill="#5856D6"/>
<path d="M15.1275 23.1088H16.3064V21.4436H16.2953L15.1275 23.1088ZM17.4075 23.5954H16.907V24.4929H16.3064V23.5954H14.6381V22.9845L16.3064 20.7083H16.907V23.1088H17.4075V23.5954Z" fill="#5856D6"/>
<path d="M16.7813 11.6666C16.6688 11.6666 16.5563 11.7031 16.4438 11.776L14.4 13.0521V11.9583C14.4 11.4844 13.95 11.0833 13.425 11.0833H7.55626C7.03126 11.0833 6.60001 11.4844 6.60001 11.9583V17.2265C6.60001 17.7005 7.03126 18.0833 7.55626 18.0833H13.425C13.95 18.0833 14.4 17.7005 14.4 17.2265V16.1328L16.4438 17.4088C16.5563 17.4817 16.6688 17.5 16.7813 17.5C17.1 17.5 17.3813 17.263 17.3813 16.9349V12.25C17.4 11.9036 17.1 11.6666 16.7813 11.6666ZM13.8 17.2265C13.8 17.3724 13.6125 17.5 13.425 17.5H7.55626C7.36876 17.5 7.20001 17.3724 7.20001 17.2265V11.9583C7.20001 11.8125 7.36876 11.6666 7.55626 11.6666H13.425C13.6125 11.6666 13.8 11.8125 13.8 11.9583V17.2265ZM16.8 16.9349L16.7625 16.9166L14.4 15.4401V13.7448L16.8 12.25V16.9349Z" fill="#5856D6"/>
</svg>
