<svg width="24" height="28" viewBox="0 0 24 28" fill="none" xmlns="http://www.w3.org/2000/svg">
<path fill-rule="evenodd" clip-rule="evenodd" d="M2.25012 27.8542C1.09212 27.8542 0.150116 26.9279 0.150116 25.7892V2.21031C0.150116 1.07222 1.09212 0.145891 2.25012 0.145891H16.5001C16.6609 0.145891 16.8115 0.206558 16.9237 0.317975L23.6737 6.94989C23.7877 7.06189 23.8501 7.21064 23.8501 7.36872V25.7892C23.8501 26.9279 22.9081 27.8542 21.7501 27.8542H2.25012Z" fill="white"/>
<path fill-rule="evenodd" clip-rule="evenodd" d="M16.5002 0.000100136H2.25021C1.00941 0.000100136 0.000213623 0.991184 0.000213623 2.21035V25.7898C0.000213623 27.0084 1.00941 28.0001 2.25021 28.0001H21.7502C22.9904 28.0001 24.0002 27.0084 24.0002 25.7898V7.36877C24.0002 7.17277 23.921 6.9861 23.7806 6.84727L17.0306 0.215933C16.8896 0.0765168 16.6994 0.000100136 16.5002 0.000100136ZM16.5001 0.291725C16.6207 0.291725 16.7329 0.337225 16.8169 0.421225L23.5669 7.05256C23.6527 7.13656 23.7001 7.24914 23.7001 7.36872V25.7898C23.7001 26.8474 22.8253 27.7084 21.7501 27.7084H2.25013C1.17493 27.7084 0.300128 26.8474 0.300128 25.7898V2.21031C0.300128 1.15273 1.17493 0.291725 2.25013 0.291725H16.5001Z" fill="#EBECEF"/>
<path fill-rule="evenodd" clip-rule="evenodd" d="M24.0001 7.36861C24.0001 7.17261 23.9209 6.98594 23.7805 6.84711L17.0305 0.215775C16.8895 0.0763585 16.6993 -5.81741e-05 16.5001 -5.81741e-05H16.0123V5.63727C16.0123 6.85586 17.0215 7.84753 18.2623 7.84753H24.0001V7.36861Z" fill="#EBECEF"/>
<path fill-rule="evenodd" clip-rule="evenodd" d="M10.1143 23.3886C10.1143 23.2661 10.0981 23.1471 10.0657 23.0316C10.0333 22.9161 9.98466 22.814 9.91986 22.7242C9.85506 22.6355 9.77406 22.5638 9.67686 22.509C9.57966 22.4547 9.46806 22.4279 9.34206 22.4279C9.08286 22.4279 8.88786 22.5154 8.75646 22.6904C8.62506 22.866 8.55906 23.0981 8.55906 23.3886C8.55906 23.5251 8.57646 23.6517 8.61066 23.769C8.64426 23.8868 8.69586 23.9871 8.76426 24.0711C8.83266 24.1551 8.91426 24.2216 9.01026 24.2706C9.10506 24.3196 9.21606 24.3441 9.34206 24.3441C9.48246 24.3441 9.60126 24.3161 9.69846 24.2601C9.79566 24.2041 9.87606 24.1312 9.93906 24.042C10.0021 23.9533 10.0471 23.8518 10.0741 23.738C10.1011 23.6237 10.1143 23.5076 10.1143 23.3886ZM7.96506 22.0289H8.54826V22.3964H8.55906C8.64546 22.2389 8.76606 22.1263 8.92086 22.058C9.07566 21.9898 9.24306 21.9554 9.42306 21.9554C9.64266 21.9554 9.83466 21.9927 9.99846 22.068C10.1623 22.1432 10.2979 22.247 10.4059 22.3783C10.5139 22.509 10.5949 22.6624 10.6489 22.8374C10.7029 23.0124 10.7299 23.1996 10.7299 23.3991C10.7299 23.5811 10.7053 23.7579 10.6573 23.9294C10.6087 24.1009 10.5349 24.252 10.4359 24.3832C10.3369 24.515 10.2115 24.6195 10.0603 24.6982C9.90906 24.7775 9.73086 24.8166 9.52566 24.8166C9.43566 24.8166 9.34566 24.809 9.25566 24.7927C9.16566 24.7775 9.07926 24.7519 8.99646 24.7169C8.91366 24.6819 8.83746 24.6375 8.76666 24.5833C8.69706 24.5285 8.63826 24.4649 8.59146 24.3914H8.58066V25.7459H7.96506V22.0289Z" fill="#F02B04"/>
<path fill-rule="evenodd" clip-rule="evenodd" d="M11.8639 23.4149C11.8639 23.5304 11.8789 23.6447 11.9101 23.7561C11.9401 23.8681 11.9875 23.9679 12.0505 24.0554C12.1135 24.1429 12.1933 24.2129 12.2905 24.2654C12.3877 24.3179 12.5029 24.3441 12.6361 24.3441C12.7729 24.3441 12.8905 24.3161 12.9895 24.2601C13.0891 24.2047 13.1701 24.1312 13.2331 24.0396C13.2961 23.9486 13.3429 23.846 13.3735 23.7328C13.4035 23.619 13.4191 23.5024 13.4191 23.3834C13.4191 23.0824 13.3501 22.8479 13.2115 22.6799C13.0729 22.5119 12.8845 22.4279 12.6469 22.4279C12.5029 22.4279 12.3817 22.4565 12.2827 22.5148C12.1837 22.5725 12.1021 22.6478 12.0391 22.7405C11.9761 22.8333 11.9317 22.9383 11.9047 23.0555C11.8771 23.1728 11.8639 23.2924 11.8639 23.4149ZM14.0131 24.7431H13.4299V24.3756H13.4191C13.3363 24.5331 13.2157 24.6457 13.0573 24.7145C12.8989 24.7828 12.7315 24.8166 12.5551 24.8166C12.3355 24.8166 12.1441 24.7793 11.9803 24.704C11.8159 24.6288 11.6803 24.5261 11.5723 24.3966C11.4643 24.2671 11.3833 24.1137 11.3293 23.9375C11.2753 23.7608 11.2483 23.5712 11.2483 23.3676C11.2483 23.1226 11.2825 22.9109 11.3509 22.7324C11.4193 22.5539 11.5105 22.4069 11.6239 22.2914C11.7373 22.1759 11.8669 22.0907 12.0127 22.037C12.1585 21.9828 12.3067 21.9554 12.4579 21.9554C12.5443 21.9554 12.6325 21.9635 12.7225 21.9793C12.8125 21.9945 12.8989 22.0201 12.9817 22.0551C13.0645 22.0901 13.1413 22.135 13.2115 22.1887C13.2817 22.243 13.3399 22.3077 13.3867 22.3812H13.3975V20.9952H14.0131V24.7431Z" fill="#F02B04"/>
<path fill-rule="evenodd" clip-rule="evenodd" d="M14.5422 22.0289H15.0012V21.8031C15.0012 21.6316 15.0228 21.4928 15.066 21.3855C15.1092 21.2793 15.1668 21.1965 15.2388 21.1393C15.3108 21.0815 15.3924 21.043 15.4842 21.0232C15.5766 21.0045 15.6726 20.9952 15.7734 20.9952C15.9714 20.9952 16.1154 21.0069 16.2054 21.0314V21.4986C16.1658 21.4881 16.1232 21.4805 16.0788 21.4753C16.0332 21.47 15.9804 21.4671 15.9192 21.4671C15.8364 21.4671 15.7656 21.4864 15.7056 21.5249C15.6462 21.5634 15.6168 21.6386 15.6168 21.7506V22.0289H16.1406V22.4751H15.6168V24.7431H15.0012V22.4751H14.5422V22.0289Z" fill="#F02B04"/>
<path fill-rule="evenodd" clip-rule="evenodd" d="M12.3001 11.0555H16.5001C16.6657 11.0555 16.8001 10.9248 16.8001 10.7638C16.8001 10.6028 16.6657 10.4722 16.5001 10.4722H12.3001C12.1345 10.4722 12.0001 10.6028 12.0001 10.7638C12.0001 10.9248 12.1345 11.0555 12.3001 11.0555Z" fill="#F02B04"/>
<path fill-rule="evenodd" clip-rule="evenodd" d="M16.5001 12.2222H12.3001C12.1345 12.2222 12.0001 12.3528 12.0001 12.5138C12.0001 12.6748 12.1345 12.8055 12.3001 12.8055H16.5001C16.6657 12.8055 16.8001 12.6748 16.8001 12.5138C16.8001 12.3528 16.6657 12.2222 16.5001 12.2222Z" fill="#F02B04"/>
<path fill-rule="evenodd" clip-rule="evenodd" d="M16.5001 13.9722H12.3001C12.1345 13.9722 12.0001 14.1028 12.0001 14.2638C12.0001 14.4248 12.1345 14.5555 12.3001 14.5555H16.5001C16.6657 14.5555 16.8001 14.4248 16.8001 14.2638C16.8001 14.1028 16.6657 13.9722 16.5001 13.9722Z" fill="#F02B04"/>
<path fill-rule="evenodd" clip-rule="evenodd" d="M16.5001 15.7222H7.50013C7.33453 15.7222 7.20013 15.8528 7.20013 16.0138C7.20013 16.1748 7.33453 16.3055 7.50013 16.3055H16.5001C16.6657 16.3055 16.8001 16.1748 16.8001 16.0138C16.8001 15.8528 16.6657 15.7222 16.5001 15.7222Z" fill="#F02B04"/>
<path fill-rule="evenodd" clip-rule="evenodd" d="M16.5001 17.4722H7.50013C7.33453 17.4722 7.20013 17.6028 7.20013 17.7638C7.20013 17.9248 7.33453 18.0555 7.50013 18.0555H16.5001C16.6657 18.0555 16.8001 17.9248 16.8001 17.7638C16.8001 17.6028 16.6657 17.4722 16.5001 17.4722Z" fill="#F02B04"/>
<path fill-rule="evenodd" clip-rule="evenodd" d="M7.80001 13.972H10.2V11.0553H7.80001V13.972ZM7.50001 14.5553H10.5C10.6662 14.5553 10.8 14.4252 10.8 14.2637V10.7637C10.8 10.6027 10.6662 10.472 10.5 10.472H7.50001C7.33441 10.472 7.20001 10.6027 7.20001 10.7637V14.2637C7.20001 14.4252 7.33441 14.5553 7.50001 14.5553Z" fill="#F02B04"/>
</svg>
