<svg width="24" height="28" viewBox="0 0 24 28" fill="none" xmlns="http://www.w3.org/2000/svg">
<path fill-rule="evenodd" clip-rule="evenodd" d="M2.25009 27.8542C1.09209 27.8542 0.150085 26.9279 0.150085 25.7892V2.21031C0.150085 1.07222 1.09209 0.145889 2.25009 0.145889H16.5001C16.6609 0.145889 16.8115 0.206556 16.9237 0.317973L23.6737 6.94989C23.7877 7.06189 23.8501 7.21064 23.8501 7.36872V25.7892C23.8501 26.9279 22.9081 27.8542 21.7501 27.8542H2.25009Z" fill="white"/>
<path fill-rule="evenodd" clip-rule="evenodd" d="M16.5001 9.91821e-05H2.25012C1.00932 9.91821e-05 0.00012207 0.991183 0.00012207 2.21035V25.7898C0.00012207 27.0084 1.00932 28.0001 2.25012 28.0001H21.7501C22.9909 28.0001 24.0001 27.0084 24.0001 25.7898V7.36877C24.0001 7.17277 23.9209 6.9861 23.7805 6.84727L17.0305 0.215933C16.8895 0.0765159 16.6993 9.91821e-05 16.5001 9.91821e-05ZM16.5001 0.291725C16.6207 0.291725 16.7329 0.337225 16.8169 0.421225L23.5669 7.05256C23.6527 7.13656 23.7001 7.24914 23.7001 7.36872V25.7898C23.7001 26.8474 22.8253 27.7084 21.7501 27.7084H2.25007C1.17487 27.7084 0.300074 26.8474 0.300074 25.7898V2.21031C0.300074 1.15272 1.17487 0.291725 2.25007 0.291725H16.5001Z" fill="#EBECEF"/>
<path fill-rule="evenodd" clip-rule="evenodd" d="M24.0001 7.36861C24.0001 7.17261 23.9209 6.98594 23.7805 6.84711L17.0305 0.215772C16.8895 0.0763556 16.6993 -6.10352e-05 16.5001 -6.10352e-05H16.0123V5.63727C16.0123 6.85586 17.0215 7.84752 18.2623 7.84752H24.0001V7.36861Z" fill="#EBECEF"/>
<path fill-rule="evenodd" clip-rule="evenodd" d="M10.0811 23.3886C10.0811 23.2661 10.0649 23.1471 10.0325 23.0316C10.0001 22.9161 9.95149 22.814 9.88669 22.7242C9.82189 22.6355 9.74089 22.5638 9.64369 22.509C9.54649 22.4547 9.43489 22.4279 9.30889 22.4279C9.04969 22.4279 8.85469 22.5154 8.72329 22.6904C8.59189 22.866 8.52589 23.0981 8.52589 23.3886C8.52589 23.5251 8.54329 23.6517 8.57749 23.769C8.61109 23.8868 8.66269 23.9871 8.73109 24.0711C8.79949 24.1551 8.88109 24.2216 8.97709 24.2706C9.07189 24.3196 9.18289 24.3441 9.30889 24.3441C9.44929 24.3441 9.56809 24.3161 9.66529 24.2601C9.76249 24.2041 9.84289 24.1312 9.90589 24.042C9.96889 23.9533 10.0139 23.8518 10.0409 23.738C10.0679 23.6237 10.0811 23.5076 10.0811 23.3886ZM7.93188 22.0289H8.51508V22.3964H8.52588C8.61228 22.2389 8.73288 22.1263 8.88768 22.058C9.04248 21.9898 9.20988 21.9554 9.38988 21.9554C9.60948 21.9554 9.80148 21.9927 9.96528 22.068C10.1291 22.1432 10.2647 22.247 10.3727 22.3783C10.4807 22.509 10.5617 22.6624 10.6157 22.8374C10.6697 23.0124 10.6967 23.1996 10.6967 23.3991C10.6967 23.5811 10.6721 23.7579 10.6241 23.9294C10.5755 24.1009 10.5017 24.252 10.4027 24.3832C10.3037 24.515 10.1783 24.6195 10.0271 24.6982C9.87588 24.7775 9.69768 24.8166 9.49248 24.8166C9.40248 24.8166 9.31248 24.809 9.22248 24.7927C9.13248 24.7775 9.04608 24.7519 8.96328 24.7169C8.88048 24.6819 8.80428 24.6375 8.73348 24.5833C8.66388 24.5285 8.60508 24.4649 8.55828 24.3914H8.54748V25.7459H7.93188V22.0289Z" fill="#FF742F"/>
<path fill-rule="evenodd" clip-rule="evenodd" d="M13.5157 23.3886C13.5157 23.2661 13.4995 23.1471 13.4671 23.0316C13.4347 22.9161 13.3861 22.814 13.3213 22.7242C13.2565 22.6355 13.1755 22.5637 13.0783 22.5089C12.9811 22.4547 12.8695 22.4278 12.7435 22.4278C12.4843 22.4278 12.2893 22.5153 12.1579 22.6903C12.0265 22.8659 11.9605 23.0981 11.9605 23.3886C11.9605 23.5251 11.9779 23.6517 12.0121 23.7689C12.0457 23.8867 12.0973 23.9871 12.1657 24.0711C12.2341 24.1551 12.3157 24.2216 12.4117 24.2706C12.5065 24.3196 12.6175 24.3441 12.7435 24.3441C12.8839 24.3441 13.0027 24.3161 13.0999 24.2601C13.1971 24.2041 13.2775 24.1312 13.3405 24.0419C13.4035 23.9532 13.4485 23.8517 13.4755 23.738C13.5025 23.6237 13.5157 23.5076 13.5157 23.3886ZM11.3665 22.0288H11.9497V22.3963H11.9605C12.0469 22.2388 12.1675 22.1262 12.3223 22.058C12.4771 21.9897 12.6445 21.9553 12.8245 21.9553C13.0441 21.9553 13.2361 21.9927 13.3999 22.0679C13.5637 22.1432 13.6993 22.247 13.8073 22.3782C13.9153 22.5089 13.9963 22.6623 14.0503 22.8373C14.1043 23.0123 14.1313 23.1996 14.1313 23.3991C14.1313 23.5811 14.1067 23.7578 14.0587 23.9293C14.0101 24.1008 13.9363 24.2519 13.8373 24.3832C13.7383 24.515 13.6129 24.6194 13.4617 24.6982C13.3105 24.7775 13.1323 24.8166 12.9271 24.8166C12.8371 24.8166 12.7471 24.809 12.6571 24.7927C12.5671 24.7775 12.4807 24.7518 12.3979 24.7168C12.3151 24.6818 12.2389 24.6375 12.1681 24.5832C12.0985 24.5284 12.0397 24.4648 11.9929 24.3913H11.9821V25.7458H11.3665V22.0288Z" fill="#FF742F"/>
<path fill-rule="evenodd" clip-rule="evenodd" d="M14.5036 22.0288H14.968V21.2151H15.5836V22.0288H16.1398V22.4751H15.5836V23.9241C15.5836 23.9871 15.5866 24.0413 15.592 24.0868C15.5974 24.1323 15.61 24.1708 15.6298 24.2029C15.6496 24.2338 15.679 24.2572 15.7186 24.2735C15.7582 24.2892 15.8122 24.2968 15.8806 24.2968C15.9238 24.2968 15.967 24.2962 16.0102 24.2945C16.0534 24.2927 16.0966 24.2863 16.1398 24.2764V24.7384C16.0714 24.7448 16.0048 24.7518 15.94 24.7588C15.8752 24.7658 15.8086 24.7693 15.7402 24.7693C15.5782 24.7693 15.448 24.7547 15.349 24.7244C15.25 24.6947 15.1726 24.6509 15.1162 24.5932C15.061 24.536 15.0232 24.4631 15.0034 24.3756C14.9836 24.2881 14.9716 24.1883 14.968 24.0763V22.4751H14.5036V22.0288Z" fill="#FF742F"/>
<path fill-rule="evenodd" clip-rule="evenodd" d="M11.5263 10.8094C10.4511 10.8094 9.44011 11.2166 8.67931 11.9562C7.91851 12.6953 7.50031 13.6788 7.50031 14.7242C7.50031 15.7695 7.91911 16.7524 8.67931 17.4915C9.43951 18.2317 10.4511 18.6383 11.5263 18.6383C12.6015 18.6383 13.6125 18.2312 14.3733 17.4915C15.1341 16.7524 15.5523 15.7695 15.5523 14.7242C15.5523 14.5964 15.4467 14.4937 15.3159 14.4937H11.7633V11.0398C11.7633 10.9127 11.6571 10.8094 11.5263 10.8094ZM11.1633 11.4114V14.4937C11.1633 14.8157 11.4315 15.0771 11.7633 15.0771H14.9337C14.8521 15.8337 14.5101 16.5342 13.9491 17.0791C13.3011 17.7085 12.4407 18.055 11.5263 18.055C10.6107 18.055 9.7509 17.7085 9.1035 17.0791C8.4567 16.4497 8.1003 15.6132 8.1003 14.7242C8.1003 13.834 8.4561 12.9975 9.1035 12.3692C9.6645 11.8232 10.3857 11.4907 11.1633 11.4114Z" fill="#FF742F"/>
<path fill-rule="evenodd" clip-rule="evenodd" d="M12.5931 9.8882C12.4665 9.8882 12.3633 9.98853 12.3633 10.1122V13.6869C12.3633 13.8105 12.4665 13.9109 12.5931 13.9109H16.2699C16.3971 13.9109 16.5003 13.8105 16.5003 13.6869C16.5003 12.6724 16.0935 11.7187 15.3555 11.0012C14.6181 10.2837 13.6365 9.8882 12.5931 9.8882ZM12.9633 10.4914C13.7067 10.5719 14.3949 10.8921 14.9313 11.4136C15.4677 11.9357 15.7971 12.6048 15.8799 13.3275H12.9633V10.4914Z" fill="#FF742F"/>
</svg>
