<svg width="24" height="28" viewBox="0 0 24 28" fill="none" xmlns="http://www.w3.org/2000/svg">
<path fill-rule="evenodd" clip-rule="evenodd" d="M2.25002 27.8542C1.09202 27.8542 0.150024 26.9279 0.150024 25.7892V2.21031C0.150024 1.07222 1.09202 0.145889 2.25002 0.145889H16.5C16.6614 0.145889 16.8114 0.206556 16.923 0.317973L23.6736 6.94989C23.7876 7.06189 23.85 7.21064 23.85 7.36872V25.7892C23.85 26.9279 22.908 27.8542 21.75 27.8542H2.25002Z" fill="white"/>
<mask id="mask0" mask-type="alpha" maskUnits="userSpaceOnUse" x="0" y="0" width="24" height="28">
<path fill-rule="evenodd" clip-rule="evenodd" d="M0 0.000106812H24V28H0V0.000106812Z" fill="white"/>
</mask>
<g mask="url(#mask0)">
<path fill-rule="evenodd" clip-rule="evenodd" d="M16.5 0.000106812H2.25C1.0092 0.000106812 0 0.99119 0 2.21036V25.7899C0 27.0084 1.0092 28.0001 2.25 28.0001H21.75C22.9902 28.0001 24 27.0084 24 25.7899V7.36877C24 7.17277 23.9208 6.98611 23.7804 6.84727L17.0304 0.21594C16.8894 0.0765235 16.6992 0.000106812 16.5 0.000106812ZM16.5 0.291729C16.62 0.291729 16.7328 0.337229 16.8168 0.421229L23.5668 7.05256C23.6526 7.13656 23.7 7.24915 23.7 7.36873V25.7898C23.7 26.8474 22.8252 27.7084 21.75 27.7084H2.25C1.1748 27.7084 0.300001 26.8474 0.300001 25.7898V2.21031C0.300001 1.15273 1.1748 0.291729 2.25 0.291729H16.5Z" fill="#EBECEF"/>
</g>
<path fill-rule="evenodd" clip-rule="evenodd" d="M24 7.36867C24 7.17267 23.9208 6.986 23.7804 6.84717L17.0304 0.215833C16.8894 0.0764167 16.6992 0 16.5 0H16.0122V5.63733C16.0122 6.85592 17.0214 7.84758 18.2622 7.84758H24V7.36867Z" fill="#EBECEF"/>
<path fill-rule="evenodd" clip-rule="evenodd" d="M8.57751 22.0289H9.04191V21.2151H9.65751V22.0289H10.2137V22.4751H9.65751V23.9241C9.65751 23.9871 9.66051 24.0414 9.66531 24.0869C9.67071 24.1324 9.68391 24.1709 9.70371 24.203C9.72291 24.2339 9.75291 24.2572 9.79251 24.2736C9.83211 24.2893 9.88611 24.2969 9.95451 24.2969C9.99771 24.2969 10.0409 24.2963 10.0841 24.2946C10.1273 24.2928 10.1705 24.2864 10.2137 24.2765V24.7385C10.1453 24.7449 10.0787 24.7519 10.0139 24.7589C9.94911 24.7659 9.88251 24.7694 9.81411 24.7694C9.65211 24.7694 9.52131 24.7548 9.42231 24.7245C9.32331 24.6947 9.24591 24.651 9.19011 24.5932C9.13491 24.5361 9.09651 24.4631 9.07671 24.3756C9.05751 24.2881 9.04551 24.1884 9.04191 24.0764V22.4751H8.57751V22.0289Z" fill="#795545"/>
<path fill-rule="evenodd" clip-rule="evenodd" d="M11.5424 23.3152L10.5758 22.0289H11.321L11.9042 22.8637L12.5144 22.0289H13.2272L12.2768 23.2837L13.346 24.7432H12.6056L11.8988 23.7404L11.213 24.7432H10.4894L11.5424 23.3152Z" fill="#795545"/>
<path fill-rule="evenodd" clip-rule="evenodd" d="M13.5451 22.0289H14.0095V21.2151H14.6257V22.0289H15.1819V22.4751H14.6257V23.9241C14.6257 23.9871 14.6281 24.0414 14.6335 24.0869C14.6389 24.1324 14.6515 24.1709 14.6713 24.203C14.6911 24.2339 14.7205 24.2572 14.7601 24.2736C14.8003 24.2893 14.8543 24.2969 14.9227 24.2969C14.9653 24.2969 15.0085 24.2963 15.0523 24.2946C15.0949 24.2928 15.1381 24.2864 15.1819 24.2765V24.7385C15.1129 24.7449 15.0469 24.7519 14.9821 24.7589C14.9167 24.7659 14.8507 24.7694 14.7823 24.7694C14.6197 24.7694 14.4895 24.7548 14.3905 24.7245C14.2915 24.6947 14.2141 24.651 14.1577 24.5932C14.1025 24.5361 14.0647 24.4631 14.0449 24.3756C14.0251 24.2881 14.0131 24.1884 14.0095 24.0764V22.4751H13.5451V22.0289Z" fill="#795545"/>
<path fill-rule="evenodd" clip-rule="evenodd" d="M12.9 11.0549H16.5C16.6656 11.0549 16.8 10.9243 16.8 10.7633C16.8 10.6023 16.6656 10.4716 16.5 10.4716H12.9C12.7344 10.4716 12.6 10.6023 12.6 10.7633C12.6 10.9243 12.7344 11.0549 12.9 11.0549Z" fill="#795545"/>
<path fill-rule="evenodd" clip-rule="evenodd" d="M16.5 12.2216H12.9C12.7344 12.2216 12.6 12.3523 12.6 12.5133C12.6 12.6743 12.7344 12.8049 12.9 12.8049H16.5C16.6656 12.8049 16.8 12.6743 16.8 12.5133C16.8 12.3523 16.6656 12.2216 16.5 12.2216Z" fill="#795545"/>
<path fill-rule="evenodd" clip-rule="evenodd" d="M16.5 13.9716H12.9C12.7344 13.9716 12.6 14.1023 12.6 14.2633C12.6 14.4243 12.7344 14.5549 12.9 14.5549H16.5C16.6656 14.5549 16.8 14.4243 16.8 14.2633C16.8 14.1023 16.6656 13.9716 16.5 13.9716Z" fill="#795545"/>
<path fill-rule="evenodd" clip-rule="evenodd" d="M16.5 15.7216H7.50001C7.33441 15.7216 7.20001 15.8523 7.20001 16.0133C7.20001 16.1743 7.33441 16.3049 7.50001 16.3049H16.5C16.6656 16.3049 16.8 16.1743 16.8 16.0133C16.8 15.8523 16.6656 15.7216 16.5 15.7216Z" fill="#795545"/>
<path fill-rule="evenodd" clip-rule="evenodd" d="M16.5 17.4716H7.50001C7.33441 17.4716 7.20001 17.6023 7.20001 17.7633C7.20001 17.9243 7.33441 18.0549 7.50001 18.0549H16.5C16.6656 18.0549 16.8 17.9243 16.8 17.7633C16.8 17.6023 16.6656 17.4716 16.5 17.4716Z" fill="#795545"/>
<path fill-rule="evenodd" clip-rule="evenodd" d="M7.50001 11.0549H9.00001V14.3362C9.00001 14.4972 9.13441 14.6278 9.30001 14.6278C9.46561 14.6278 9.60001 14.4972 9.60001 14.3362V11.0549H11.1C11.2656 11.0549 11.4 10.9243 11.4 10.7633C11.4 10.6023 11.2656 10.4716 11.1 10.4716H7.50001C7.33441 10.4716 7.20001 10.6023 7.20001 10.7633C7.20001 10.9243 7.33441 11.0549 7.50001 11.0549Z" fill="#795545"/>
</svg>
