<svg width="24" height="28" viewBox="0 0 24 28" fill="none" xmlns="http://www.w3.org/2000/svg">
<path fill-rule="evenodd" clip-rule="evenodd" d="M2.24987 27.8542C1.09187 27.8542 0.149872 26.9279 0.149872 25.7892V2.21031C0.149872 1.07222 1.09187 0.145889 2.24987 0.145889H16.4999C16.6613 0.145889 16.8113 0.206556 16.9229 0.317973L23.6735 6.94989C23.7875 7.06189 23.8499 7.21064 23.8499 7.36872V25.7892C23.8499 26.9279 22.9079 27.8542 21.7499 27.8542H2.24987Z" fill="white"/>
<path fill-rule="evenodd" clip-rule="evenodd" d="M16.4998 9.91821e-05H2.24979C1.00899 9.91821e-05 -0.000213623 0.991183 -0.000213623 2.21035V25.7898C-0.000213623 27.0084 1.00899 28.0001 2.24979 28.0001H21.7498C22.9906 28.0001 23.9998 27.0084 23.9998 25.7898V7.36877C23.9998 7.17277 23.9206 6.9861 23.7802 6.84727L17.0302 0.215933C16.8892 0.0765159 16.699 9.91821e-05 16.4998 9.91821e-05ZM16.4999 0.291725C16.6205 0.291725 16.7327 0.337225 16.8167 0.421225L23.5667 7.05256C23.6525 7.13656 23.6999 7.24914 23.6999 7.36872V25.7898C23.6999 26.8474 22.8251 27.7084 21.7499 27.7084H2.24987C1.17467 27.7084 0.299872 26.8474 0.299872 25.7898V2.21031C0.299872 1.15272 1.17467 0.291725 2.24987 0.291725H16.4999Z" fill="#EBECEF"/>
<path fill-rule="evenodd" clip-rule="evenodd" d="M23.9999 7.36861C23.9999 7.17261 23.9207 6.98594 23.7803 6.84711L17.0303 0.215772C16.8893 0.0763556 16.6991 -6.10352e-05 16.4999 -6.10352e-05H16.0121V5.63727C16.0121 6.85586 17.0213 7.84752 18.2621 7.84752H23.9999V7.36861Z" fill="#EBECEF"/>
<path fill-rule="evenodd" clip-rule="evenodd" d="M9.35494 23.3152L8.38834 22.0289H9.13354L9.71674 22.8637L10.3269 22.0289H11.0397L10.0893 23.2837L11.1585 24.7432H10.4187L9.71134 23.7404L9.02554 24.7432H8.30194L9.35494 23.3152Z" fill="#27B740"/>
<path fill-rule="evenodd" clip-rule="evenodd" d="M11.6556 24.7432H12.2712V20.9948H11.6556V24.7432Z" fill="#27B740"/>
<path fill-rule="evenodd" clip-rule="evenodd" d="M13.5397 23.8718C13.5577 24.0468 13.6261 24.1692 13.7449 24.2392C13.8637 24.3092 14.0059 24.3442 14.1715 24.3442C14.2291 24.3442 14.2945 24.3402 14.3683 24.3308C14.4421 24.3221 14.5117 24.3057 14.5765 24.2812C14.6413 24.2567 14.6941 24.2212 14.7361 24.1739C14.7775 24.1267 14.7961 24.0642 14.7925 23.9873C14.7889 23.9103 14.7601 23.8473 14.7061 23.7983C14.6521 23.7493 14.5825 23.7102 14.4985 23.6804C14.4139 23.6501 14.3173 23.625 14.2093 23.604C14.1013 23.583 13.9915 23.5603 13.8799 23.5358C13.7647 23.5113 13.6537 23.4815 13.5481 23.4465C13.4413 23.4115 13.3459 23.3643 13.2619 23.3048C13.1773 23.2453 13.1095 23.1694 13.0591 23.0767C13.0087 22.9839 12.9835 22.869 12.9835 22.7325C12.9835 22.5855 13.0201 22.4618 13.0939 22.3621C13.1677 22.2623 13.2619 22.1824 13.3753 22.1206C13.4887 22.0599 13.6147 22.0168 13.7527 21.9923C13.8913 21.9678 14.0239 21.9555 14.1499 21.9555C14.2939 21.9555 14.4313 21.9701 14.5633 21.9998C14.6941 22.0302 14.8135 22.078 14.9191 22.1445C15.0259 22.211 15.1141 22.2979 15.1843 22.4041C15.2539 22.5114 15.2983 22.6398 15.3163 22.7903H14.6737C14.6449 22.6468 14.5771 22.5505 14.4715 22.5015C14.3647 22.4525 14.2435 22.4274 14.1067 22.4274C14.0635 22.4274 14.0125 22.4315 13.9525 22.4385C13.8931 22.4455 13.8379 22.4583 13.7857 22.4776C13.7329 22.4974 13.6891 22.5248 13.6531 22.5622C13.6171 22.5983 13.5991 22.6468 13.5991 22.7063C13.5991 22.7798 13.6255 22.8393 13.6771 22.8848C13.7293 22.9303 13.7983 22.9676 13.8829 22.9973C13.9669 23.0277 14.0635 23.0528 14.1715 23.0738C14.2795 23.0948 14.3911 23.1175 14.5063 23.142C14.6179 23.1665 14.7277 23.1963 14.8357 23.2313C14.9437 23.2663 15.0397 23.3135 15.1249 23.373C15.2089 23.4325 15.2773 23.5078 15.3295 23.5988C15.3817 23.6898 15.4081 23.8018 15.4081 23.9342C15.4081 24.0957 15.3703 24.2322 15.2947 24.3442C15.2191 24.4562 15.1207 24.5472 15.0007 24.6172C14.8795 24.6872 14.7457 24.738 14.5981 24.7695C14.4505 24.801 14.3047 24.8167 14.1607 24.8167C13.9843 24.8167 13.8211 24.7975 13.6723 24.759C13.5229 24.7205 13.3927 24.6616 13.2835 24.5834C13.1737 24.5041 13.0873 24.4061 13.0243 24.2894C12.9613 24.1722 12.9277 24.0328 12.9241 23.8718H13.5397Z" fill="#27B740"/>
<path fill-rule="evenodd" clip-rule="evenodd" d="M13.8 17.4714H16.2V14.5548H13.8V17.4714ZM10.8 17.4714H13.2V14.5548H10.8V17.4714ZM7.79998 17.4714H10.2V14.5548H7.79998V17.4714ZM7.79998 13.9714H10.2V11.0548H7.79998V13.9714ZM13.8 13.9714H16.2V11.0548H13.8V13.9714ZM10.8 13.9714H13.2V11.0548H10.8V13.9714ZM16.5 10.4714H7.49998C7.33378 10.4714 7.19998 10.6021 7.19998 10.7631V17.7631C7.19998 17.9247 7.33378 18.0548 7.49998 18.0548H16.5C16.6656 18.0548 16.8 17.9247 16.8 17.7631V10.7631C16.8 10.6021 16.6656 10.4714 16.5 10.4714Z" fill="#27B740"/>
</svg>
