<svg width="127" height="32" viewBox="0 0 127 32" fill="none" xmlns="http://www.w3.org/2000/svg">
    <path d="M34.3389 16.3762C34.3389 18.5235 34.7091 19.8564 35.5606 21.1151C36.7453 22.8552 39.0037 23.8178 42.0396 23.8178C45.0384 23.8178 47.2968 22.8552 48.4816 21.1151C49.3331 19.8564 49.7033 18.5235 49.7033 16.3762V7.0835C49.7033 6.89839 49.5552 6.71328 49.3701 6.71328H47.3709C47.1858 6.71328 47.0006 6.89839 47.0006 7.0835V16.1171C47.0006 17.598 46.8526 18.5235 46.3342 19.4121C45.7049 20.5968 44.261 21.4113 42.0396 21.4113C39.8182 21.4113 38.4114 20.5598 37.7079 19.3751C37.2266 18.4865 37.0415 17.598 37.0415 16.1171V7.0835C37.0415 6.89839 36.8934 6.71328 36.6713 6.71328H34.6721C34.487 6.71328 34.3389 6.89839 34.3389 7.0835V16.3762Z" fill="black"/>
    <path d="M56.5496 8.82358C57.4382 8.71251 58.5118 8.60144 59.4744 8.60144C61.5107 8.60144 63.2507 9.23083 64.4725 10.4156C65.6202 11.5262 66.2496 13.0812 66.2496 15.0804C66.2496 17.2648 65.6202 18.8938 64.5836 19.8934C63.3248 21.1522 61.6217 21.5964 60.2149 21.5964C58.6599 21.5964 57.6603 21.3743 56.5496 20.8189V8.82358ZM54.2542 6.86137C53.958 6.93541 53.847 7.12053 53.847 7.34266V31.6666C53.847 31.8517 54.0321 31.9998 54.2172 31.9998H56.2164C56.4015 31.9998 56.5496 31.8517 56.5496 31.6666V23.0773C57.7714 23.6327 58.8821 23.8178 60.474 23.8178C62.6214 23.8178 65.1389 23.0773 66.842 21.1892C68.1378 19.8193 68.9523 17.8201 68.9523 15.0804C68.9523 12.3778 67.9526 10.2675 66.3977 8.82358C64.6206 7.19457 62.103 6.4171 59.2153 6.4171C57.4382 6.4171 55.587 6.60221 54.2542 6.86137Z" fill="black"/>
    <path d="M76.64 21.6334C74.8259 21.6334 73.3079 21.0781 72.0491 20.3006C71.827 20.1525 71.6789 20.2266 71.5678 20.4487L70.8274 21.9667C70.7163 22.1518 70.7533 22.2999 70.9755 22.4109C72.0862 23.0773 74.0114 23.8178 76.751 23.8178C80.5274 23.8178 82.9338 21.9296 82.9338 18.8938C82.9338 16.8945 81.7491 15.5987 79.8609 14.7102C78.7503 14.1549 77.0842 13.7106 75.8255 13.1552C74.7148 12.6739 73.7892 12.1186 73.7892 10.8968C73.7892 9.41594 74.8999 8.63846 77.1953 8.63846C78.5652 8.63846 79.972 9.00869 81.2308 9.71212C81.4529 9.86021 81.601 9.82319 81.7121 9.60105L82.4525 8.08312C82.5266 7.89801 82.5266 7.74991 82.2674 7.60182C81.1567 6.97244 79.3797 6.38007 77.0842 6.38007C73.1598 6.38007 70.9755 8.08312 70.9755 10.8968C70.9755 12.9331 72.1232 14.1919 73.7152 14.9323C75.048 15.5617 76.677 16.006 77.7507 16.4873C79.0835 17.0796 80.1201 17.709 80.1201 19.1159C80.1201 20.893 78.8243 21.6334 76.64 21.6334Z" fill="black"/>
    <path d="M89.3816 8.8606H95.1942C95.3793 8.8606 95.5644 8.71251 95.5644 8.52739V7.0835C95.5644 6.89839 95.3793 6.71328 95.1942 6.71328H89.3816V3.4923C89.3816 3.30718 89.1965 3.12207 89.0114 3.12207H87.0121C86.827 3.12207 86.6419 3.30718 86.6419 3.4923V6.71328H84.6797C84.4946 6.71328 84.3095 6.89839 84.3095 7.0835V8.52739C84.3095 8.71251 84.4946 8.8606 84.6797 8.8606H86.6419V17.8942C86.6419 19.5602 86.9381 21.1151 87.7896 22.1888C88.6041 23.1884 89.8999 23.8178 91.8991 23.8178C93.6762 23.8178 95.3793 23.3365 96.6751 22.4109C96.8602 22.2628 96.9342 22.1147 96.8232 21.9296L96.1567 20.4857C96.0457 20.3006 95.8606 20.2636 95.6014 20.4487C94.5277 21.2262 93.5652 21.4854 92.5655 21.4854C91.2327 21.4854 90.4182 21.0781 89.9369 20.2636C89.5297 19.6342 89.3816 18.7087 89.3816 17.5609V8.8606Z" fill="black"/>
    <path d="M105.358 8.89762C106.654 8.89762 107.654 9.34189 108.542 9.97128C108.764 10.1194 108.987 10.0823 109.098 9.89723L109.912 8.23121C110.023 8.0461 109.986 7.89801 109.801 7.74991C108.727 6.89839 107.432 6.4171 105.803 6.4171C103.581 6.4171 101.952 7.34266 101.101 9.11976H100.99V7.0835C100.99 6.89839 100.805 6.71328 100.619 6.71328H98.7313C98.5462 6.71328 98.361 6.89839 98.361 7.0835V23.1144C98.361 23.2995 98.5462 23.4476 98.7313 23.4476H100.768C100.953 23.4476 101.101 23.2995 101.101 23.1144V15.2655C101.101 13.6365 101.434 11.6373 102.36 10.3785C103.1 9.37892 104.137 8.89762 105.358 8.89762Z" fill="black"/>
    <path d="M118.619 21.5594C116.953 21.5594 115.361 21.0041 114.287 19.7453C113.361 18.6716 112.806 17.1167 112.806 15.0804C112.806 13.3404 113.287 11.8594 114.176 10.7488C115.212 9.41594 116.804 8.67548 118.656 8.67548C120.766 8.67548 122.284 9.41594 123.32 10.0083V20.2636C121.84 21.1522 120.062 21.5594 118.619 21.5594ZM123.469 7.78694C122.284 7.12053 120.581 6.4171 118.285 6.4171C115.731 6.4171 113.546 7.41671 112.103 9.11976C110.77 10.6377 110.066 12.748 110.066 15.0804C110.066 17.7831 110.844 19.9304 112.251 21.4483C113.769 23.0773 115.953 23.8178 118.285 23.8178C119.877 23.8178 121.877 23.4105 123.543 22.3739H123.654V23.1144C123.654 23.2995 123.839 23.4476 124.024 23.4476H125.653C125.875 23.4476 126.023 23.2995 126.023 23.1144V7.0835C126.023 6.89839 125.875 6.71328 125.653 6.71328H123.913C123.728 6.71328 123.543 6.89839 123.543 7.0835V7.78694H123.469Z" fill="black"/>
    <path fill-rule="evenodd" clip-rule="evenodd" d="M13.8836 7.57284C15.9748 7.57284 17.67 5.8776 17.67 3.78642C17.67 1.69524 15.9748 0 13.8836 0C11.7924 0 10.0972 1.69524 10.0972 3.78642C10.0972 5.8776 11.7924 7.57284 13.8836 7.57284ZM18.5114 13.8835C18.5114 16.4394 16.4394 18.5114 13.8835 18.5114C11.3276 18.5114 9.25569 16.4394 9.25569 13.8835C9.25569 11.3276 11.3276 9.25569 13.8835 9.25569C16.4394 9.25569 18.5114 11.3276 18.5114 13.8835ZM7.57284 13.8836C7.57284 15.9748 5.8776 17.67 3.78642 17.67C1.69524 17.67 0 15.9748 0 13.8836C0 11.7924 1.69524 10.0972 3.78642 10.0972C5.8776 10.0972 7.57284 11.7924 7.57284 13.8836ZM23.9805 17.67C26.0717 17.67 27.7669 15.9748 27.7669 13.8836C27.7669 11.7924 26.0717 10.0972 23.9805 10.0972C21.8893 10.0972 20.1941 11.7924 20.1941 13.8836C20.1941 15.9748 21.8893 17.67 23.9805 17.67ZM17.67 23.9805C17.67 26.0717 15.9748 27.7669 13.8836 27.7669C11.7924 27.7669 10.0972 26.0717 10.0972 23.9805C10.0972 21.8893 11.7924 20.1941 13.8836 20.1941C15.9748 20.1941 17.67 21.8893 17.67 23.9805ZM25.2429 5.46922C25.2429 7.09569 23.9244 8.41421 22.2979 8.41421C20.6714 8.41421 19.3529 7.09569 19.3529 5.46922C19.3529 3.84274 20.6714 2.52422 22.2979 2.52422C23.9244 2.52422 25.2429 3.84274 25.2429 5.46922ZM22.2979 25.2429C23.9244 25.2429 25.2429 23.9244 25.2429 22.2979C25.2429 20.6714 23.9244 19.3529 22.2979 19.3529C20.6714 19.3529 19.3529 20.6714 19.3529 22.2979C19.3529 23.9244 20.6714 25.2429 22.2979 25.2429ZM8.41421 22.2979C8.41421 23.9244 7.09569 25.2429 5.46922 25.2429C3.84274 25.2429 2.52422 23.9244 2.52422 22.2979C2.52422 20.6714 3.84274 19.3529 5.46922 19.3529C7.09569 19.3529 8.41421 20.6714 8.41421 22.2979ZM5.46922 8.41421C7.09569 8.41421 8.41421 7.09569 8.41421 5.46922C8.41421 3.84274 7.09569 2.52422 5.46922 2.52422C3.84274 2.52422 2.52422 3.84274 2.52422 5.46922C2.52422 7.09569 3.84274 8.41421 5.46922 8.41421Z" fill="#FFD500"/>
</svg>
