<svg width="24" height="28" viewBox="0 0 24 28" fill="none" xmlns="http://www.w3.org/2000/svg">
<path fill-rule="evenodd" clip-rule="evenodd" d="M2.24993 27.8542C1.09193 27.8542 0.149933 26.9279 0.149933 25.7892V2.21029C0.149933 1.07221 1.09193 0.145874 2.24993 0.145874H16.4999C16.6613 0.145874 16.8113 0.206541 16.9229 0.317957L23.6735 6.94987C23.7875 7.06187 23.8499 7.21062 23.8499 7.36871V25.7892C23.8499 26.9279 22.9079 27.8542 21.7499 27.8542H2.24993Z" fill="white"/>
<mask id="mask0" mask-type="alpha" maskUnits="userSpaceOnUse" x="0" y="0" width="24" height="28">
<path fill-rule="evenodd" clip-rule="evenodd" d="M-9.15527e-05 0.00012207H23.9999V28.0001H-9.15527e-05V0.00012207Z" fill="white"/>
</mask>
<g mask="url(#mask0)">
<path fill-rule="evenodd" clip-rule="evenodd" d="M16.4999 0.00012207H2.24991C1.00911 0.00012207 -9.15527e-05 0.991205 -9.15527e-05 2.21037V25.7899C-9.15527e-05 27.0085 1.00911 28.0001 2.24991 28.0001H21.7499C22.9901 28.0001 23.9999 27.0085 23.9999 25.7899V7.36879C23.9999 7.17279 23.9207 6.98612 23.7803 6.84729L17.0303 0.215955C16.8893 0.0765387 16.6991 0.00012207 16.4999 0.00012207ZM16.4999 0.291738C16.6205 0.291738 16.7327 0.337238 16.8167 0.421238L23.5667 7.05257C23.6531 7.13657 23.6999 7.24915 23.6999 7.36874V25.7898C23.6999 26.8474 22.8251 27.7084 21.7499 27.7084H2.24995C1.17475 27.7084 0.299945 26.8474 0.299945 25.7898V2.21032C0.299945 1.15274 1.17475 0.291738 2.24995 0.291738H16.4999Z" fill="#EBECEF"/>
</g>
<path fill-rule="evenodd" clip-rule="evenodd" d="M23.9999 7.36861C23.9999 7.17261 23.9207 6.98594 23.7803 6.84711L17.0303 0.215772C16.8893 0.0763556 16.6991 -6.10352e-05 16.4999 -6.10352e-05H16.0121V5.63727C16.0121 6.85586 17.0213 7.84752 18.2621 7.84752H23.9999V7.36861Z" fill="#EBECEF"/>
<path d="M16.2375 15.235L15.6375 14.8887C15.6375 14.7611 15.6562 14.5606 15.6562 14.433C15.6562 14.3236 15.6375 14.1231 15.6375 13.9955L16.2375 13.6491C16.425 13.558 16.5 13.3392 16.4437 13.1569C16.2375 12.4642 15.8625 11.8444 15.375 11.334C15.225 11.1882 15 11.1517 14.8125 11.2611L14.2125 11.6074C14.0062 11.4434 13.65 11.2429 13.4062 11.1517V10.4772C13.4062 10.2585 13.275 10.0944 13.0687 10.0397C12.3562 9.87567 11.625 9.87567 10.9125 10.0397C10.7062 10.0944 10.575 10.2585 10.575 10.4772V11.1517C10.3312 11.2429 9.975 11.4434 9.76875 11.6074L9.16875 11.2611C8.98125 11.1517 8.75625 11.1882 8.60625 11.334C8.11875 11.8444 7.74375 12.4642 7.5375 13.1569C7.48125 13.3392 7.55625 13.558 7.74375 13.6491L8.34375 13.9955C8.34375 14.1231 8.325 14.3236 8.325 14.433C8.325 14.5606 8.34375 14.7611 8.34375 14.8887L7.74375 15.235C7.55625 15.3262 7.48125 15.5449 7.5375 15.7272C7.74375 16.4199 8.11875 17.0397 8.60625 17.5502C8.75625 17.696 8.98125 17.7324 9.16875 17.6231L9.76875 17.2767C9.975 17.4408 10.3312 17.6413 10.575 17.7324V18.4069C10.575 18.6257 10.7062 18.7897 10.9125 18.8444C11.625 19.0085 12.3562 19.0085 13.0687 18.8444C13.275 18.7897 13.4062 18.6257 13.4062 18.4069V17.7324C13.65 17.6413 14.0062 17.4408 14.2125 17.2767L14.8125 17.6231C15 17.7324 15.225 17.696 15.375 17.5502C15.8625 17.0397 16.2375 16.4199 16.4437 15.7272C16.5 15.5449 16.425 15.3262 16.2375 15.235ZM15.0187 17.058L14.1375 16.5658C13.6312 17.0033 13.4625 17.0944 12.8062 17.3314V18.2975C12.5812 18.3522 12.225 18.3887 12 18.3887C11.7562 18.3887 11.4 18.3522 11.175 18.2975V17.3314C10.5375 17.1127 10.35 17.0033 9.84375 16.5658L8.9625 17.058C8.60625 16.6569 8.325 16.183 8.1375 15.6725L9.01875 15.1986C8.8875 14.5423 8.8875 14.3418 9.01875 13.6856L8.1375 13.2116C8.325 12.7012 8.60625 12.2272 8.9625 11.8262L9.84375 12.3184C10.35 11.8809 10.5375 11.7715 11.175 11.5528V10.5866C11.4 10.5319 11.7562 10.4955 12 10.4955C12.225 10.4955 12.5812 10.5319 12.8062 10.5866V11.5528C13.4437 11.7715 13.6312 11.8809 14.1375 12.3184L15.0187 11.8262C15.375 12.2272 15.6562 12.7012 15.8437 13.2116L14.9625 13.6856C15.0937 14.3418 15.0937 14.5423 14.9625 15.1986L15.8437 15.6725C15.6562 16.183 15.375 16.6569 15.0187 17.058ZM12 12.683C11.0062 12.683 10.2 13.485 10.2 14.433C10.2 15.3991 11.0062 16.183 12 16.183C12.975 16.183 13.8 15.3991 13.8 14.433C13.8 13.485 12.975 12.683 12 12.683ZM12 15.5996C11.325 15.5996 10.8 15.0892 10.8 14.433C10.8 13.7949 11.325 13.2663 12 13.2663C12.6562 13.2663 13.2 13.7949 13.2 14.433C13.2 15.0892 12.6562 15.5996 12 15.5996Z" fill="#5C6070"/>
<path d="M9.35869 22.837C9.35112 22.7376 9.32839 22.6419 9.29052 22.5498C9.25644 22.4578 9.2072 22.3786 9.14282 22.3123C9.08223 22.2424 9.00649 22.1872 8.91559 22.1467C8.82849 22.1025 8.73002 22.0804 8.6202 22.0804C8.50658 22.0804 8.40243 22.1006 8.30776 22.1411C8.21686 22.1779 8.13733 22.2313 8.06916 22.3013C8.00478 22.3676 7.95176 22.4467 7.9101 22.5388C7.87223 22.6308 7.8514 22.7302 7.84762 22.837H9.35869ZM7.84762 23.2512C7.84762 23.3617 7.86276 23.4685 7.89306 23.5716C7.92715 23.6747 7.97638 23.7649 8.04076 23.8422C8.10514 23.9195 8.18657 23.9821 8.28503 24.03C8.3835 24.0742 8.5009 24.0963 8.63724 24.0963C8.8266 24.0963 8.97808 24.0576 9.0917 23.9803C9.2091 23.8993 9.2962 23.7796 9.35301 23.6213H9.96653C9.93245 23.7759 9.87374 23.914 9.79043 24.0355C9.70711 24.157 9.60675 24.2601 9.48935 24.3448C9.37195 24.4258 9.2394 24.4865 9.0917 24.527C8.94778 24.5712 8.7963 24.5933 8.63724 24.5933C8.40622 24.5933 8.20171 24.5565 8.02372 24.4829C7.84572 24.4092 7.69424 24.3061 7.56926 24.1736C7.44807 24.041 7.35529 23.8827 7.2909 23.6986C7.23031 23.5145 7.20001 23.312 7.20001 23.0911C7.20001 22.8886 7.2322 22.6971 7.29658 22.5167C7.36475 22.3326 7.45943 22.1724 7.58062 22.0362C7.7056 21.8963 7.85519 21.7858 8.0294 21.7048C8.20361 21.6238 8.40054 21.5833 8.6202 21.5833C8.85121 21.5833 9.05761 21.6312 9.2394 21.7269C9.42497 21.819 9.57835 21.9423 9.69954 22.0969C9.82072 22.2516 9.90783 22.4302 9.96085 22.6327C10.0177 22.8315 10.0328 23.0377 10.0063 23.2512H7.84762Z" fill="#5C6070"/>
<path d="M11.2882 23.0138L10.2714 21.6606H11.0553L11.6688 22.5388L12.3108 21.6606H13.0606L12.0608 22.9806L13.1856 24.516H12.4073L11.6632 23.4611L10.9417 24.516H10.1805L11.2882 23.0138Z" fill="#5C6070"/>
<path d="M15.5664 22.837C15.5589 22.7376 15.5361 22.6419 15.4983 22.5498C15.4642 22.4578 15.415 22.3786 15.3506 22.3123C15.29 22.2424 15.2142 22.1872 15.1233 22.1467C15.0362 22.1025 14.9378 22.0804 14.828 22.0804C14.7143 22.0804 14.6102 22.1006 14.5155 22.1411C14.4246 22.1779 14.3451 22.2313 14.2769 22.3013C14.2125 22.3676 14.1595 22.4467 14.1179 22.5388C14.08 22.6308 14.0592 22.7302 14.0554 22.837H15.5664ZM14.0554 23.2512C14.0554 23.3617 14.0705 23.4685 14.1008 23.5716C14.1349 23.6747 14.1841 23.7649 14.2485 23.8422C14.3129 23.9195 14.3943 23.9821 14.4928 24.03C14.5913 24.0742 14.7087 24.0963 14.845 24.0963C15.0344 24.0963 15.1858 24.0576 15.2995 23.9803C15.4169 23.8993 15.504 23.7796 15.5608 23.6213H16.1743C16.1402 23.7759 16.0815 23.914 15.9982 24.0355C15.9149 24.157 15.8145 24.2601 15.6971 24.3448C15.5797 24.4258 15.4472 24.4865 15.2995 24.527C15.1555 24.5712 15.0041 24.5933 14.845 24.5933C14.614 24.5933 14.4095 24.5565 14.2315 24.4829C14.0535 24.4092 13.902 24.3061 13.777 24.1736C13.6558 24.041 13.563 23.8827 13.4987 23.6986C13.4381 23.5145 13.4078 23.312 13.4078 23.0911C13.4078 22.8886 13.44 22.6971 13.5043 22.5167C13.5725 22.3326 13.6672 22.1724 13.7884 22.0362C13.9134 21.8963 14.0629 21.7858 14.2372 21.7048C14.4114 21.6238 14.6083 21.5833 14.828 21.5833C15.059 21.5833 15.2654 21.6312 15.4472 21.7269C15.6327 21.819 15.7861 21.9423 15.9073 22.0969C16.0285 22.2516 16.1156 22.4302 16.1686 22.6327C16.2254 22.8315 16.2406 23.0377 16.214 23.2512H14.0554Z" fill="#5C6070"/>
</svg>
